<svg width="268" height="268" viewBox="0 0 268 268" fill="none" xmlns="http://www.w3.org/2000/svg">
<circle cx="134.5" cy="134.5" r="77" stroke="#F1A141"/>
<circle cx="134" cy="134" r="105.5" stroke="#FFBE51" stroke-opacity="0.6"/>
<circle cx="134" cy="134" r="133.5" stroke="#FFBE51" stroke-opacity="0.2"/>
<path d="M143.894 153.08C160.676 153.08 174.28 139.475 174.28 122.693C174.28 105.911 160.676 92.3066 143.894 92.3066C127.111 92.3066 113.507 105.911 113.507 122.693C113.507 139.475 127.111 153.08 143.894 153.08Z" fill="#FFE5D2"/>
<path d="M133.293 140.36V130.816C133.293 128.211 135.284 125.994 138.067 125.164C140.512 124.434 142.972 123.738 145.275 122.737L150.253 120.573L155.232 122.737C157.535 123.737 159.995 124.434 162.44 125.163C165.222 125.994 167.213 128.211 167.213 130.816V140.36H133.293Z" fill="#A9BA5A"/>
<path d="M167.214 141.773H133.294C132.919 141.773 132.559 141.624 132.294 141.359C132.029 141.094 131.88 140.735 131.88 140.36V130.816C131.88 127.657 134.205 124.842 137.663 123.809L138.373 123.598C140.603 122.936 142.71 122.31 144.712 121.441L149.69 119.277C149.868 119.2 150.06 119.16 150.254 119.16C150.447 119.16 150.639 119.2 150.817 119.277L155.795 121.441C157.797 122.31 159.904 122.936 162.135 123.598L162.843 123.808C166.303 124.842 168.627 127.657 168.627 130.816V140.36C168.627 140.735 168.478 141.094 168.213 141.359C167.948 141.624 167.589 141.773 167.214 141.773ZM134.707 138.947H165.8V130.816C165.8 128.917 164.287 127.19 162.035 126.517L161.33 126.308C159.117 125.651 156.829 124.971 154.669 124.033L150.254 122.114L145.838 124.033C143.679 124.971 141.391 125.651 139.177 126.308L138.471 126.518C136.22 127.19 134.707 128.917 134.707 130.816V138.947Z" fill="#4C241D"/>
<path d="M95.1338 153.08V143.536C95.1338 140.931 96.627 138.714 98.7141 137.883C100.548 137.154 102.393 136.458 104.12 135.457L107.854 133.293L111.587 135.457C113.315 136.457 115.159 137.154 116.993 137.883C119.081 138.714 120.574 140.931 120.574 143.536V153.08H95.1338Z" fill="#BD53B5"/>
<path d="M120.574 154.493H95.1335C94.7587 154.493 94.3992 154.344 94.1342 154.079C93.8691 153.814 93.7202 153.455 93.7202 153.08V143.536C93.7202 140.434 95.5166 137.635 98.1906 136.57L98.722 136.359C100.377 135.704 101.941 135.086 103.411 134.234L107.144 132.07C107.36 131.945 107.604 131.88 107.853 131.88C108.102 131.88 108.347 131.945 108.562 132.07L112.295 134.234C113.766 135.086 115.33 135.704 116.984 136.359L117.515 136.57C120.19 137.635 121.986 140.434 121.986 143.536V153.08C121.986 153.266 121.95 153.449 121.879 153.621C121.808 153.792 121.704 153.948 121.573 154.079C121.442 154.211 121.286 154.315 121.114 154.386C120.943 154.457 120.759 154.493 120.574 154.493ZM96.5469 151.667H119.16V143.536C119.16 141.581 118.079 139.837 116.47 139.196L115.945 138.988C114.267 138.324 112.531 137.637 110.878 136.68L107.854 134.927L104.829 136.68C103.176 137.637 101.44 138.324 99.7619 138.988L99.2361 139.196C97.6277 139.837 96.5469 141.581 96.5469 143.536V151.667Z" fill="#4C241D"/>
<path d="M150.253 124.813C149.504 124.813 148.785 124.515 148.255 123.985C147.725 123.455 147.427 122.736 147.427 121.987V117.747H153.08V121.987C153.08 122.736 152.782 123.455 152.252 123.985C151.722 124.515 151.003 124.813 150.253 124.813Z" fill="#E7D1C4"/>
<path d="M150.254 126.227C147.916 126.227 146.014 124.325 146.014 121.987V117.747C146.014 117.372 146.163 117.012 146.428 116.747C146.693 116.482 147.052 116.333 147.427 116.333H153.08C153.455 116.333 153.815 116.482 154.08 116.747C154.345 117.012 154.494 117.372 154.494 117.747V121.987C154.494 124.325 152.592 126.227 150.254 126.227ZM148.84 119.16V121.987C148.84 122.766 149.475 123.4 150.254 123.4C151.033 123.4 151.667 122.766 151.667 121.987V119.16H148.84Z" fill="#4C241D"/>
<path d="M120.574 129.053H95.1338V113.449C95.1338 107.236 100.17 102.2 106.383 102.2H109.325C115.537 102.2 120.574 107.236 120.574 113.449V129.053Z" fill="#FFCE56"/>
<path d="M120.574 130.467H95.1335C94.7587 130.467 94.3992 130.318 94.1342 130.053C93.8691 129.788 93.7202 129.428 93.7202 129.053V113.449C93.7202 106.467 99.4004 100.787 106.382 100.787H109.325C116.307 100.787 121.987 106.467 121.987 113.449V129.053C121.987 129.428 121.838 129.788 121.573 130.053C121.308 130.318 120.948 130.467 120.574 130.467ZM96.5469 127.64H119.16V113.449C119.16 108.025 114.748 103.613 109.325 103.613H106.382C100.959 103.613 96.5469 108.025 96.5469 113.449V127.64Z" fill="#4C241D"/>
<path d="M153.787 117.747H146.72C143.208 117.747 140.36 114.899 140.36 111.387V93.72H153.787C157.3 93.72 160.147 96.5675 160.147 100.08V111.387C160.147 114.899 157.3 117.747 153.787 117.747Z" fill="#E7D1C4"/>
<path d="M153.787 119.16H146.72C142.434 119.16 138.947 115.673 138.947 111.387V93.72C138.947 93.3451 139.096 92.9856 139.361 92.7206C139.626 92.4555 139.985 92.3066 140.36 92.3066H153.787C158.073 92.3066 161.56 95.7937 161.56 100.08V111.387C161.56 115.673 158.073 119.16 153.787 119.16ZM141.773 95.1333V111.387C141.773 114.114 143.993 116.333 146.72 116.333H153.787C156.514 116.333 158.733 114.114 158.733 111.387V100.08C158.733 97.3526 156.514 95.1333 153.787 95.1333H141.773Z" fill="#4C241D"/>
<path d="M116.334 112.093V124.107C116.334 127.619 113.486 130.467 109.974 130.467H105.734C102.221 130.467 99.3735 127.619 99.3735 124.107V112.093" fill="#E7D1C4"/>
<path d="M109.974 131.88H105.734C101.447 131.88 97.9604 128.393 97.9604 124.107V112.093C97.9604 111.718 98.1094 111.359 98.3744 111.094C98.6395 110.829 98.9989 110.68 99.3738 110.68C99.7486 110.68 100.108 110.829 100.373 111.094C100.638 111.359 100.787 111.718 100.787 112.093V124.107C100.787 126.834 103.006 129.053 105.734 129.053H109.974C112.701 129.053 114.92 126.834 114.92 124.107V112.093C114.92 111.718 115.069 111.359 115.334 111.094C115.599 110.829 115.959 110.68 116.334 110.68C116.709 110.68 117.068 110.829 117.333 111.094C117.598 111.359 117.747 111.718 117.747 112.093V124.107C117.747 128.393 114.26 131.88 109.974 131.88Z" fill="#4C241D"/>
<path d="M152.248 100.787H147.97C142.207 100.787 137.534 96.9901 137.534 92.3066H154.281C157.521 92.3066 160.147 94.4404 160.147 97.0728V100.787" fill="#6B4F5B"/>
<path d="M160.147 102.2C159.772 102.2 159.412 102.051 159.147 101.786C158.882 101.521 158.733 101.161 158.733 100.787V97.0724C158.733 95.2238 156.736 93.72 154.281 93.72H139.128C139.967 96.9413 143.612 99.3733 147.97 99.3733H152.247C152.622 99.3733 152.981 99.5222 153.246 99.7873C153.511 100.052 153.66 100.412 153.66 100.787C153.66 101.161 153.511 101.521 153.246 101.786C152.981 102.051 152.622 102.2 152.247 102.2H147.97C141.436 102.2 136.12 97.7618 136.12 92.3066C136.12 91.9318 136.269 91.5723 136.534 91.3073C136.799 91.0422 137.159 90.8933 137.533 90.8933H154.281C158.295 90.8933 161.56 93.6656 161.56 97.0724V100.787C161.56 101.161 161.411 101.521 161.146 101.786C160.881 102.051 160.522 102.2 160.147 102.2Z" fill="#4C241D"/>
<path d="M110.68 134.707L107.854 138.947L105.027 134.707V130.467H110.68V134.707Z" fill="#E7D1C4"/>
<path d="M107.854 140.36C107.621 140.36 107.392 140.303 107.187 140.193C106.982 140.083 106.807 139.924 106.678 139.731L103.851 135.491C103.696 135.259 103.614 134.986 103.614 134.707V130.467C103.614 130.092 103.763 129.732 104.028 129.467C104.293 129.202 104.652 129.053 105.027 129.053H110.68C111.055 129.053 111.415 129.202 111.68 129.467C111.945 129.732 112.094 130.092 112.094 130.467V134.707C112.094 134.985 112.011 135.259 111.856 135.491L109.03 139.731C108.901 139.924 108.726 140.083 108.521 140.193C108.316 140.303 108.086 140.36 107.854 140.36ZM106.44 134.279L107.854 136.399L109.267 134.279V131.88H106.44V134.279Z" fill="#4C241D"/>
<path d="M97.9604 112.093H103.614C105.312 112.093 106.817 111.329 107.854 110.144C108.89 111.329 110.396 112.093 112.094 112.093H117.747" fill="#FFCE56"/>
<path d="M117.747 113.507H112.094C110.558 113.507 109.072 112.994 107.854 112.068C106.635 112.994 105.149 113.507 103.614 113.507H97.9602C97.5854 113.507 97.2259 113.358 96.9608 113.093C96.6958 112.828 96.5469 112.468 96.5469 112.093C96.5469 111.718 96.6958 111.359 96.9608 111.094C97.2259 110.829 97.5854 110.68 97.9602 110.68H103.614C104.834 110.68 105.963 110.159 106.79 109.214C107.326 108.6 108.381 108.6 108.917 109.214C109.745 110.159 110.873 110.68 112.094 110.68H117.747C118.122 110.68 118.481 110.829 118.746 111.094C119.011 111.359 119.16 111.718 119.16 112.093C119.16 112.468 119.011 112.828 118.746 113.093C118.481 113.358 118.122 113.507 117.747 113.507Z" fill="#4C241D"/>
<path d="M160.147 141.773C159.772 141.773 159.413 141.624 159.147 141.359C158.882 141.094 158.734 140.735 158.734 140.36V133.293C158.734 132.918 158.882 132.559 159.147 132.294C159.413 132.029 159.772 131.88 160.147 131.88C160.522 131.88 160.881 132.029 161.146 132.294C161.411 132.559 161.56 132.918 161.56 133.293V140.36C161.56 140.735 161.411 141.094 161.146 141.359C160.881 141.624 160.522 141.773 160.147 141.773ZM140.36 141.773C139.985 141.773 139.626 141.624 139.361 141.359C139.096 141.094 138.947 140.735 138.947 140.36V133.293C138.947 132.918 139.096 132.559 139.361 132.294C139.626 132.029 139.985 131.88 140.36 131.88C140.735 131.88 141.095 132.029 141.36 132.294C141.625 132.559 141.774 132.918 141.774 133.293V140.36C141.774 140.735 141.625 141.094 141.36 141.359C141.095 141.624 140.735 141.773 140.36 141.773ZM114.92 154.493C114.545 154.493 114.186 154.344 113.921 154.079C113.656 153.814 113.507 153.455 113.507 153.08V147.427C113.507 147.052 113.656 146.692 113.921 146.427C114.186 146.162 114.545 146.013 114.92 146.013C115.295 146.013 115.655 146.162 115.92 146.427C116.185 146.692 116.334 147.052 116.334 147.427V153.08C116.334 153.455 116.185 153.814 115.92 154.079C115.655 154.344 115.295 154.493 114.92 154.493ZM100.787 154.493C100.412 154.493 100.053 154.344 99.7875 154.079C99.5224 153.814 99.3735 153.455 99.3735 153.08V147.427C99.3735 147.052 99.5224 146.692 99.7875 146.427C100.053 146.162 100.412 146.013 100.787 146.013C101.162 146.013 101.521 146.162 101.786 146.427C102.051 146.692 102.2 147.052 102.2 147.427V153.08C102.2 153.455 102.051 153.814 101.786 154.079C101.521 154.344 101.162 154.493 100.787 154.493Z" fill="#4C241D"/>
<path d="M95.1806 100.919C95.9821 100.919 96.6318 100.27 96.6318 99.4684C96.6318 98.6669 95.9821 98.0172 95.1806 98.0172C94.3792 98.0172 93.7295 98.6669 93.7295 99.4684C93.7295 100.27 94.3792 100.919 95.1806 100.919Z" fill="#4C241D"/>
<path d="M127.64 175.693C129.982 175.693 131.88 173.795 131.88 171.453C131.88 169.112 129.982 167.213 127.64 167.213C125.299 167.213 123.4 169.112 123.4 171.453C123.4 173.795 125.299 175.693 127.64 175.693Z" fill="#E66353"/>
<path d="M127.64 177.107C124.523 177.107 121.987 174.57 121.987 171.453C121.987 168.336 124.523 165.8 127.64 165.8C130.757 165.8 133.293 168.336 133.293 171.453C133.293 174.57 130.757 177.107 127.64 177.107ZM127.64 168.627C126.081 168.627 124.813 169.894 124.813 171.453C124.813 173.012 126.081 174.28 127.64 174.28C129.199 174.28 130.467 173.012 130.467 171.453C130.467 169.894 129.199 168.627 127.64 168.627Z" fill="#4C241D"/>
<path d="M128.347 114.4C129.231 114.4 129.947 113.684 129.947 112.8C129.947 111.916 129.231 111.2 128.347 111.2C127.463 111.2 126.747 111.916 126.747 112.8C126.747 113.684 127.463 114.4 128.347 114.4Z" fill="#4C241D"/>
<path d="M150.254 162.973H107.854C107.479 162.973 107.119 162.824 106.854 162.559C106.589 162.294 106.44 161.935 106.44 161.56V157.32C106.44 156.945 106.589 156.586 106.854 156.321C107.119 156.056 107.479 155.907 107.854 155.907C108.229 155.907 108.588 156.056 108.853 156.321C109.118 156.586 109.267 156.945 109.267 157.32V160.147H148.84V144.6C148.84 144.225 148.989 143.866 149.254 143.601C149.519 143.336 149.879 143.187 150.254 143.187C150.629 143.187 150.988 143.336 151.253 143.601C151.518 143.866 151.667 144.225 151.667 144.6V161.56C151.667 161.935 151.518 162.294 151.253 162.559C150.988 162.824 150.629 162.973 150.254 162.973Z" fill="#4C241D"/>
<path d="M127.64 168.627C127.265 168.627 126.906 168.478 126.641 168.213C126.376 167.948 126.227 167.588 126.227 167.213V161.56C126.227 161.185 126.376 160.826 126.641 160.561C126.906 160.296 127.265 160.147 127.64 160.147C128.015 160.147 128.375 160.296 128.64 160.561C128.905 160.826 129.054 161.185 129.054 161.56V167.213C129.054 167.588 128.905 167.948 128.64 168.213C128.375 168.478 128.015 168.627 127.64 168.627ZM122.217 99.8496C121.938 99.8496 121.665 99.7666 121.432 99.6113C121.2 99.456 121.019 99.2353 120.912 98.9771C120.805 98.7189 120.777 98.4348 120.831 98.1606C120.886 97.8865 121.02 97.6347 121.218 97.4371L126.41 92.2448C126.541 92.1098 126.697 92.0022 126.869 91.9281C127.041 91.854 127.227 91.815 127.415 91.8134C127.602 91.8118 127.788 91.8475 127.962 91.9186C128.136 91.9897 128.294 92.0946 128.426 92.2273C128.559 92.36 128.664 92.5178 128.735 92.6915C128.806 92.8652 128.842 93.0513 128.84 93.239C128.838 93.4266 128.799 93.6121 128.725 93.7845C128.651 93.957 128.544 94.1129 128.409 94.2433L123.216 99.4355C123.085 99.567 122.93 99.6712 122.758 99.7423C122.587 99.8134 122.403 99.8498 122.217 99.8496Z" fill="#4C241D"/>
<path d="M127.41 99.8496C127.224 99.8498 127.04 99.8133 126.869 99.7423C126.697 99.6712 126.542 99.5669 126.411 99.4355L121.218 94.2429C121.083 94.1125 120.975 93.9566 120.901 93.7842C120.827 93.6117 120.788 93.4263 120.787 93.2386C120.785 93.0509 120.821 92.8648 120.892 92.6911C120.963 92.5174 121.068 92.3596 121.201 92.2269C121.333 92.0942 121.491 91.9893 121.665 91.9182C121.838 91.8472 122.025 91.8114 122.212 91.813C122.4 91.8147 122.585 91.8537 122.758 91.9277C122.93 92.0018 123.086 92.1095 123.217 92.2445L128.409 97.4367C128.674 97.7017 128.823 98.0612 128.823 98.4359C128.823 98.8107 128.674 99.1701 128.409 99.4351C128.278 99.5667 128.122 99.6711 127.951 99.7422C127.779 99.8133 127.596 99.8498 127.41 99.8496Z" fill="#4C241D"/>
</svg>
