<svg width="16" height="17" viewBox="0 0 16 17" fill="none" xmlns="http://www.w3.org/2000/svg">
<g clip-path="url(#clip0_938_2446)">
<path d="M9.19622 4.14478C8.80856 4.03853 8.40609 3.98466 8 3.98466C5.51022 3.98466 3.48466 6.01022 3.48466 8.5C3.48466 10.9898 5.51022 13.0153 8 13.0153C10.4898 13.0153 12.5153 10.9898 12.5153 8.5C12.5153 8.09391 12.4615 7.69144 12.3552 7.30378C12.2822 7.03747 12.4389 6.76241 12.7052 6.68941C12.9714 6.61644 13.2466 6.77312 13.3196 7.03944C13.4498 7.51537 13.5156 8.00659 13.5153 8.5C13.5153 11.5412 11.0412 14.0153 8 14.0153C4.95884 14.0153 2.48466 11.5412 2.48466 8.5C2.48466 5.45884 4.95884 2.98466 8 2.98466C8.49541 2.98466 8.98678 3.0505 9.46056 3.18038C9.68266 3.24125 9.82853 3.44269 9.8285 3.66237C9.82846 3.7071 9.82244 3.75162 9.81059 3.79475C9.73762 4.06106 9.46259 4.21788 9.19622 4.14478ZM15.0506 5.88875C14.7858 5.96716 14.6347 6.24531 14.7131 6.51013C14.9035 7.15325 15 7.82272 15 8.5C15 12.3598 11.8598 15.5 8 15.5C4.14019 15.5 1 12.3598 1 8.5C1 4.64019 4.14019 1.5 8 1.5C8.67731 1.5 9.34678 1.59653 9.98978 1.78691C10.2546 1.86534 10.5327 1.71416 10.6112 1.44941C10.6252 1.40206 10.6318 1.35434 10.6318 1.30738C10.6319 1.09159 10.4911 0.892437 10.2737 0.828031C9.5384 0.610344 8.77347 0.5 8 0.5C5.86312 0.5 3.85412 1.33216 2.34312 2.84313C0.832156 4.35416 0 6.36312 0 8.5C0 10.6369 0.832156 12.6459 2.34312 14.1569C3.85409 15.6679 5.86312 16.5 8 16.5C10.1369 16.5 12.1458 15.6678 13.6569 14.1569C15.1678 12.6459 16 10.6369 16 8.5C16 7.72659 15.8896 6.96159 15.6719 6.22625C15.5936 5.96147 15.3153 5.81047 15.0506 5.88875ZM8 6.5C8.07353 6.5 8.14778 6.50406 8.22072 6.51206C8.49534 6.54228 8.74219 6.34406 8.77225 6.06959C8.80237 5.79509 8.60428 5.54816 8.32978 5.51806C8.22026 5.50604 8.11017 5.50001 8 5.5C6.34578 5.5 5 6.84578 5 8.5C5 10.1542 6.34578 11.5 8 11.5C9.65422 11.5 11 10.1542 11 8.5C11 8.22384 10.7762 8 10.5 8C10.2238 8 10 8.22384 10 8.5C10 9.60281 9.10281 10.5 8 10.5C6.89719 10.5 6 9.60281 6 8.5C6 7.39719 6.89719 6.5 8 6.5ZM10.5529 5.24003L10.802 2.74169C10.8134 2.62678 10.8643 2.51937 10.946 2.43772L12.7373 0.646437C12.8049 0.578879 12.8904 0.532095 12.9837 0.511626C13.0771 0.491157 13.1743 0.497858 13.264 0.530938C13.3536 0.564017 13.4319 0.622089 13.4896 0.698278C13.5472 0.774468 13.5819 0.865585 13.5893 0.960844L13.7314 2.76866L15.5392 2.91066C15.6344 2.91814 15.7255 2.95276 15.8017 3.01042C15.8779 3.06809 15.936 3.14638 15.9691 3.23603C16.0022 3.32568 16.0089 3.42293 15.9884 3.51627C15.9679 3.6096 15.9211 3.69512 15.8536 3.76269L14.0622 5.55397C13.9806 5.63563 13.8732 5.6865 13.7583 5.69794L11.26 5.94712L8.35356 8.85356C8.30718 8.90006 8.25207 8.93693 8.19139 8.96206C8.13072 8.98719 8.06567 9.00008 8 9C7.93433 9.00009 7.86928 8.9872 7.80861 8.96206C7.74794 8.93692 7.69283 8.90004 7.64647 8.85353C7.45119 8.65828 7.45119 8.34169 7.64647 8.14644L10.5529 5.24003ZM11.5909 4.90919L13.4814 4.72062L14.3793 3.82266L13.2272 3.73216C13.1085 3.72282 12.997 3.67143 12.9128 3.58723C12.8286 3.50303 12.7772 3.39155 12.7679 3.27284L12.6774 2.12063L11.7794 3.01863L11.5909 4.90919Z" fill="#121212"/>
</g>
<defs>
<clipPath id="clip0_938_2446">
<rect width="16" height="16" fill="white" transform="translate(0 0.5)"/>
</clipPath>
</defs>
</svg>
