<svg width="268" height="268" viewBox="0 0 268 268" fill="none" xmlns="http://www.w3.org/2000/svg">
<circle cx="134.5" cy="134.5" r="77" stroke="#F1A141"/>
<circle cx="134" cy="134" r="105.5" stroke="#FFBE51" stroke-opacity="0.6"/>
<circle cx="134" cy="134" r="133.5" stroke="#FFBE51" stroke-opacity="0.2"/>
<path d="M85.6638 114.767L136.93 84.975L134.481 83.5631L83.2173 113.351L85.6638 114.767Z" fill="#FE91AB"/>
<path d="M140.919 129.506C138.659 128.2 136.828 125.024 136.836 122.433L136.915 84.9856L119.475 95.1192L85.6636 114.765L85.5703 152.219C85.5661 154.816 87.3978 157.992 89.6577 159.294C90.7961 159.953 91.8264 160.012 92.5727 159.58L143.834 129.788C143.088 130.22 142.053 130.161 140.917 129.508L140.919 129.506Z" fill="#ED5D71"/>
<path d="M87.7116 116.184L94.6355 120.18L95.1401 120.472V160.161C94.4702 160.121 93.7324 159.892 92.9565 159.444C90.0139 157.74 87.6247 153.608 87.6353 150.229L87.7116 116.184Z" fill="#E3E7F0"/>
<path d="M147.574 91.123L147.481 128.577C147.472 130.633 146.745 132.09 145.566 132.77L94.3047 162.563C95.4813 161.876 96.2084 160.426 96.219 158.365L96.3102 120.909L147.574 91.123Z" fill="#ED5D71"/>
<path d="M94.3028 119.991L142.427 92.0241L135.838 88.2166L87.7139 116.186L94.3028 119.991Z" fill="white"/>
<path d="M83.2173 113.351L83.1241 150.807C83.1135 154.954 86.0391 160.025 89.6494 162.109C93.2598 164.193 96.2045 162.512 96.2172 158.367L96.3105 120.911L93.8619 119.499L93.7686 156.953C93.7622 159.548 91.9178 160.6 89.6558 159.296C87.398 157.992 85.5642 154.816 85.5727 152.221L85.6638 114.767L83.2173 113.351Z" fill="#D3374E"/>
<path d="M96.3104 120.911L147.572 91.1209L145.123 89.709L93.8618 119.499L96.3104 120.911Z" fill="#FE91AB"/>
<path d="M147.587 84.9792L135.397 92.0643L130.133 101.257L147.574 91.123L147.587 84.9792Z" fill="#ED5D71"/>
<path d="M135.399 92.0643L130.135 101.255L127.688 99.8426L132.95 90.6503L135.399 92.0643Z" fill="#D3374E"/>
<path d="M135.399 92.0643L147.587 84.9835L145.138 83.5695L132.95 90.6503L135.399 92.0643Z" fill="#FE91AB"/>
<path d="M104.309 125.484L155.571 95.6916L153.125 94.2797L101.861 124.07L104.309 125.484Z" fill="#FFDD94"/>
<path d="M159.563 140.224C157.303 138.916 155.471 135.741 155.48 133.15L155.56 95.7001L138.119 105.834L104.309 125.482L104.218 162.936C104.214 165.531 106.046 168.709 108.306 170.01C109.442 170.67 110.474 170.729 111.219 170.297L162.48 140.504C161.738 140.937 160.699 140.877 159.563 140.222V140.224Z" fill="#FEBB61"/>
<path d="M106.355 126.9L113.279 130.896L113.784 131.189V170.877C113.116 170.837 112.378 170.608 111.6 170.161C108.657 168.456 106.268 164.325 106.279 160.945L106.355 126.9Z" fill="#E3E7F0"/>
<path d="M166.217 101.84L166.126 139.294C166.116 141.35 165.389 142.806 164.212 143.487L112.948 173.279C114.127 172.592 114.854 171.145 114.863 169.082L114.956 131.626L166.217 101.84Z" fill="#FEBB61"/>
<path d="M112.948 130.708L161.072 102.741L154.481 98.9331L106.357 126.9L112.948 130.708Z" fill="white"/>
<path d="M101.861 124.07L101.77 161.524C101.757 165.671 104.685 170.742 108.295 172.826C111.903 174.91 114.85 173.229 114.863 169.082L114.954 131.628L112.507 130.216L112.414 167.67C112.406 170.265 110.561 171.316 108.301 170.012C106.041 168.709 104.21 165.533 104.216 162.938L104.309 125.482L101.861 124.07Z" fill="#EFA143"/>
<path d="M114.954 131.628L166.215 101.84L163.769 100.428L112.507 130.218L114.954 131.628Z" fill="#FFDD94"/>
<path d="M166.23 95.6959L154.04 102.781L148.778 111.973L166.217 101.84L166.23 95.6959Z" fill="#FEBB61"/>
<path d="M154.045 102.781L148.781 111.971L146.332 110.559L151.596 101.367L154.045 102.781Z" fill="#EFA143"/>
<path d="M154.044 102.781L166.23 95.7001L163.784 94.2839L151.594 101.367L154.044 102.781Z" fill="#FFDD94"/>
<path d="M122.955 136.198L174.216 106.408L171.77 104.996L120.508 134.787L122.955 136.198Z" fill="#7BB1FF"/>
<path d="M178.208 150.939C175.948 149.633 174.117 146.457 174.125 143.867L174.203 106.417L156.764 116.55L122.955 136.196L122.861 173.653C122.857 176.247 124.689 179.425 126.949 180.727C128.087 181.384 129.117 181.446 129.864 181.013L181.125 151.221C180.381 151.653 179.345 151.594 178.208 150.939Z" fill="#5793FB"/>
<path d="M125 137.617L131.924 141.613L132.429 141.905V181.594C131.761 181.554 131.021 181.325 130.245 180.877C127.303 179.173 124.913 175.039 124.924 171.662L125 137.617Z" fill="#E3E7F0"/>
<path d="M184.863 112.556L184.77 150.01C184.761 152.067 184.034 153.523 182.855 154.204L131.594 183.996C132.77 183.309 133.5 181.859 133.508 179.798L133.599 142.342L184.863 112.556Z" fill="#5793FB"/>
<path d="M168.299 154.182L180.78 146.932C180.78 146.932 180.773 149.389 180.775 149.544L168.289 156.801L168.299 154.182ZM168.299 149.249L180.78 141.997C180.78 141.997 180.773 144.456 180.775 144.609L168.289 151.865L168.299 149.249ZM168.299 144.314L180.78 137.063C180.78 137.063 180.773 139.518 180.775 139.673L168.289 146.932L168.299 144.314Z" fill="#E3E7F0"/>
<path d="M131.594 141.424L179.718 113.455L173.124 109.65L125 137.617L131.594 141.424Z" fill="white"/>
<path d="M120.506 134.784L120.413 172.241C120.402 176.387 123.328 181.458 126.938 183.54C130.548 185.626 133.495 183.947 133.506 179.801L133.599 142.344L131.15 140.932L131.057 178.386C131.051 180.981 129.206 182.033 126.944 180.729C124.682 179.425 122.853 176.25 122.861 173.655L122.955 136.198L120.506 134.784Z" fill="#3A53D0"/>
<path d="M133.599 142.344L184.861 112.554L182.414 111.142L131.153 140.932L133.599 142.344Z" fill="#7BB1FF"/>
<path d="M184.876 106.412L172.686 113.498L167.424 122.69L184.863 112.556L184.876 106.412Z" fill="#5793FB"/>
<path d="M172.69 113.498L167.426 122.688L164.977 121.276L170.241 112.083L172.69 113.498Z" fill="#3A53D0"/>
<path d="M172.69 113.498L184.876 106.417L182.427 105.001L170.241 112.084L172.69 113.498Z" fill="#7BB1FF"/>
</svg>
