<svg width="173" height="174" viewBox="0 0 173 174" fill="none" xmlns="http://www.w3.org/2000/svg">
<circle cx="86.8229" cy="87.3229" r="49.778" stroke="#F1A141" stroke-width="0.5"/>
<circle cx="86.4996" cy="86.9998" r="68.1754" stroke="#FFBE51" stroke-opacity="0.6" stroke-width="0.5"/>
<circle cx="86.5" cy="87" r="86.25" stroke="#FFBE51" stroke-opacity="0.2" stroke-width="0.5"/>
<g clip-path="url(#clip0_987_983)">
<path d="M78.8429 109.188H78.2463C78.3708 109.333 78.5026 109.47 78.6312 109.611L78.8429 109.188ZM100.75 86.4352L106.502 92.1876L101.812 96.8776L101.787 96.8526L97.5621 100.796V109.188H88.5703L86.5999 111.026C86.548 111.075 86.4858 111.099 86.4276 111.135C86.3986 111.153 86.3809 111.185 86.3498 111.2L82.6134 113.068C85.9826 115.312 90.0239 116.625 94.3746 116.625C106.11 116.625 115.625 107.111 115.625 95.3751C115.625 84.7262 107.781 75.9316 97.5621 74.3896V89.6226L100.75 86.4352ZM109.25 104.938H106.062V108.125H103.937V104.938H100.75V102.813H103.937V99.6251H106.062V102.813H109.25V104.938ZM76.4678 110.399C76.1399 110.009 75.838 109.599 75.536 109.188H72.9648C73.5418 110.08 74.156 110.951 74.8408 111.767C75.3949 112.426 75.9926 113.05 76.6109 113.651L77.6122 111.649C77.219 111.243 76.8298 110.831 76.4678 110.399Z" fill="#FFBB00"/>
<path d="M81.6226 117.461C82.908 118.205 84.2562 118.835 85.6516 119.344C87.047 119.852 88.4845 120.236 89.9473 120.491C91.4 120.746 92.8899 120.875 94.3747 120.875C95.8596 120.875 97.3495 120.746 98.8032 120.491C100.264 120.236 101.709 119.85 103.098 119.343C104.493 118.835 105.841 118.205 107.127 117.461L106.062 115.623C104.884 116.304 103.65 116.881 102.372 117.347C101.093 117.811 99.7765 118.163 98.4369 118.399C95.7703 118.864 92.9781 118.864 90.3136 118.399C88.9751 118.164 87.6511 117.81 86.378 117.346C85.1048 116.882 83.8628 116.303 82.6872 115.623C81.9195 115.177 81.1847 114.672 80.4689 114.141L78.3574 115.197C79.3887 116.03 80.4792 116.799 81.6226 117.461ZM119.492 90.9465C119.235 89.4836 118.851 88.0461 118.343 86.6503C117.834 85.2555 117.204 83.9078 116.461 82.6223C115.717 81.3378 114.863 80.1201 113.909 78.983C112.953 77.8472 111.902 76.796 110.766 75.8412C109.629 74.8865 108.411 74.0325 107.127 73.2887C104.551 71.7978 101.733 70.7721 98.8022 70.2584C97.5 70.0307 96.1698 69.9207 94.8365 69.8968L97.1202 72.1805C97.5602 72.2314 98.0012 72.2755 98.4359 72.3512C99.776 72.5865 101.093 72.9387 102.372 73.4038C103.65 73.8694 104.885 74.4463 106.062 75.1277C107.24 75.8095 108.357 76.5928 109.399 77.4686C110.441 78.3441 111.406 79.3081 112.282 80.3499C113.156 81.3926 113.94 82.5089 114.622 83.6863C115.303 84.8647 115.88 86.0999 116.347 87.3781C116.812 88.6566 117.164 89.9736 117.398 91.3137C117.631 92.6441 117.75 94.0096 117.75 95.375C117.75 96.7404 117.631 98.106 117.398 99.4361C117.164 100.776 116.812 102.093 116.347 103.371C115.881 104.649 115.304 105.885 114.623 107.064L116.461 108.127C117.205 106.842 117.835 105.494 118.343 104.099C118.851 102.704 119.236 101.266 119.492 99.8035C119.746 98.3529 119.875 96.8629 119.875 95.375C119.875 93.8871 119.746 92.3971 119.492 90.9465ZM99.6872 66.6875H101.812V63.5H105V61.375H101.812V58.1875H99.6872V61.375H96.4997V63.5H99.6872V66.6875Z" fill="#FFBB00"/>
<path d="M106.062 99.625H103.938V102.812H100.75V104.938H103.938V108.125H106.062V104.938H109.25V102.812H106.062V99.625ZM64.625 95.375H61.4375V93.25H64.625V91.125H61.4375V89H64.625V86.875H61.4375V84.75H64.625V82.625H61.4375V80.5H64.625V77.3125H61.4375V62.4375H83.75V65.625H86.9375V59.25H58.25V98.5625H64.625V95.375Z" fill="white"/>
<path d="M61.4375 62.4375V77.3125H64.625V65.625H83.75V62.4375H61.4375Z" fill="#E85D3A"/>
<path d="M61.4375 80.5H64.625V82.625H61.4375V80.5ZM61.4375 84.75H64.625V86.875H61.4375V84.75ZM61.4375 89H64.625V91.125H61.4375V89ZM61.4375 93.25H64.625V95.375H61.4375V93.25Z" fill="#43C2E8"/>
<path d="M95.4375 102.779L90.8472 107.062H95.4375V102.779ZM79.9057 107.062L80.6746 105.525C80.6901 105.493 80.7233 105.475 80.7421 105.445C80.7908 105.367 80.8324 105.286 80.8998 105.224L82.344 103.875H69.9375V101.75H84.6216L86.8982 99.625H69.9375V97.5H89.1746L91.4511 95.375H69.9375V93.25H92.25V94.6301L95.4375 91.6543V75.1875H92.25V85.8125H69.9375V70.9375H89.0625V67.75H66.75V107.062H79.9057ZM92.25 89V91.125H69.9375V89H92.25Z" fill="white"/>
<path d="M91.1875 69.2524V73.0624H94.9976L91.1875 69.2524Z" fill="white"/>
<path d="M90.565 65.625H89.0625V57.125H56.125V100.688H64.625V109.188H78.8431L78.6314 109.611L77.6125 111.649L76.6112 113.651L76.4245 114.025C76.3247 114.224 76.2903 114.45 76.326 114.67C76.3618 114.89 76.4659 115.094 76.6237 115.251C76.8232 115.45 77.0933 115.562 77.375 115.562C77.5399 115.562 77.7025 115.524 77.8502 115.45L78.3575 115.197L80.469 114.141L82.6137 113.068L86.3501 111.2C86.3811 111.185 86.3988 111.153 86.4279 111.135C86.4861 111.099 86.5482 111.075 86.6002 111.026L88.5707 109.188H97.5625V100.795L101.788 96.8524L101.813 96.8774L106.503 92.1875L100.75 86.4351L97.5625 89.6226V72.6225L97.1205 72.1805L94.8368 69.8968L90.565 65.625ZM100.75 89.44L103.498 92.1875L101.812 93.8726L99.065 91.125L100.75 89.44ZM95.4375 102.779V107.062H90.8471L95.4375 102.779ZM85.9009 108.772L83.1543 106.027L97.5365 92.6025L100.283 95.348L85.9009 108.772ZM81.9165 107.793L84.081 109.96L79.751 112.124L81.9165 107.793ZM66.75 107.062V67.75H89.0625V75.1875H95.4375V91.6541L92.25 94.6299L91.451 95.375L89.1745 97.5L86.8979 99.625L84.6214 101.75L82.3439 103.875L80.8996 105.224C80.8321 105.286 80.7907 105.367 80.7418 105.445C80.7231 105.475 80.6899 105.493 80.6743 105.525L79.9057 107.062H66.75ZM58.25 59.25H86.9375V65.625H64.625V98.5625H58.25V59.25ZM91.1875 73.0625V69.2524L94.9976 73.0625H91.1875Z" fill="black"/>
<path d="M69.9375 70.9375V85.8125H92.25V75.1875H89.0625V70.9375H69.9375Z" fill="#FFBB00"/>
<path d="M69.9375 89V91.125H92.25V89H83.75H69.9375ZM83.75 93.25H69.9375V95.375H91.451L92.25 94.6301V93.25H83.75ZM69.9375 97.5V99.625H86.8981L89.1746 97.5H69.9375ZM69.9375 101.75V103.875H82.344L84.6216 101.75H69.9375Z" fill="#43C2E8"/>
<path d="M100.283 95.348L97.5364 92.6025L83.1543 106.027L85.9007 108.772L100.283 95.348Z" fill="#E85D3A"/>
<path d="M100.751 89.4395L103.498 92.1869L101.813 93.8721L99.0657 91.1244L100.751 89.4395ZM84.0818 109.96L81.9173 107.793L79.752 112.124L84.0818 109.96Z" fill="white"/>
</g>
<defs>
<clipPath id="clip0_987_983">
<rect width="68.4254" height="68.4254" fill="white" transform="translate(52.2871 52.7874)"/>
</clipPath>
</defs>
</svg>
