<svg width="173" height="174" viewBox="0 0 173 174" fill="none" xmlns="http://www.w3.org/2000/svg">
<circle cx="86.8229" cy="87.3229" r="49.778" stroke="#F1A141" stroke-width="0.5"/>
<circle cx="86.5006" cy="86.9998" r="68.1754" stroke="#FFBE51" stroke-opacity="0.6" stroke-width="0.5"/>
<circle cx="86.5" cy="87" r="86.25" stroke="#FFBE51" stroke-opacity="0.2" stroke-width="0.5"/>
<path d="M111.876 105.01H60.1259C57.7781 105.01 55.875 103.107 55.875 100.759V62.1251C55.875 59.7774 57.7781 57.8743 60.1259 57.8743H111.876C114.223 57.8743 116.126 59.7774 116.126 62.1251V100.759C116.126 103.107 114.223 105.01 111.876 105.01Z" fill="#CCEEFF"/>
<path d="M111.874 57.8743H85.9922V105.01H111.874C114.222 105.01 116.125 103.107 116.125 100.759V62.1251C116.125 59.7774 114.221 57.8743 111.874 57.8743Z" fill="#FF405C"/>
<path d="M55.875 81.4419V100.759C55.875 103.107 57.7781 105.01 60.1259 105.01H111.875C114.223 105.01 116.126 103.107 116.126 100.759V81.4419H55.875Z" fill="white"/>
<path d="M85.9922 81.4419V105.01H111.874C114.222 105.01 116.125 103.107 116.125 100.759V81.4419H85.9922Z" fill="#00215A"/>
<path d="M75.6211 117.989L77.6591 105.01H94.2655L96.0946 117.988L75.6211 117.989Z" fill="#004DB6"/>
<path d="M85.9922 117.989L96.0943 117.988L94.2653 105.01H85.9922V117.989Z" fill="#192B80"/>
<path d="M100.826 119.853H71.1751C70.14 119.853 69.3008 119.014 69.3008 117.979C69.3008 116.944 70.14 116.104 71.1751 116.104H100.826C101.861 116.104 102.7 116.944 102.7 117.979C102.7 119.014 101.861 119.853 100.826 119.853Z" fill="#B3B3B3"/>
<path d="M100.824 116.104H85.9922V119.853H100.824C101.859 119.853 102.699 119.014 102.699 117.979C102.699 116.944 101.859 116.104 100.824 116.104Z" fill="#B3B3B3"/>
<path d="M100.622 96.0712C103.012 96.0712 104.949 94.1338 104.949 91.744C104.949 89.3541 103.012 87.4167 100.622 87.4167C98.2323 87.4167 96.2949 89.3541 96.2949 91.744C96.2949 94.1338 98.2323 96.0712 100.622 96.0712Z" fill="#FFA64D"/>
<path d="M100.621 87.4167V96.0712C103.011 96.0712 104.948 94.1338 104.948 91.744C104.948 89.3541 103.011 87.4167 100.621 87.4167Z" fill="#FF9933"/>
<path d="M103.432 96.7402H97.7543L97.754 96.7411C95.3572 96.76 93.4199 98.708 93.4199 101.109V102.09C93.4199 102.394 93.5405 102.685 93.755 102.899C93.9696 103.114 94.2606 103.234 94.564 103.234H106.657C106.96 103.234 107.251 103.114 107.466 102.899C107.68 102.685 107.801 102.394 107.801 102.09V101.109C107.801 98.6964 105.845 96.7402 103.432 96.7402Z" fill="#7AFFE4"/>
<path d="M103.43 96.7402H100.621V103.234H106.655C106.958 103.234 107.249 103.114 107.464 102.899C107.679 102.685 107.799 102.394 107.799 102.09V101.109C107.799 98.6964 105.843 96.7402 103.43 96.7402Z" fill="#00ECCE"/>
<path d="M71.4561 96.0712C73.846 96.0712 75.7833 94.1338 75.7833 91.744C75.7833 89.3541 73.846 87.4167 71.4561 87.4167C69.0663 87.4167 67.1289 89.3541 67.1289 91.744C67.1289 94.1338 69.0663 96.0712 71.4561 96.0712Z" fill="#FFCC99"/>
<path d="M71.4551 87.4167V96.0712C73.8449 96.0712 75.7823 94.1338 75.7823 91.744C75.7823 89.3541 73.8449 87.4167 71.4551 87.4167Z" fill="#FFB366"/>
<path d="M74.264 96.7402H68.5863L68.586 96.7411C66.1892 96.76 64.252 98.708 64.252 101.109V102.09C64.252 102.394 64.3725 102.685 64.587 102.899C64.8016 103.114 65.0926 103.234 65.396 103.234H77.489C77.7924 103.234 78.0834 103.114 78.298 102.899C78.5125 102.685 78.633 102.394 78.633 102.09V101.109C78.633 98.6964 76.6769 96.7402 74.264 96.7402Z" fill="#FF9100"/>
<path d="M74.264 96.7402H71.4551V103.234H77.489C77.7924 103.234 78.0834 103.114 78.298 102.899C78.5125 102.685 78.6331 102.394 78.6331 102.09V101.109C78.6331 98.6964 76.6769 96.7402 74.264 96.7402Z" fill="#FF641A"/>
<path d="M100.622 74.277C103.012 74.277 104.949 72.3396 104.949 69.9498C104.949 67.5599 103.012 65.6226 100.622 65.6226C98.2323 65.6226 96.2949 67.5599 96.2949 69.9498C96.2949 72.3396 98.2323 74.277 100.622 74.277Z" fill="#FFA64D"/>
<path d="M100.621 65.6226V74.277C103.011 74.277 104.948 72.3396 104.948 69.9498C104.948 67.5599 103.011 65.6226 100.621 65.6226Z" fill="#FF9933"/>
<path d="M103.432 74.9463H97.7543L97.754 74.9472C95.3572 74.966 93.4199 76.914 93.4199 79.3154V80.2962C93.4199 80.5996 93.5405 80.8906 93.755 81.1052C93.9696 81.3197 94.2606 81.4403 94.564 81.4403H106.657C106.96 81.4403 107.251 81.3197 107.466 81.1052C107.68 80.8906 107.801 80.5996 107.801 80.2962V79.3154C107.801 76.9024 105.845 74.9463 103.432 74.9463Z" fill="#FFDA2D"/>
<path d="M103.43 74.9463H100.621V81.4403H106.655C106.958 81.4403 107.249 81.3197 107.464 81.1052C107.679 80.8906 107.799 80.5996 107.799 80.2962V79.3154C107.799 76.9024 105.843 74.9463 103.43 74.9463Z" fill="#FDBF00"/>
<path d="M71.4561 74.277C73.846 74.277 75.7833 72.3396 75.7833 69.9498C75.7833 67.5599 73.846 65.6226 71.4561 65.6226C69.0663 65.6226 67.1289 67.5599 67.1289 69.9498C67.1289 72.3396 69.0663 74.277 71.4561 74.277Z" fill="#FFCC99"/>
<path d="M71.4551 65.6226V74.277C73.8449 74.277 75.7823 72.3396 75.7823 69.9498C75.7823 67.5599 73.8449 65.6226 71.4551 65.6226Z" fill="#FFB366"/>
<path d="M74.264 74.9463H68.5863L68.586 74.9472C66.1892 74.966 64.252 76.914 64.252 79.3154V80.2962C64.252 80.5996 64.3725 80.8906 64.587 81.1052C64.8016 81.3197 65.0926 81.4403 65.396 81.4403H77.489C77.7924 81.4403 78.0834 81.3197 78.298 81.1052C78.5125 80.8906 78.633 80.5996 78.633 80.2962V79.3154C78.633 76.9024 76.6769 74.9463 74.264 74.9463Z" fill="#FF405C"/>
<path d="M74.264 74.9463H71.4551V81.4403H77.489C77.7924 81.4403 78.0834 81.3197 78.298 81.1052C78.5125 80.8906 78.6331 80.5996 78.6331 80.2962V79.3154C78.6331 76.9024 76.6769 74.9463 74.264 74.9463Z" fill="#C1126B"/>
<path d="M112.37 106.884H59.6298C56.5205 106.884 54 104.364 54 101.254V61.6297C54 58.5205 56.5205 56 59.6298 56H112.37C115.479 56 118 58.5205 118 61.6297V101.254C118 104.364 115.479 106.884 112.37 106.884ZM59.6298 59.7486C58.5909 59.7486 57.7486 60.5907 57.7486 61.6297V101.254C57.7486 102.293 58.5909 103.136 59.6298 103.136H112.37C113.409 103.136 114.251 102.293 114.251 101.254V61.6297C114.251 60.5907 113.409 59.7484 112.37 59.7484L59.6298 59.7486Z" fill="#B3B3B3"/>
<path d="M112.841 56H85.9922V59.7486H112.841C113.619 59.7486 114.25 60.3794 114.25 61.1576V101.136C114.25 102.241 113.355 103.136 112.251 103.136H85.9922V106.884H112.841C115.69 106.884 117.999 104.575 117.999 101.726V61.1576C117.999 58.3091 115.69 56 112.841 56Z" fill="#B3B3B3"/>
</svg>
