<svg width="11" height="12" viewBox="0 0 11 12" fill="none" xmlns="http://www.w3.org/2000/svg">
<path d="M2.426 11.616C2.426 11.4947 2.40267 11.434 2.356 11.434L2.034 11.588C2.034 11.5227 1.99667 11.476 1.922 11.448L1.81 11.434C1.73533 11.434 1.642 11.4667 1.53 11.532C1.51133 11.4853 1.488 11.4387 1.46 11.392C1.432 11.3453 1.40867 11.3033 1.39 11.266C1.26867 11.0327 1.14733 10.776 1.026 10.496C0.914 10.2067 0.806667 9.93133 0.704 9.67C0.610667 9.40867 0.536 9.20333 0.48 9.054C0.442667 8.93267 0.400667 8.75067 0.354 8.508C0.307333 8.26533 0.260667 7.95733 0.214 7.584C0.316667 7.64933 0.396 7.682 0.452 7.682C0.517333 7.682 0.578 7.584 0.634 7.388C0.662 7.42533 0.713333 7.444 0.788 7.444C0.844 7.444 0.886 7.42533 0.914 7.388L1.138 7.052L1.39 7.136H1.404C1.42267 7.136 1.44133 7.12667 1.46 7.108C1.47867 7.08933 1.50667 7.07067 1.544 7.052C1.61867 7.00533 1.67467 6.982 1.712 6.982L1.754 6.996C1.98733 7.108 2.13667 7.31333 2.202 7.612C2.37 8.32133 2.538 8.676 2.706 8.676C2.874 8.676 3.07 8.49867 3.294 8.144C3.406 7.96667 3.518 7.76133 3.63 7.528C3.75133 7.29467 3.87267 7.03333 3.994 6.744C4.01267 6.856 4.03133 6.912 4.05 6.912C4.09667 6.912 4.176 6.79533 4.288 6.562C4.40933 6.32867 4.60067 6.00667 4.862 5.596C5.01133 5.344 5.198 5.05933 5.422 4.742C5.65533 4.42467 5.90267 4.098 6.164 3.762C6.42533 3.426 6.67733 3.10867 6.92 2.81C7.172 2.51133 7.396 2.25467 7.592 2.04C7.788 1.82533 7.93267 1.68533 8.026 1.62C8.38067 1.37733 8.66067 1.144 8.866 0.92C8.85667 0.985333 8.84267 1.046 8.824 1.102C8.81467 1.14867 8.81 1.18133 8.81 1.2C8.81 1.23733 8.82867 1.256 8.866 1.256L9.258 1.06V1.116C9.258 1.19067 9.27667 1.228 9.314 1.228C9.342 1.228 9.398 1.186 9.482 1.102C9.566 1.018 9.61267 0.957333 9.622 0.92L9.594 1.116L10.07 0.836L9.958 1.088C10.1073 0.985333 10.2147 0.933999 10.28 0.933999C10.3173 0.933999 10.3453 0.957333 10.364 1.004C10.3827 1.04133 10.392 1.07867 10.392 1.116C10.392 1.172 10.3687 1.23733 10.322 1.312C10.2753 1.38667 10.2147 1.47533 10.14 1.578C10.084 1.65267 9.99067 1.76467 9.86 1.914C9.73867 2.054 9.552 2.264 9.3 2.544C9.048 2.81467 8.712 3.19267 8.292 3.678C8.18 3.79933 8.00733 4.014 7.774 4.322C7.54067 4.62067 7.27467 4.97067 6.976 5.372C6.68667 5.764 6.39733 6.16067 6.108 6.562C5.81867 6.96333 5.562 7.32733 5.338 7.654C5.114 7.97133 4.95533 8.20933 4.862 8.368L3.994 9.838C3.80733 10.1553 3.65333 10.4167 3.532 10.622C3.41067 10.818 3.31733 10.9533 3.252 11.028C3.112 11.196 2.958 11.3453 2.79 11.476L2.664 11.406L2.552 11.476L2.426 11.616Z" fill="#121212"/>
</svg>
