<svg width="24" height="24" viewBox="0 0 24 24" fill="none" xmlns="http://www.w3.org/2000/svg">
<path d="M12 22C17.5228 22 22 17.5228 22 12C22 6.47715 17.5228 2 12 2C6.47715 2 2 6.47715 2 12C2 17.5228 6.47715 22 12 22Z" fill="#A4F5D3"/>
<path d="M10.9999 15.4999C10.8683 15.5007 10.7379 15.4755 10.616 15.4257C10.4942 15.3759 10.3834 15.3026 10.2899 15.2099L7.28994 12.2099C7.1967 12.1167 7.12274 12.006 7.07228 11.8842C7.02182 11.7624 6.99585 11.6318 6.99585 11.4999C6.99585 11.2336 7.10164 10.9782 7.28994 10.7899C7.47825 10.6016 7.73364 10.4958 7.99994 10.4958C8.26624 10.4958 8.52164 10.6016 8.70994 10.7899L10.9999 13.0899L15.2899 8.78994C15.4782 8.60164 15.7336 8.49585 15.9999 8.49585C16.2662 8.49585 16.5216 8.60164 16.7099 8.78994C16.8982 8.97824 17.004 9.23364 17.004 9.49994C17.004 9.76624 16.8982 10.0216 16.7099 10.2099L11.7099 15.2099C11.6165 15.3026 11.5057 15.3759 11.3838 15.4257C11.262 15.4755 11.1315 15.5007 10.9999 15.4999Z" fill="black"/>
</svg>
