<svg width="268" height="268" viewBox="0 0 268 268" fill="none" xmlns="http://www.w3.org/2000/svg">
<path fill-rule="evenodd" clip-rule="evenodd" d="M182.908 172.966H162.105C161.298 172.966 160.677 172.345 160.677 171.538V131.733C160.677 131.175 160.988 130.678 161.422 130.429C161.919 130.181 162.478 130.181 162.913 130.492L183.715 144.339C184.088 144.588 184.336 145.084 184.336 145.519V171.538C184.336 172.345 183.715 172.966 182.908 172.966Z" fill="#1791E6"/>
<path fill-rule="evenodd" clip-rule="evenodd" d="M157.696 128.194H142.42C141.613 128.194 140.992 127.511 140.992 126.704V120.68C140.992 118.941 142.358 117.575 144.097 117.575H156.082C157.758 117.575 159.187 118.941 159.187 120.68V126.704C159.187 127.511 158.504 128.194 157.696 128.194Z" fill="#1583CF"/>
<path fill-rule="evenodd" clip-rule="evenodd" d="M130.187 138.688H119.01C118.203 138.688 117.582 138.005 117.582 137.26V129.933C117.582 129.312 117.954 128.753 118.513 128.566L129.691 124.406C130.125 124.22 130.622 124.282 130.995 124.53C131.429 124.841 131.616 125.275 131.616 125.772V137.198C131.616 138.005 130.995 138.688 130.187 138.688Z" fill="#FF8725"/>
<path fill-rule="evenodd" clip-rule="evenodd" d="M116.65 172.966H111.124C110.316 172.966 109.695 172.345 109.695 171.538V147.941C109.695 146.016 111.31 144.401 113.235 144.401H116.65C117.457 144.401 118.141 145.022 118.141 145.83V171.538C118.141 172.345 117.457 172.966 116.65 172.966ZM138.012 172.966H132.547C131.74 172.966 131.057 172.345 131.057 171.538V145.83C131.057 145.022 131.74 144.401 132.547 144.401H135.9C137.887 144.401 139.502 146.016 139.502 147.941V171.538C139.502 172.345 138.819 172.966 138.012 172.966Z" fill="#333333"/>
<path fill-rule="evenodd" clip-rule="evenodd" d="M106.777 128.194H91.5011C90.6938 128.194 90.0107 127.511 90.0107 126.704V120.68C90.0107 118.941 91.439 117.575 93.1156 117.575H105.1C106.777 117.575 108.205 118.941 108.205 120.68V126.704C108.205 127.511 107.522 128.194 106.777 128.194Z" fill="#CF2828"/>
<path fill-rule="evenodd" clip-rule="evenodd" d="M132.547 172.966H116.65C115.843 172.966 115.222 172.345 115.222 171.538V139.496C115.222 137.446 116.899 135.77 118.948 135.77H130.25C132.299 135.77 133.976 137.446 133.976 139.496V171.538C133.976 172.345 133.355 172.966 132.547 172.966Z" fill="#FFA721"/>
<path fill-rule="evenodd" clip-rule="evenodd" d="M111.124 172.966H87.0919C86.2846 172.966 85.6016 172.345 85.6016 171.538V131.112C85.6016 127.883 88.2717 125.275 91.5008 125.275H106.777C109.944 125.275 112.614 127.883 112.614 131.112V171.538C112.614 172.345 111.931 172.966 111.124 172.966Z" fill="#FF3131"/>
<path fill-rule="evenodd" clip-rule="evenodd" d="M162.105 172.966H138.012C137.267 172.966 136.583 172.345 136.583 171.538V131.112C136.583 127.883 139.192 125.275 142.421 125.275H157.697C160.926 125.275 163.534 127.883 163.534 131.112V171.538C163.534 172.345 162.913 172.966 162.105 172.966Z" fill="#1AA1FF"/>
<path fill-rule="evenodd" clip-rule="evenodd" d="M95.7235 135.708H92.3081C91.5009 135.708 90.8799 135.087 90.8799 134.279C90.8799 133.472 91.5009 132.851 92.3081 132.851H95.7235C96.5307 132.851 97.1517 133.472 97.1517 134.279C97.1517 135.087 96.5307 135.708 95.7235 135.708ZM105.907 152.288H102.492C101.685 152.288 101.064 151.667 101.064 150.859C101.064 150.052 101.685 149.369 102.492 149.369H105.907C106.715 149.369 107.336 150.052 107.336 150.859C107.336 151.667 106.715 152.288 105.907 152.288ZM95.7235 152.288H92.3081C91.5009 152.288 90.8799 151.667 90.8799 150.859C90.8799 150.052 91.5009 149.369 92.3081 149.369H95.7235C96.5307 149.369 97.1517 150.052 97.1517 150.859C97.1517 151.667 96.5307 152.288 95.7235 152.288ZM105.907 144.029H102.492C101.685 144.029 101.064 143.346 101.064 142.538C101.064 141.731 101.685 141.11 102.492 141.11H105.907C106.715 141.11 107.336 141.731 107.336 142.538C107.336 143.346 106.715 144.029 105.907 144.029ZM95.7235 144.029H92.3081C91.5009 144.029 90.8799 143.346 90.8799 142.538C90.8799 141.731 91.5009 141.11 92.3081 141.11H95.7235C96.5307 141.11 97.1517 141.731 97.1517 142.538C97.1517 143.346 96.5307 144.029 95.7235 144.029ZM105.907 135.708H102.492C101.685 135.708 101.064 135.087 101.064 134.279C101.064 133.472 101.685 132.851 102.492 132.851H105.907C106.715 132.851 107.336 133.472 107.336 134.279C107.336 135.087 106.715 135.708 105.907 135.708Z" fill="white"/>
<path fill-rule="evenodd" clip-rule="evenodd" d="M103.983 174.022H94.2334C92.8673 174.022 91.7495 172.904 91.7495 171.538V160.422C91.7495 157.938 93.7366 155.889 96.2205 155.889H101.996C104.479 155.889 106.467 157.938 106.467 160.422V171.538C106.467 172.904 105.349 174.022 103.983 174.022Z" fill="#58535A"/>
<path fill-rule="evenodd" clip-rule="evenodd" d="M103.982 172.966H94.2329C93.4257 172.966 92.8047 172.345 92.8047 171.538V160.422C92.8047 158.497 94.3571 156.945 96.22 156.945H101.995C103.92 156.945 105.473 158.497 105.473 160.422V171.538C105.473 172.345 104.789 172.966 103.982 172.966Z" fill="#D3EAFE"/>
<path fill-rule="evenodd" clip-rule="evenodd" d="M154.964 174.022H145.215C143.849 174.022 142.731 172.904 142.731 171.538V160.422C142.731 157.938 144.718 155.889 147.202 155.889H152.915C155.399 155.889 157.448 157.938 157.448 160.422V171.538C157.448 172.904 156.33 174.022 154.964 174.022Z" fill="#58535A"/>
<path fill-rule="evenodd" clip-rule="evenodd" d="M154.964 172.966H145.215C144.408 172.966 143.725 172.345 143.725 171.538V160.422C143.725 158.497 145.277 156.945 147.202 156.945H152.915C154.84 156.945 156.392 158.497 156.392 160.422V171.538C156.392 172.345 155.771 172.966 154.964 172.966Z" fill="#D3EAFE"/>
<path fill-rule="evenodd" clip-rule="evenodd" d="M170.799 166.818H167.384C166.576 166.818 165.956 166.197 165.956 165.39C165.956 164.583 166.576 163.962 167.384 163.962H170.799C171.606 163.962 172.227 164.583 172.227 165.39C172.227 166.197 171.606 166.818 170.799 166.818ZM170.799 145.581H167.384C166.576 145.581 165.956 144.96 165.956 144.153C165.956 143.346 166.576 142.725 167.384 142.725H170.799C171.606 142.725 172.227 143.346 172.227 144.153C172.227 144.96 171.606 145.581 170.799 145.581ZM179.989 150.922H176.574C175.767 150.922 175.146 150.238 175.146 149.431C175.146 148.686 175.767 148.003 176.574 148.003H179.989C180.797 148.003 181.418 148.686 181.418 149.431C181.418 150.238 180.797 150.922 179.989 150.922ZM170.799 150.922H167.384C166.576 150.922 165.956 150.238 165.956 149.431C165.956 148.686 166.576 148.003 167.384 148.003H170.799C171.606 148.003 172.227 148.686 172.227 149.431C172.227 150.238 171.606 150.922 170.799 150.922ZM179.989 156.2H176.574C175.767 156.2 175.146 155.579 175.146 154.772C175.146 153.964 175.767 153.343 176.574 153.343H179.989C180.797 153.343 181.418 153.964 181.418 154.772C181.418 155.579 180.797 156.2 179.989 156.2ZM170.799 156.2H167.384C166.576 156.2 165.956 155.579 165.956 154.772C165.956 153.964 166.576 153.343 167.384 153.343H170.799C171.606 153.343 172.227 153.964 172.227 154.772C172.227 155.579 171.606 156.2 170.799 156.2ZM179.989 161.54H176.574C175.767 161.54 175.146 160.857 175.146 160.05C175.146 159.305 175.767 158.622 176.574 158.622H179.989C180.797 158.622 181.418 159.305 181.418 160.05C181.418 160.857 180.797 161.54 179.989 161.54ZM170.799 161.54H167.384C166.576 161.54 165.956 160.857 165.956 160.05C165.956 159.305 166.576 158.622 167.384 158.622H170.799C171.606 158.622 172.227 159.305 172.227 160.05C172.227 160.857 171.606 161.54 170.799 161.54ZM179.989 166.818H176.574C175.767 166.818 175.146 166.197 175.146 165.39C175.146 164.583 175.767 163.962 176.574 163.962H179.989C180.797 163.962 181.418 164.583 181.418 165.39C181.418 166.197 180.797 166.818 179.989 166.818ZM128.511 145.954H126.834C126.027 145.954 125.406 145.333 125.406 144.525C125.406 143.718 126.027 143.035 126.834 143.035H128.511C129.318 143.035 130.001 143.718 130.001 144.525C130.001 145.333 129.318 145.954 128.511 145.954ZM122.363 145.954H120.687C119.879 145.954 119.196 145.333 119.196 144.525C119.196 143.718 119.879 143.035 120.687 143.035H122.363C123.171 143.035 123.791 143.718 123.791 144.525C123.791 145.333 123.171 145.954 122.363 145.954ZM122.363 151.605H120.687C119.879 151.605 119.196 150.922 119.196 150.114C119.196 149.307 119.879 148.686 120.687 148.686H122.363C123.171 148.686 123.791 149.307 123.791 150.114C123.791 150.922 123.171 151.605 122.363 151.605ZM122.363 157.193H120.687C119.879 157.193 119.196 156.572 119.196 155.765C119.196 154.958 119.879 154.337 120.687 154.337H122.363C123.171 154.337 123.791 154.958 123.791 155.765C123.791 156.572 123.171 157.193 122.363 157.193ZM128.511 157.193H126.834C126.027 157.193 125.406 156.572 125.406 155.765C125.406 154.958 126.027 154.337 126.834 154.337H128.511C129.318 154.337 130.001 154.958 130.001 155.765C130.001 156.572 129.318 157.193 128.511 157.193ZM128.511 151.605H126.834C126.027 151.605 125.406 150.922 125.406 150.114C125.406 149.307 126.027 148.686 126.834 148.686H128.511C129.318 148.686 130.001 149.307 130.001 150.114C130.001 150.922 129.318 151.605 128.511 151.605Z" fill="white"/>
<path fill-rule="evenodd" clip-rule="evenodd" d="M127.58 174.022H121.618C120.252 174.022 119.134 172.904 119.134 171.538V164.459C119.134 162.223 120.997 160.36 123.295 160.36H125.903C128.2 160.36 130.063 162.223 130.063 164.459V171.538C130.063 172.904 128.946 174.022 127.58 174.022Z" fill="#58535A"/>
<path fill-rule="evenodd" clip-rule="evenodd" d="M127.58 172.966H121.618C120.811 172.966 120.19 172.345 120.19 171.538V164.459C120.19 162.782 121.556 161.416 123.295 161.416H125.903C127.642 161.416 129.008 162.782 129.008 164.459V171.538C129.008 172.345 128.387 172.966 127.58 172.966Z" fill="#D3EAFE"/>
<path fill-rule="evenodd" clip-rule="evenodd" d="M110.813 110.993C104.603 110.993 99.5112 105.901 99.5112 99.6292C99.5112 94.6614 102.864 90.1904 107.708 88.7622C108.205 88.638 108.826 88.8243 109.198 89.2589C109.571 89.6936 109.633 90.3146 109.385 90.8114C108.764 91.9912 108.453 93.2953 108.453 94.6614C108.453 99.3187 112.241 103.107 116.898 103.107C117.644 103.107 118.451 102.982 119.196 102.734C119.755 102.61 120.376 102.796 120.748 103.231C121.121 103.665 121.183 104.286 120.935 104.845C118.948 108.633 115.098 110.993 110.813 110.993Z" fill="#FFA721"/>
<path fill-rule="evenodd" clip-rule="evenodd" d="M169.06 96.4622H119.569C118.762 96.4622 118.079 95.8412 118.079 95.034C118.079 94.2267 118.762 93.6057 119.569 93.6057H169.06C169.868 93.6057 170.489 94.2267 170.489 95.034C170.489 95.8412 169.868 96.4622 169.06 96.4622ZM163.099 112.856H126.772C125.965 112.856 125.344 112.173 125.344 111.366C125.344 110.558 125.965 109.937 126.772 109.937H163.099C163.906 109.937 164.527 110.558 164.527 111.366C164.527 112.173 163.906 112.856 163.099 112.856ZM158.939 104.783H134.224C133.417 104.783 132.734 104.1 132.734 103.293C132.734 102.486 133.417 101.865 134.224 101.865H158.939C159.746 101.865 160.367 102.486 160.367 103.293C160.367 104.1 159.746 104.783 158.939 104.783Z" fill="#DEDEDE"/>
<path fill-rule="evenodd" clip-rule="evenodd" d="M183.405 179.238H86.5952C84.0492 179.238 82 177.189 82 174.643C82 172.159 84.0492 170.047 86.5952 170.047H183.405C185.889 170.047 188 172.159 188 174.643C188 177.189 185.889 179.238 183.405 179.238Z" fill="#7DD63E"/>
<path fill-rule="evenodd" clip-rule="evenodd" d="M146.705 152.288H143.29C142.483 152.288 141.8 151.667 141.8 150.859C141.8 150.052 142.483 149.369 143.29 149.369H146.705C147.451 149.369 148.134 150.052 148.134 150.859C148.134 151.667 147.451 152.288 146.705 152.288ZM156.889 152.288H153.474C152.667 152.288 152.046 151.667 152.046 150.859C152.046 150.052 152.667 149.369 153.474 149.369H156.889C157.697 149.369 158.318 150.052 158.318 150.859C158.318 151.667 157.697 152.288 156.889 152.288ZM156.889 144.029H153.474C152.667 144.029 152.046 143.346 152.046 142.538C152.046 141.731 152.667 141.11 153.474 141.11H156.889C157.697 141.11 158.318 141.731 158.318 142.538C158.318 143.346 157.697 144.029 156.889 144.029ZM156.889 135.708H153.474C152.667 135.708 152.046 135.087 152.046 134.279C152.046 133.472 152.667 132.851 153.474 132.851H156.889C157.697 132.851 158.318 133.472 158.318 134.279C158.318 135.087 157.697 135.708 156.889 135.708ZM146.705 135.708H143.29C142.483 135.708 141.8 135.087 141.8 134.279C141.8 133.472 142.483 132.851 143.29 132.851H146.705C147.451 132.851 148.134 133.472 148.134 134.279C148.134 135.087 147.451 135.708 146.705 135.708ZM146.705 144.029H143.29C142.483 144.029 141.8 143.346 141.8 142.538C141.8 141.731 142.483 141.11 143.29 141.11H146.705C147.451 141.11 148.134 141.731 148.134 142.538C148.134 143.346 147.451 144.029 146.705 144.029Z" fill="white"/>
<circle cx="134.5" cy="134.5" r="77" stroke="#F1A141"/>
<circle cx="134" cy="134" r="105.5" stroke="#FFBE51" stroke-opacity="0.6"/>
<circle cx="134" cy="134" r="133.5" stroke="#FFBE51" stroke-opacity="0.2"/>
</svg>
