<svg width="173" height="174" viewBox="0 0 173 174" fill="none" xmlns="http://www.w3.org/2000/svg">
<circle cx="86.8229" cy="87.3229" r="49.778" stroke="#F1A141" stroke-width="0.5"/>
<circle cx="86.4996" cy="86.9998" r="68.1754" stroke="#FFBE51" stroke-opacity="0.6" stroke-width="0.5"/>
<circle cx="86.5" cy="87" r="86.25" stroke="#FFBE51" stroke-opacity="0.2" stroke-width="0.5"/>
<g clip-path="url(#clip0_987_1030)">
<g clip-path="url(#clip1_987_1030)">
<path d="M59.8789 59.9971H93.9121V91.9031H59.8789V59.9971Z" fill="#FFDE7C"/>
<path d="M59.879 59.9971H65.1967V91.9031H59.8789L59.879 59.9971Z" fill="#FFC824"/>
<path d="M80.0863 68.5053L76.8958 67.4419L73.7051 68.5053V59.9971H80.0863V68.5053Z" fill="#FFBD85"/>
<path d="M64.1328 73.8232H76.8953V78.0772H64.1328V73.8232Z" fill="#F0EFEF"/>
<path d="M92.8471 89.7763C90.72 89.7763 87.5293 91.9033 87.5293 91.9033H82.2119L76.8941 87.6491H84.3389V85.522C84.3389 84.3476 83.3863 83.395 82.2119 83.395H72.6401L68.3858 87.649H53.4961V95.0939H68.3857L81.1482 97.2209L88.593 95.0939L94.9741 91.9033C94.9741 91.9033 94.9741 89.7763 92.8471 89.7763Z" fill="#FFE9D6"/>
<path d="M84.3387 85.522H77.9575L77.93 87.6491H84.3387V85.522ZM94.1716 90.1772L88.593 92.9668L81.1482 95.0939L68.3857 92.9668H53.4961V95.0939H68.3857L81.1482 97.2209L88.593 95.0939L94.9741 91.9032C94.9741 91.9032 94.9737 90.7936 94.1716 90.1772Z" fill="#FFD3AE"/>
<path d="M53.498 97.2208V86.5854H65.197V97.2208H53.498Z" fill="#FF8660"/>
<path d="M53.498 94.0303H65.197V97.2208H53.498V94.0303Z" fill="#FF6838"/>
<path d="M101.356 110.146H96.0384C96.0384 110.146 92.8479 108.019 90.7207 108.019C88.5936 108.019 88.5938 110.146 88.5938 110.146L94.9749 113.337L101.85 115.301L101.549 109.992L101.356 110.146Z" fill="#FFD3AE"/>
<path d="M114.119 107.856L109.865 103.602H100.293C99.1179 103.602 98.1659 104.555 98.1659 105.729V107.856H104.547L94.9754 112.11H89.6576C89.6576 112.11 86.467 109.983 84.3399 109.983C82.2128 109.983 82.2129 112.11 82.2129 112.11L88.5941 115.301L96.0388 117.428L108.801 115.301H119.437V107.856H114.119Z" fill="#FFE9D6"/>
<path d="M98.1661 105.729H104.547V107.856H98.1661V105.729ZM96.0389 115.301L88.5943 113.174L83.0151 110.384C82.2136 111.001 82.2129 112.11 82.2129 112.11L88.5943 115.301L96.0389 117.428L108.801 115.301H119.437V113.174H108.801L96.0389 115.301Z" fill="#FFD3AE"/>
<path d="M64.1319 72.8259C63.8675 72.8259 63.6139 72.931 63.4269 73.1179C63.2399 73.3049 63.1348 73.5585 63.1348 73.823V78.0772C63.1348 78.3416 63.2399 78.5952 63.4269 78.7822C63.6139 78.9692 63.8675 79.0742 64.1319 79.0742H76.8944C77.1588 79.0742 77.4124 78.9691 77.5994 78.7822C77.7863 78.5952 77.8914 78.3416 77.8914 78.0772V73.823C77.8914 73.5585 77.7863 73.305 77.5994 73.118C77.4124 72.931 77.1588 72.826 76.8944 72.8259H64.1319ZM75.8972 77.0799H65.1291V74.8201H75.8972V77.0799Z" fill="black"/>
<path d="M80.9852 98.2047C81.1312 98.2288 81.2808 98.2203 81.4231 98.1797L88.8678 96.0526C88.9271 96.0354 88.9847 96.013 89.04 95.9856L95.4213 92.7951C95.5868 92.7122 95.7261 92.5849 95.8234 92.4274C95.9207 92.2699 95.9722 92.0884 95.9722 91.9032C95.9722 91.1401 95.6641 90.1513 94.9088 89.4924V71.1202C94.9088 70.9892 94.8831 70.8596 94.833 70.7385C94.7829 70.6175 94.7094 70.5076 94.6168 70.415C94.5242 70.3224 94.4143 70.2489 94.2933 70.1988C94.1723 70.1488 94.0426 70.123 93.9116 70.123C93.6471 70.123 93.3935 70.2281 93.2065 70.4151C93.0195 70.6021 92.9144 70.8557 92.9144 71.1202V88.7805C92.8921 88.7805 92.8709 88.7791 92.848 88.7791C90.7841 88.7791 88.1109 90.3536 87.2362 90.9061H82.5624L79.7375 88.6463H84.3397C84.6041 88.6463 84.8578 88.5412 85.0448 88.3542C85.2318 88.1672 85.3368 87.9136 85.3368 87.6491V85.522C85.3368 83.7991 83.935 82.3978 82.2127 82.3978H72.6409C72.3762 82.3978 72.1225 82.5026 71.9356 82.69L67.9737 86.652H66.1932V86.5856C66.1932 86.3211 66.0882 86.0675 65.9012 85.8805C65.7142 85.6935 65.4605 85.5884 65.1961 85.5884H60.8754V60.9942H72.7072V68.5054C72.7072 69.1741 73.3842 69.6629 74.0197 69.4511L76.895 68.493L79.7701 69.4511C80.4056 69.6629 81.0827 69.1741 81.0827 68.5055V60.9942H92.9144V66.3342C92.9144 66.4651 92.9402 66.5947 92.9904 66.7157C93.0405 66.8366 93.1139 66.9465 93.2065 67.0391C93.2991 67.1316 93.4091 67.205 93.53 67.2551C93.651 67.3051 93.7807 67.3309 93.9116 67.3308C94.0425 67.3308 94.1722 67.3051 94.2931 67.255C94.4141 67.205 94.524 67.1316 94.6166 67.039C94.7092 66.9465 94.7826 66.8366 94.8327 66.7157C94.8828 66.5947 94.9086 66.4651 94.9086 66.3342V59.9972C94.9087 59.8662 94.8829 59.7365 94.8328 59.6155C94.7828 59.4945 94.7093 59.3846 94.6167 59.292C94.5241 59.1994 94.4142 59.1259 94.2932 59.0758C94.1722 59.0257 94.0426 59 93.9116 59H59.8784C59.6139 59 59.3603 59.1051 59.1733 59.2921C58.9863 59.4791 58.8812 59.7327 58.8812 59.9972V85.5884H53.497C52.9461 85.5884 52.5 86.0346 52.5 86.5856C52.5 87.1365 52.9463 87.5827 53.4972 87.5827H64.1989V96.2238H53.4972C52.9461 96.2238 52.5 96.67 52.5 97.2209C52.5 97.7718 52.9463 98.2181 53.4972 98.2181H65.1961C65.4605 98.2181 65.7142 98.113 65.9012 97.926C66.0882 97.739 66.1932 97.4854 66.1932 97.2209V96.0909H68.3036L80.9852 98.2047ZM79.0884 60.9942V67.1221L77.2104 66.4959C77.0056 66.428 76.7844 66.428 76.5796 66.4959L74.7016 67.1221V60.9942H79.0884ZM66.1932 88.6461H68.3866C68.6487 88.6461 68.9054 88.5382 69.0917 88.354L73.0538 84.3919H82.2125C82.8357 84.3919 83.3426 84.8988 83.3426 85.5219V86.6518H76.895C76.4841 86.6518 76.1095 86.9144 75.9632 87.2962C75.8122 87.691 75.9378 88.1652 76.2718 88.4278L81.5897 92.6818C81.7666 92.823 81.9862 92.9 82.2125 92.9003H87.5304C87.7269 92.9003 87.9195 92.8421 88.0834 92.7326C88.901 92.1875 91.3507 90.7731 92.848 90.7731C93.4364 90.7731 93.7243 91.0419 93.8613 91.3454L88.2307 94.1604L81.0915 96.2004L68.5507 94.11C68.5407 94.1086 68.5314 94.1081 68.5221 94.107C68.5043 94.1044 68.4865 94.1023 68.4686 94.1007C68.451 94.0992 68.4334 94.0986 68.4162 94.0981C68.4064 94.0977 68.3965 94.0966 68.3866 94.0966H66.1932V88.6461ZM119.436 114.238H108.801C108.79 114.238 108.779 114.239 108.767 114.239C108.75 114.24 108.732 114.241 108.714 114.242C108.695 114.244 108.676 114.246 108.656 114.248C108.646 114.25 108.636 114.251 108.626 114.252L96.1004 116.34L88.9809 114.306L83.4142 111.522C83.5569 111.252 83.8318 111.047 84.3397 111.047C85.8147 111.047 88.253 112.454 89.0675 112.996C89.2422 113.112 89.4475 113.174 89.6574 113.174H94.9752C95.124 113.174 95.2712 113.143 95.4072 113.082L104.96 108.837C105.422 108.639 105.692 108.129 105.587 107.635C105.483 107.143 105.028 106.783 104.524 106.793H99.2293V105.729C99.2293 105.143 99.7066 104.666 100.293 104.666H109.424L113.367 108.609C113.567 108.807 113.837 108.918 114.119 108.92H119.437C119.715 108.914 119.98 108.8 120.175 108.601C120.37 108.402 120.48 108.135 120.48 107.856C120.48 107.578 120.37 107.31 120.175 107.112C119.98 106.913 119.715 106.798 119.437 106.793H114.559L110.617 102.85C110.518 102.752 110.401 102.673 110.272 102.62C110.143 102.566 110.004 102.539 109.865 102.539H100.293C98.5335 102.539 97.1022 103.97 97.1022 105.729V107.856C97.1022 108.138 97.2143 108.409 97.4137 108.608C97.6132 108.808 97.8837 108.92 98.1657 108.92H99.5353L99.1691 109.083H96.352C95.4561 108.518 92.7889 106.956 90.7209 106.956C88.6089 106.956 87.7109 108.509 87.5557 109.755C86.528 109.301 85.3607 108.92 84.3397 108.92C81.9988 108.92 81.1491 110.828 81.1491 112.111C81.1492 112.308 81.2042 112.502 81.308 112.67C81.4118 112.838 81.5603 112.974 81.7369 113.062L88.1182 116.253C88.1768 116.282 88.2385 116.306 88.3017 116.324L95.7465 118.451C95.8415 118.478 95.9399 118.492 96.0387 118.492C96.0968 118.492 96.1553 118.487 96.2135 118.478L108.889 116.365H119.436C119.716 116.36 119.982 116.246 120.178 116.047C120.374 115.848 120.483 115.58 120.483 115.301C120.483 115.022 120.374 114.754 120.178 114.555C119.982 114.356 119.716 114.242 119.436 114.238ZM89.811 109.559C89.9287 109.323 90.1284 109.083 90.7209 109.083C92.0569 109.083 94.1829 110.237 95.1774 110.857L94.7494 111.047H92.4905C92.3895 110.903 92.2544 110.787 92.0974 110.709L89.8078 109.564C89.8088 109.562 89.8098 109.56 89.811 109.559Z" fill="black"/>
</g>
</g>
<defs>
<clipPath id="clip0_987_1030">
<rect width="68.4254" height="68.4254" fill="white" transform="translate(52.2871 52.7874)"/>
</clipPath>
<clipPath id="clip1_987_1030">
<rect width="68" height="59" fill="white" transform="translate(52.5 59)"/>
</clipPath>
</defs>
</svg>
