<svg width="72" height="72" viewBox="0 0 72 72" fill="none" xmlns="http://www.w3.org/2000/svg">
<path d="M55.5306 48.2205L61.776 42.8906C63.0606 41.7943 63.2194 39.8568 62.1307 38.5633C61.0421 37.2698 59.1182 37.1097 57.8336 38.2061L44.8522 49.2845L37.1689 54.7889L44.046 57.0443L55.5306 48.2205Z" fill="#FFE0D1"/>
<path d="M47.1451 50.6819L60.1264 39.6035C60.7736 39.0511 61.5842 38.8148 62.3673 38.8845C62.2955 38.7724 62.2164 38.6652 62.1306 38.5636C61.042 37.27 59.1181 37.11 57.8336 38.2064L44.8522 49.2848L37.1689 54.7891L40.0796 55.7438L47.1451 50.6819Z" fill="#FFD1C2"/>
<path d="M45.0754 49.2225L54.7268 41.0432C55.7896 39.9447 55.8665 38.1979 54.8575 37.0071C53.7828 35.7389 51.8836 35.5821 50.6155 36.6568L42.0156 43.9451L32.6387 52.016L37.5149 55.9635L45.0754 49.2225Z" fill="#FFE0D1"/>
<path d="M35.1061 53.551L44.4831 45.4801L53.083 38.1918C53.668 37.6943 54.4217 37.4403 55.1885 37.4824C55.0938 37.3136 54.9829 37.1544 54.8575 37.0071C53.7828 35.7389 51.8836 35.5821 50.6155 36.6568L42.0156 43.9451L32.6387 52.016L37.5149 55.9635L37.7868 55.7211L35.1061 53.551Z" fill="#FFD1C2"/>
<path d="M43.5593 49.2174L43.8007 49.2442H53.0273C53.7315 49.2442 54.4117 48.9945 54.948 48.54L64.7376 40.2434C65.3035 39.765 65.9936 39.5308 66.6809 39.5308C67.5347 39.5308 68.3828 39.892 68.9784 40.5934C70.0537 41.8621 69.8971 43.7616 68.6284 44.8356L53.1754 57.9332C51.5788 59.2853 49.6205 60.139 47.5432 60.3887L30.2867 62.4646L23.8078 70.2221C23.6301 70.4349 23.393 70.5899 23.1269 70.6672C22.8607 70.7445 22.5775 70.7407 22.3134 70.6562L4.22672 64.8708C3.29884 64.574 2.95393 63.4412 3.55893 62.6777L10.4802 53.9422L11.0291 52.7836C13.7203 47.1091 19.44 43.4921 25.72 43.4921H40.3361C41.3776 43.4921 42.3189 43.914 43.0019 44.5957C43.6835 45.2787 44.1055 46.22 44.1055 47.2615C44.1055 47.9784 43.9051 48.6473 43.5593 49.2174Z" fill="#FFE0D1"/>
<path d="M44.2295 51.2763L44.4796 51.3048H54.0391C54.7687 51.3048 55.4734 51.0394 56.029 50.5566L66.1718 41.7415C66.7582 41.2332 67.4731 40.9842 68.1852 40.9842C68.597 40.9842 69.0088 41.0637 69.3922 41.2277C69.2818 40.9994 69.1427 40.7862 68.9783 40.5932C68.3828 39.8918 67.5346 39.5305 66.6809 39.5305C65.9936 39.5305 65.3035 39.7648 64.7376 40.2432L54.9479 48.5398C54.4116 48.9942 53.7314 49.244 53.0272 49.244H44.7938C44.7855 49.9884 44.5803 50.6829 44.2295 51.2763Z" fill="#FFD1C2"/>
<path d="M43.7999 49.2442L43.5586 49.2174C43.5827 49.1777 43.6043 49.1363 43.6269 49.0957H21.1611C21.1611 51.3326 22.9746 53.1462 25.2116 53.1462H40.2327C40.2682 53.1468 40.3035 53.1472 40.3389 53.1472C42.3781 53.1472 44.3048 52.0631 45.3688 50.3149C45.574 49.976 45.7445 49.6173 45.8777 49.2442H43.7999Z" fill="#FFD1C2"/>
<path d="M44.8522 49.2846L39.4619 53.1463H40.2331C40.2686 53.1468 40.3039 53.1473 40.3393 53.1473C42.3785 53.1473 44.3052 52.0632 45.3692 50.3149C45.7649 49.6604 46.0293 48.935 46.1475 48.1793L44.8522 49.2846Z" fill="#FFD1C2"/>
<path d="M46.1198 48.3373C46.1855 47.9838 46.2217 47.6241 46.2217 47.2614C46.2217 45.691 45.6101 44.2132 44.4965 43.0972C44.2668 42.8686 44.019 42.659 43.7553 42.4706L42.0156 43.945L32.6387 52.016L34.0349 53.1462H40.2329C40.3841 53.1487 40.5354 53.1452 40.6863 53.1358L45.0754 49.2225L46.1198 48.3373Z" fill="#FFD1C2"/>
<path d="M44.1051 47.2615C44.1051 47.9784 43.9047 48.6473 43.5589 49.2174C42.8829 50.3281 41.6495 51.0605 40.2538 51.0294H21.3518L13.7637 48.7305C16.795 45.4438 21.1063 43.4921 25.7196 43.4921H40.3357C41.3772 43.4921 42.3185 43.914 43.0015 44.5956C43.6831 45.2787 44.1051 46.22 44.1051 47.2615Z" fill="#FFE0D1"/>
<path d="M42.6545 1.05847H18.8848C14.665 1.05847 11.2441 4.47929 11.2441 8.69914V23.5002C11.2441 27.7201 14.665 31.1409 18.8848 31.1409H22.1052L24.0083 35.4157C24.3474 36.1773 25.4284 36.1773 25.7675 35.4157L27.6706 31.1409H42.6547C46.8745 31.1409 50.2954 27.7201 50.2954 23.5002V8.69914C50.2954 4.47929 46.8744 1.05847 42.6545 1.05847Z" fill="#FBE88C"/>
<path d="M30.7689 24.8731C35.6501 24.8731 39.6071 20.9161 39.6071 16.0349C39.6071 11.1537 35.6501 7.19666 30.7689 7.19666C25.8877 7.19666 21.9307 11.1537 21.9307 16.0349C21.9307 20.9161 25.8877 24.8731 30.7689 24.8731Z" fill="#F9F7F7"/>
<path d="M12.775 57.0743L13.3239 55.9157C16.0151 50.2411 21.7348 46.6241 28.0148 46.6241H42.6309C43.1482 46.6241 43.6425 46.7294 44.091 46.9177C44.0091 46.0141 43.6075 45.2025 43.0019 44.5956C42.3189 43.914 41.3776 43.4921 40.3361 43.4921H25.72C19.44 43.4921 13.7203 47.109 11.0291 52.7836L10.4802 53.9422L3.55893 62.6777C2.95393 63.4412 3.29884 64.574 4.22672 64.8708L6.11833 65.4757L12.775 57.0743Z" fill="#FFD1C2"/>
<path d="M24.4227 25.8505C21.1504 25.8505 18.4977 23.1978 18.4977 19.9255V3.67658C18.4967 2.7686 18.7053 1.87264 19.1072 1.05847H18.8848C14.665 1.05847 11.2441 4.47929 11.2441 8.69914V23.5002C11.2441 27.7201 14.665 31.1409 18.8848 31.1409H22.1052L24.0083 35.4157C24.3474 36.1773 25.4284 36.1773 25.7675 35.4157L27.6705 31.1409H42.6547C46.0543 31.1409 48.9355 28.9188 49.927 25.8492L24.4227 25.8505Z" fill="#FBE372"/>
<path d="M69.7862 39.9094C69.0835 39.0805 68.1003 38.5747 67.0173 38.4852C65.9348 38.3958 64.8814 38.7335 64.0525 39.436L63.5073 39.898C63.3746 39.2156 63.0683 38.5789 62.6178 38.0494C61.1675 36.3383 58.5955 36.1259 56.8841 37.5761L56.3987 37.9875C56.2582 37.3265 55.9555 36.7108 55.5178 36.1959C54.0675 34.4847 51.4951 34.2723 49.7841 35.7226L41.6488 42.617C41.2217 42.4958 40.7799 42.4342 40.3359 42.4341H25.7192C22.4419 42.4328 19.2316 43.3627 16.4625 45.1156C13.6919 46.8663 11.4758 49.3682 10.0724 52.3298L9.57471 53.3793L1.47779 63.6C1.39148 63.709 1.32748 63.8338 1.28944 63.9675C1.2514 64.1012 1.24006 64.2411 1.25607 64.3792C1.27209 64.5172 1.31514 64.6508 1.38277 64.7722C1.4504 64.8936 1.54129 65.0006 1.65024 65.0869C1.83688 65.2352 2.06831 65.3159 2.30674 65.3158C2.46647 65.316 2.62417 65.28 2.76799 65.2105C2.91181 65.141 3.03801 65.0398 3.13711 64.9146L11.309 54.5992C11.3588 54.5364 11.4013 54.4679 11.4356 54.3956L11.9851 53.2371C14.488 47.9605 19.8791 44.551 25.7192 44.551H40.3361C41.8304 44.551 43.0462 45.7667 43.0462 47.2612C43.0474 47.6224 42.9758 47.9802 42.8357 48.3131C42.6956 48.6461 42.49 48.9474 42.2309 49.1991C41.7204 49.6986 41.0506 49.9715 40.3391 49.9715L30.8198 49.9705C30.539 49.9705 30.2698 50.082 30.0713 50.2805C29.8728 50.479 29.7613 50.7482 29.7613 51.0289C29.7613 51.3096 29.8728 51.5789 30.0713 51.7773C30.2698 51.9758 30.539 52.0874 30.8198 52.0874H40.2425C41.5476 52.1112 42.7782 51.6252 43.7112 50.7125C43.8432 50.5829 43.9678 50.4459 44.0844 50.3023H53.0277C53.9803 50.3023 54.905 49.9632 55.6315 49.3473L65.4211 41.0508C65.6162 40.8846 65.8423 40.7586 66.0864 40.6804C66.3306 40.6021 66.5878 40.5731 66.8432 40.5949C67.0987 40.6153 67.3477 40.6862 67.5757 40.8034C67.8036 40.9207 68.0061 41.082 68.1713 41.2781C68.3376 41.4731 68.4635 41.6993 68.5418 41.9434C68.6201 42.1875 68.6492 42.4447 68.6274 42.7001C68.607 42.9557 68.5361 43.2046 68.4188 43.4326C68.3015 43.6606 68.1402 43.863 67.9442 44.0282L52.4904 57.1252C51.0532 58.3452 49.2886 59.115 47.4166 59.3387L44.6272 59.6742C44.4882 59.6896 44.3536 59.7324 44.2313 59.8001C44.1089 59.8677 44.0011 59.959 43.9142 60.0686C43.8273 60.1782 43.763 60.3039 43.725 60.4384C43.687 60.573 43.676 60.7138 43.6927 60.8526C43.7094 60.9915 43.7534 61.1256 43.8223 61.2474C43.8911 61.3691 43.9834 61.476 44.0938 61.5618C44.2042 61.6477 44.3305 61.7108 44.4655 61.7475C44.6004 61.7842 44.7413 61.7939 44.88 61.7758L47.6694 61.4403C49.953 61.1676 52.1057 60.2284 53.8589 58.74L69.3127 45.6433C70.1418 44.9407 70.6476 43.9574 70.7369 42.8744C70.8264 41.7915 70.4887 40.7385 69.7862 39.9094ZM51.1527 37.3378C51.9732 36.6423 53.2075 36.7439 53.9031 37.5648C54.5442 38.3215 54.5192 39.423 53.8513 40.1465L45.1564 47.5154C45.1608 47.4311 45.1632 47.3465 45.1632 47.2615C45.1632 45.8655 44.5669 44.6069 43.6165 43.7247L51.1527 37.3378ZM47.6396 48.1856L58.2526 39.1913C59.0735 38.4957 60.3074 38.5976 61.0028 39.4182C61.1691 39.6133 61.295 39.8395 61.3733 40.0836C61.4516 40.3278 61.4807 40.585 61.4589 40.8404C61.4385 41.096 61.3676 41.3449 61.2503 41.5729C61.1331 41.8009 60.9718 42.0033 60.7757 42.1685L54.2626 47.7326C53.9174 48.0249 53.4798 48.1854 53.0274 48.1856H47.6396Z" fill="black"/>
<path d="M40.1168 60.2167L30.1603 61.4144C29.8926 61.4466 29.6473 61.5797 29.4745 61.7867L22.3941 70.2631C22.2651 70.4175 22.1828 70.6055 22.1568 70.805C22.1309 71.0046 22.1623 71.2074 22.2475 71.3897C22.3327 71.572 22.4681 71.7262 22.6378 71.8343C22.8076 71.9424 23.0046 71.9999 23.2058 72C23.3609 72.0002 23.5141 71.9663 23.6546 71.9007C23.7951 71.835 23.9194 71.7392 24.0187 71.6201L30.8301 63.4657L40.3697 62.3183C40.5077 62.3017 40.6411 62.2581 40.7623 62.1899C40.8834 62.1218 40.99 62.0304 41.0758 61.9211C41.1616 61.8118 41.2251 61.6866 41.2626 61.5528C41.3001 61.4189 41.3108 61.279 41.2942 61.141C41.2242 60.5607 40.6959 60.1468 40.1168 60.2167ZM18.8848 32.1994H21.4178L23.0413 35.8463C23.3705 36.5861 24.0782 37.0456 24.8879 37.0456C25.6976 37.0456 26.4051 36.5861 26.7343 35.8463L28.3578 32.1994H33.7793C34.06 32.1994 34.3292 32.0879 34.5277 31.8894C34.7262 31.6909 34.8377 31.4217 34.8377 31.141C34.8377 30.8603 34.7262 30.5911 34.5277 30.3926C34.3292 30.1941 34.06 30.0826 33.7793 30.0826H27.6704C27.4657 30.0826 27.2655 30.1419 27.0939 30.2534C26.9223 30.3648 26.7866 30.5236 26.7034 30.7106L24.8877 34.7892L23.072 30.7106C22.9888 30.5236 22.8532 30.3648 22.6816 30.2534C22.5099 30.1419 22.3097 30.0826 22.1051 30.0826H18.8846C15.2551 30.0826 12.3022 27.1297 12.3022 23.5002V8.69923C12.3025 5.0697 15.2554 2.11684 18.8848 2.11684H42.6545C46.284 2.11684 49.2369 5.0697 49.2369 8.69923V23.5002C49.2369 27.1297 46.284 30.0826 42.6545 30.0826H38.29C37.7053 30.0826 37.2316 30.5565 37.2316 31.141C37.2316 31.7255 37.7053 32.1994 38.29 32.1994H42.6545C47.4513 32.1994 51.3537 28.297 51.3537 23.5002V8.69923C51.3536 3.90247 47.4513 0 42.6545 0H18.8848C14.088 0 10.1855 3.90247 10.1855 8.69923V23.5002C10.1857 28.297 14.0882 32.1994 18.8848 32.1994Z" fill="black"/>
<path d="M24.1419 10.0969C24.0281 10.0171 23.8997 9.96038 23.7641 9.93011C23.6284 9.89985 23.4881 9.8966 23.3512 9.92055C23.2143 9.94451 23.0834 9.9952 22.9661 10.0697C22.8488 10.1443 22.7473 10.2412 22.6674 10.3549C21.4936 12.0265 20.873 13.9907 20.873 16.0351C20.873 21.492 25.3126 25.9316 30.7697 25.9316C36.2268 25.9316 40.6664 21.492 40.6664 16.0351C40.668 14.5543 40.3354 13.0922 39.6933 11.7578L43.0818 8.51947C43.5045 8.11558 43.5197 7.44567 43.1157 7.023C42.7117 6.60034 42.0417 6.5851 41.6192 6.98899L38.5466 9.92534C36.733 7.62179 33.9221 6.13831 30.7696 6.13831C29.2868 6.13831 27.859 6.4595 26.5263 7.093C26.2739 7.2142 26.0799 7.43045 25.9866 7.6944C25.8933 7.95835 25.9084 8.24851 26.0285 8.50137C26.1487 8.75422 26.3641 8.94917 26.6277 9.04355C26.8913 9.13793 27.1815 9.12404 27.4348 9.00493C28.4815 8.50747 29.6035 8.25529 30.7694 8.25529C33.3213 8.25529 35.5899 9.49054 37.0094 11.3943L30.406 17.705L29.0754 16.3744C28.8769 16.1759 28.6077 16.0644 28.327 16.0644C28.0463 16.0644 27.7771 16.1759 27.5786 16.3744C27.3802 16.5729 27.2687 16.842 27.2687 17.1227C27.2687 17.4034 27.3802 17.6726 27.5786 17.8711L29.6409 19.9333C29.7391 20.0318 29.8557 20.1098 29.9842 20.1631C30.1126 20.2163 30.2503 20.2436 30.3894 20.2434C30.6524 20.2434 30.9158 20.1459 31.1205 19.9501L38.0591 13.3192C38.3839 14.1878 38.5499 15.1077 38.5492 16.035C38.5492 20.3247 35.0593 23.8146 30.7694 23.8146C26.4796 23.8146 22.9896 20.3247 22.9896 16.035C22.9896 14.4283 23.4772 12.8848 24.3994 11.5714C24.4794 11.4577 24.5361 11.3293 24.5665 11.1937C24.5968 11.058 24.6001 10.9177 24.5762 10.7808C24.5523 10.6439 24.5016 10.513 24.4271 10.3957C24.3526 10.2783 24.2556 10.1768 24.1419 10.0969Z" fill="black"/>
</svg>
