<svg width="16" height="17" viewBox="0 0 16 17" fill="none" xmlns="http://www.w3.org/2000/svg">
<path d="M0.882812 11.7902H2.91434V15.7412H0.882812V11.7902Z" fill="#121212"/>
<path d="M3.96582 10.4941H5.99735V15.7411H3.96582V10.4941Z" fill="white"/>
<path d="M7.00586 8.16138H9.03739V15.7411H7.00586V8.16138Z" fill="#121212"/>
<path d="M10.0459 9.78662H12.0774V15.7411H10.0459V9.78662Z" fill="white"/>
<path d="M5.99754 10.4947V11.3157C5.85305 11.2411 5.69283 11.2022 5.53023 11.2021C4.96945 11.2021 4.51366 11.6565 4.51366 12.2172V15.4323C4.51366 15.5402 4.5309 15.6437 4.5611 15.7414H3.96582V10.4947H5.99754ZM12.0783 9.78723V10.6097C11.9341 10.534 11.7737 10.4945 11.611 10.4947C11.0502 10.4947 10.5944 10.949 10.5944 11.5098V15.4323C10.5944 15.5402 10.6116 15.6437 10.6418 15.7414H10.0465V9.78723H12.0783Z" fill="#E7E6FD"/>
<path d="M13.0859 5.24719H15.1175V15.7412H13.0859V5.24719Z" fill="#121212"/>
<path d="M14.5036 2.23284C14.7261 2.01033 14.7261 1.64958 14.5036 1.42707C14.2811 1.20457 13.9203 1.20457 13.6978 1.42707C13.4753 1.64958 13.4753 2.01033 13.6978 2.23284C13.9203 2.45534 14.2811 2.45534 14.5036 2.23284Z" fill="white"/>
<path d="M14.52 2.21547C14.467 2.27315 14.4025 2.31917 14.3307 2.3506C14.259 2.38204 14.1814 2.39821 14.103 2.39808C13.7882 2.39808 13.5322 2.14358 13.5322 1.8287C13.5322 1.52532 13.7695 1.27946 14.0671 1.26074C13.9722 1.36139 13.9147 1.498 13.9147 1.64752C13.9147 1.9624 14.1692 2.21691 14.4841 2.21691C14.497 2.21691 14.5085 2.21691 14.52 2.21547Z" fill="#E7E6FD"/>
<path d="M11.4616 6.45269C11.6841 6.23018 11.6841 5.86943 11.4616 5.64692C11.2391 5.42442 10.8783 5.42442 10.6558 5.64692C10.4333 5.86943 10.4333 6.23018 10.6558 6.45269C10.8783 6.67519 11.2391 6.67519 11.4616 6.45269Z" fill="white"/>
<path d="M11.4301 6.483C11.3273 6.5714 11.1962 6.61988 11.0606 6.61958C10.7457 6.61958 10.4912 6.36364 10.4912 6.04876C10.4912 5.73387 10.7457 5.47937 11.0606 5.47937C10.9975 5.53281 10.9469 5.59933 10.9121 5.67432C10.8774 5.74931 10.8593 5.83096 10.8593 5.91362C10.8593 6.2285 11.1152 6.483 11.4301 6.483Z" fill="#E7E6FD"/>
<path d="M8.40201 5.00506C8.62451 4.78255 8.62451 4.4218 8.40201 4.19929C8.1795 3.97678 7.81875 3.97678 7.59624 4.19929C7.37374 4.4218 7.37374 4.78255 7.59624 5.00506C7.81875 5.22756 8.1795 5.22756 8.40201 5.00506Z" fill="white"/>
<path d="M5.41373 7.47588C5.63623 7.25337 5.63623 6.89262 5.41373 6.67012C5.19122 6.44761 4.83047 6.44761 4.60796 6.67012C4.38545 6.89262 4.38545 7.25337 4.60796 7.47588C4.83047 7.69839 5.19122 7.69839 5.41373 7.47588Z" fill="white"/>
<path d="M5.43066 7.4608C5.32428 7.57296 5.17616 7.64341 5.01079 7.64341C4.69591 7.64341 4.44141 7.38748 4.44141 7.07259C4.44141 6.77209 4.67289 6.52766 4.96766 6.50464C4.87422 6.60672 4.81667 6.74046 4.81667 6.89141C4.81667 7.2063 5.07118 7.46224 5.38606 7.46224C5.40047 7.46224 5.41628 7.46224 5.43066 7.4608Z" fill="#E7E6FD"/>
<path d="M2.3981 8.67827C2.62061 8.45577 2.62061 8.09501 2.3981 7.87251C2.1756 7.65 1.81484 7.65 1.59234 7.87251C1.36983 8.09501 1.36983 8.45577 1.59234 8.67827C1.81484 8.90078 2.1756 8.90078 2.3981 8.67827Z" fill="white"/>
<path d="M3.55106 6.29561C4.90011 6.29561 5.99373 5.20199 5.99373 3.85294C5.99373 2.5039 4.90011 1.41028 3.55106 1.41028C2.20202 1.41028 1.1084 2.5039 1.1084 3.85294C1.1084 5.20199 2.20202 6.29561 3.55106 6.29561Z" fill="white"/>
<path d="M15.6443 15.5883H15.2709V5.24725C15.2709 5.20671 15.2548 5.16782 15.2262 5.13915C15.1975 5.11048 15.1586 5.09437 15.1181 5.09436H13.0865C13.046 5.09437 13.0071 5.11048 12.9784 5.13915C12.9498 5.16782 12.9337 5.20671 12.9337 5.24725V15.5883H12.2306V9.78663C12.2306 9.74609 12.2145 9.70721 12.1858 9.67853C12.1571 9.64986 12.1183 9.63375 12.0777 9.63374H10.0462C10.0056 9.63375 9.96677 9.64986 9.9381 9.67853C9.90944 9.70721 9.89333 9.74609 9.89333 9.78663V15.5883H9.19033V8.16146C9.19033 8.12092 9.17423 8.08204 9.14556 8.05337C9.1169 8.02469 9.07802 8.00858 9.03747 8.00857H7.00594C6.9654 8.00858 6.92652 8.02469 6.89785 8.05337C6.86919 8.08204 6.85308 8.12092 6.85308 8.16146V15.5883H6.15008V10.4942C6.15008 10.4536 6.13398 10.4148 6.10531 10.3861C6.07664 10.3574 6.03777 10.3413 5.99722 10.3413H3.96569C3.92515 10.3413 3.88627 10.3574 3.85761 10.3861C3.82894 10.4148 3.81283 10.4536 3.81283 10.4942V15.5883H3.06763V11.7902C3.06763 11.7496 3.05153 11.7108 3.02286 11.6821C2.9942 11.6534 2.95532 11.6373 2.91478 11.6373H0.883213C0.842669 11.6373 0.80379 11.6534 0.775124 11.6821C0.746459 11.7108 0.730355 11.7496 0.730355 11.7902V15.5883H0.356959C0.316419 15.5883 0.277539 15.6044 0.248873 15.633C0.220206 15.6617 0.204102 15.7006 0.204102 15.7411C0.204102 15.7817 0.220206 15.8205 0.248873 15.8492C0.277539 15.8779 0.316419 15.894 0.356959 15.894H15.6443C15.6643 15.894 15.6842 15.89 15.7028 15.8824C15.7213 15.8747 15.7382 15.8634 15.7523 15.8492C15.7665 15.835 15.7778 15.8182 15.7855 15.7996C15.7932 15.7811 15.7971 15.7612 15.7971 15.7411C15.7971 15.7211 15.7932 15.7012 15.7855 15.6826C15.7778 15.6641 15.7666 15.6472 15.7524 15.6331C15.7382 15.6189 15.7213 15.6076 15.7028 15.5999C15.6842 15.5922 15.6644 15.5883 15.6443 15.5883ZM1.0361 15.5883V11.9431H2.76189V15.5883H1.0361V15.5883ZM4.11839 15.5883V10.6471H5.84418V15.5883H4.11839ZM7.15871 15.5883V8.31435H8.88449V15.5883H7.15871V15.5883ZM10.199 15.5883V9.93952H11.9248V15.5883H10.199V15.5883ZM13.2394 15.5883V5.40014H14.9651V15.5883H13.2394V15.5883Z" fill="#121212"/>
<path d="M5.48106 6.52862C5.35437 6.41914 5.19141 6.35049 5.01123 6.35049C4.57287 6.35049 4.21912 6.74547 4.30159 7.20149L2.60106 7.88319C2.47203 7.68517 2.24953 7.5534 1.99609 7.5534C1.59765 7.5534 1.27344 7.87757 1.27344 8.27605C1.27344 8.67449 1.59762 8.9987 1.99609 8.9987C2.41967 8.9987 2.77625 8.62689 2.70798 8.16972L4.41817 7.48416C4.54879 7.67204 4.76555 7.79577 5.01123 7.79577C5.52831 7.79577 5.89073 7.25906 5.6663 6.77242L7.55716 5.16855C7.89123 5.43023 8.34619 5.34908 8.58232 5.0258L10.3514 5.90901C10.2622 6.36035 10.6098 6.77186 11.0599 6.77186C11.4583 6.77186 11.7825 6.44768 11.7825 6.04921C11.7825 5.87224 11.7161 5.71205 11.6101 5.5863L13.8164 2.49206C13.9064 2.53109 14.0035 2.55124 14.1017 2.55126C14.5001 2.55126 14.8243 2.22708 14.8243 1.82861C14.8243 1.43014 14.5001 1.10596 14.1017 1.10596C13.7032 1.10596 13.379 1.43014 13.379 1.82861C13.379 2.01537 13.4521 2.18416 13.5688 2.31254L11.3685 5.39842C11.0388 5.24129 10.6728 5.35366 10.4746 5.62875L8.70798 4.74675C8.71759 4.69987 8.72264 4.65138 8.72264 4.60172C8.72264 4.20328 8.39846 3.87907 7.99999 3.87907C7.60152 3.87907 7.27734 4.20325 7.27734 4.60172C7.27734 4.72186 7.30962 4.83352 7.3617 4.93333L5.48106 6.52862ZM1.99609 8.69295C1.76619 8.69295 1.57918 8.50597 1.57918 8.27605C1.57918 8.04615 1.76616 7.85914 1.99609 7.85914C2.22601 7.85914 2.41299 8.04612 2.41299 8.27605C2.41299 8.50594 2.22598 8.69295 1.99609 8.69295ZM14.1017 1.41177C14.3316 1.41177 14.5186 1.59874 14.5186 1.82867C14.5186 2.0586 14.3316 2.24557 14.1017 2.24557C13.8718 2.24557 13.6848 2.0586 13.6848 1.82867C13.6848 1.59874 13.8717 1.41177 14.1017 1.41177ZM11.0599 5.63233C11.2897 5.63233 11.4768 5.81931 11.4768 6.04924C11.4768 6.27913 11.2898 6.46614 11.0599 6.46614C10.83 6.46614 10.643 6.27917 10.643 6.04924C10.643 5.81931 10.83 5.63233 11.0599 5.63233ZM5.01123 7.49002C4.78134 7.49002 4.59433 7.30304 4.59433 7.07311C4.59433 6.84322 4.7813 6.65621 5.01123 6.65621C5.24116 6.65621 5.42814 6.84319 5.42814 7.07311C5.42814 7.30304 5.24113 7.49002 5.01123 7.49002ZM8.00002 4.18488C8.22991 4.18488 8.41692 4.37186 8.41692 4.60179C8.41692 4.83168 8.22994 5.01869 8.00002 5.01869C7.77012 5.01869 7.58311 4.83171 7.58311 4.60179C7.58311 4.37189 7.77012 4.18488 8.00002 4.18488Z" fill="#121212"/>
<path d="M3.55033 6.44863C5.00009 6.44863 6.14611 5.27317 6.14611 3.85285C6.14611 2.42152 4.98163 1.25708 3.55033 1.25708C2.12749 1.25708 0.956055 2.40768 0.956055 3.85285C0.956055 5.28415 2.11984 6.44863 3.55033 6.44863ZM3.55033 1.5628C4.81302 1.5628 5.84036 2.59013 5.84036 3.85282C5.84036 5.1069 4.8283 6.14285 3.55033 6.14285C2.28845 6.14285 1.2618 5.11551 1.2618 3.85282C1.2618 2.57763 2.29535 1.5628 3.55033 1.5628Z" fill="#121212"/>
<path d="M3.55074 4.92943C3.29605 4.92943 3.08892 4.72231 3.08892 4.46762C3.08892 4.42708 3.07281 4.3882 3.04415 4.35953C3.01548 4.33086 2.9766 4.31476 2.93606 4.31476C2.89552 4.31476 2.85664 4.33086 2.82797 4.35953C2.79931 4.3882 2.7832 4.42708 2.7832 4.46762C2.7832 4.83852 3.04766 5.14866 3.39791 5.21974V5.45937C3.39791 5.49991 3.41401 5.53879 3.44268 5.56745C3.47135 5.59612 3.51023 5.61222 3.55077 5.61222C3.59131 5.61222 3.63019 5.59612 3.65885 5.56745C3.68752 5.53879 3.70362 5.49991 3.70362 5.45937V5.21974C4.05385 5.14866 4.31833 4.83852 4.31833 4.46762C4.31833 4.04438 3.974 3.70005 3.55077 3.70005C3.29608 3.70005 3.08895 3.49293 3.08895 3.23824C3.08895 2.98355 3.29608 2.77642 3.55077 2.77642C3.80546 2.77642 4.01258 2.98355 4.01258 3.23824C4.01316 3.2784 4.02952 3.31673 4.05812 3.34493C4.08673 3.37313 4.12529 3.38894 4.16546 3.38894C4.20563 3.38894 4.24418 3.37313 4.27279 3.34493C4.3014 3.31673 4.31776 3.2784 4.31833 3.23824C4.31833 2.86734 4.05388 2.55719 3.70362 2.48611V2.24649C3.70362 2.20595 3.68752 2.16707 3.65885 2.1384C3.63019 2.10973 3.59131 2.09363 3.55077 2.09363C3.51023 2.09363 3.47135 2.10973 3.44268 2.1384C3.41401 2.16707 3.39791 2.20595 3.39791 2.24649V2.48611C3.04769 2.55719 2.7832 2.86734 2.7832 3.23824C2.7832 3.66147 3.12753 4.0058 3.55077 4.0058C3.80546 4.0058 4.01258 4.21293 4.01258 4.46762C4.01258 4.72231 3.80543 4.92943 3.55074 4.92943Z" fill="#121212"/>
</svg>
