<svg width="72" height="72" viewBox="0 0 72 72" fill="none" xmlns="http://www.w3.org/2000/svg">
<path fill-rule="evenodd" clip-rule="evenodd" d="M40.0877 52.3605V69.2635H31.9117V52.3605C33.2081 52.8957 34.5971 53.1705 35.9996 53.1692C37.4021 53.1706 38.7912 52.8957 40.0877 52.3605ZM51.3309 25.9763H57.0389V22.0351C57.0389 21.7627 57.1819 21.5296 57.4252 21.4071C57.6685 21.2846 57.9413 21.3082 58.1605 21.4704L68.9888 29.5003C69.173 29.6367 69.2727 29.8352 69.2727 30.0644C69.273 30.2949 69.1729 30.4919 68.9886 30.6297L58.1608 38.6594C57.9413 38.8211 57.6683 38.845 57.425 38.7227C57.1818 38.5989 57.0383 38.3669 57.0383 38.0941L57.0386 34.1522H51.3306C48.8836 34.1522 46.6096 34.9525 44.7561 36.3011C42.8168 33.5516 39.6177 31.7561 35.9994 31.7561C32.3811 31.7561 29.1819 33.5519 27.2441 36.3011C25.3891 34.9524 23.1152 34.1524 20.6683 34.1524H14.9611V38.0939C14.9611 38.3666 14.8171 38.5989 14.5738 38.7227C14.3308 38.8447 14.0577 38.8211 13.8383 38.6594L3.01174 30.6296C2.82626 30.4916 2.72754 30.295 2.72754 30.0644C2.72754 29.8352 2.82598 29.6369 3.01146 29.5005L13.8385 21.4702C14.0581 21.308 14.3305 21.2847 14.5738 21.4071C14.8175 21.5294 14.9605 21.7629 14.9605 22.0351L14.9611 25.9763H20.6683C24.8507 25.9763 28.7333 27.3166 31.9114 29.5877V14.8054H27.9699C27.6983 14.8054 27.4649 14.6617 27.3425 14.4186C27.2206 14.1752 27.2426 13.9024 27.4058 13.6837L35.4358 2.85584C35.5725 2.67106 35.7702 2.57178 35.9994 2.57178C36.2306 2.57178 36.4269 2.67134 36.5646 2.85598L44.5944 13.6837C44.7564 13.9024 44.7799 14.1756 44.6576 14.4187C44.5342 14.6616 44.3018 14.8057 44.029 14.8057H40.0874V29.5878C43.2654 27.3167 47.1494 25.9766 51.3302 25.9766H51.3306L51.3309 25.9763Z" fill="#F2535F"/>
<path fill-rule="evenodd" clip-rule="evenodd" d="M54.8395 69.4281C54.8395 61.0342 49.348 53.923 41.7614 51.4888C40.0982 52.5516 38.1205 53.1692 35.9998 53.1692C33.8795 53.1689 31.902 52.5519 30.2384 51.4888C22.652 53.923 17.1602 61.0344 17.1602 69.4283H54.8395V69.4281ZM36 51.3199C40.8783 51.3199 44.8564 47.3403 44.8564 42.4634C44.8568 37.585 40.8781 33.6055 35.9998 33.6055C31.1217 33.6052 27.1433 37.5852 27.1433 42.4634C27.1438 47.3402 31.1215 51.32 36 51.3199Z" fill="#052F81"/>
</svg>
