<svg width="16" height="17" viewBox="0 0 16 17" fill="none" xmlns="http://www.w3.org/2000/svg">
<g clip-path="url(#clip0_933_1842)">
<path d="M0.999633 2.16663H14.9996C15.3678 2.16663 15.6663 2.46506 15.6663 2.83338V12.8334C15.6663 13.2015 15.3678 13.5 14.9996 13.5H0.999633C0.631477 13.5 0.333008 13.2016 0.333008 12.8334V2.83338C0.333008 2.46509 0.631445 2.16663 0.999633 2.16663ZM4.33301 14.8334H11.6663V16.1666H4.33301V14.8334Z" fill="white"/>
<path d="M5.66699 13.5H10.3337V14.8334H5.66699V13.5ZM2.33374 3.5H13.667C14.0353 3.5 14.3337 3.79844 14.3337 4.16663V11.5C14.3337 11.8682 14.0353 12.1666 13.667 12.1666H2.33374C1.96546 12.1666 1.66699 11.8682 1.66699 11.5V4.16663C1.66699 3.79847 1.96543 3.5 2.33374 3.5Z" fill="white"/>
<path d="M11.333 0.833374C13.7262 0.833374 15.6663 2.77344 15.6663 5.16662C15.6663 7.55994 13.7262 9.5 11.333 9.5H5.33301L6.99963 7.83337V5.16662C6.99963 2.77344 8.9397 0.833374 11.333 0.833374Z" fill="white"/>
<path d="M15.3334 12.8334C15.3334 13.0174 15.1841 13.1666 15 13.1666H1C0.815938 13.1666 0.666625 13.0175 0.666625 12.8334V2.83337C0.666625 2.64931 0.815906 2.5 1 2.5H6V1.83337H1C0.44775 1.83337 0 2.281 0 2.83337V12.8334C0 13.3856 0.44775 13.8334 1 13.8334H5.33337V14.5H4.33337C4.14931 14.5 4 14.6493 4 14.8334V16.1666C4 16.3507 4.14928 16.5 4.33337 16.5H11.6666C11.8507 16.5 12 16.3507 12 16.1666V14.8334C12 14.6493 11.8507 14.5 11.6666 14.5H10.6666V13.8334H15C15.5522 13.8334 16 13.3856 16 12.8334V9.5H15.3334V12.8334ZM11.3334 15.8334H4.66663V15.1666H11.3334V15.8334ZM10 14.5H6V13.8334H10V14.5Z" fill="#121212"/>
<path d="M5.99963 3.16663H2.33301C1.78063 3.16663 1.33301 3.61438 1.33301 4.16663V11.5C1.33301 12.0523 1.78063 12.5 2.33301 12.5H13.6663C14.2186 12.5 14.6663 12.0523 14.6663 11.5V9.5H13.9996V11.5C13.9996 11.6841 13.8504 11.8334 13.6663 11.8334H2.33301C2.14895 11.8334 1.99963 11.6841 1.99963 11.5V4.16663C1.99963 3.98256 2.14891 3.83338 2.33301 3.83338H5.99963V3.16663Z" fill="#121212"/>
<path d="M5.02542 9.62769C5.05067 9.68858 5.0934 9.74062 5.14821 9.77724C5.20303 9.81385 5.26747 9.83338 5.33339 9.83338H11.3334C13.9107 9.83338 16 7.744 16 5.16663C16 2.58934 13.9106 0.5 11.3334 0.5C8.75598 0.5 6.66664 2.58938 6.66664 5.16663V7.69531L5.09767 9.26428C5.05103 9.31092 5.01927 9.37033 5.00641 9.43502C4.99354 9.49971 5.00015 9.56676 5.02539 9.62769H5.02542ZM7.23573 8.06897C7.29823 8.00647 7.33339 7.92178 7.33339 7.83338V5.16663C7.33339 2.95753 9.12417 1.16663 11.3334 1.16663C13.5425 1.16663 15.3334 2.95753 15.3334 5.16663C15.3334 7.37584 13.5425 9.16663 11.3334 9.16663H6.13795L7.23573 8.06897Z" fill="#121212"/>
<path d="M12.3337 6.83337H11.667V4.5C11.667 4.31594 11.5178 4.16662 11.3337 4.16662H10.3337V4.83337H11.0004V6.83337H10.3337V7.5H12.3337V6.83337ZM11.0004 2.83337H11.667V3.5H11.0004V2.83337ZM3.33374 5.5C3.33374 5.31594 3.4829 5.16662 3.66699 5.16662H4.33374V4.5H3.66699C3.11474 4.5 2.66699 4.94775 2.66699 5.5V6.16662H3.33374V5.5ZM2.66699 6.83337H3.33374V7.5H2.66699V6.83337Z" fill="#121212"/>
</g>
<defs>
<clipPath id="clip0_933_1842">
<rect width="16" height="16" fill="white" transform="translate(0 0.5)"/>
</clipPath>
</defs>
</svg>
