<svg width="16" height="17" viewBox="0 0 16 17" fill="none" xmlns="http://www.w3.org/2000/svg">
<path d="M11.9288 12.8333H4.07147C3.40747 12.8333 2.79147 12.38 2.6848 11.724C2.63729 11.4438 2.68047 11.1557 2.80805 10.9017C2.93563 10.6478 3.14096 10.4412 3.39413 10.312C3.80813 10.1007 4.05147 9.65467 4.09747 9.192L4.33547 6.81667C4.41518 6.0227 4.75063 5.2761 5.29131 4.68925C5.832 4.10239 6.54867 3.70703 7.33347 3.56267V2.16667C7.33347 1.98986 7.4037 1.82029 7.52873 1.69526C7.65375 1.57024 7.82332 1.5 8.00013 1.5C8.17694 1.5 8.34651 1.57024 8.47154 1.69526C8.59656 1.82029 8.6668 1.98986 8.6668 2.16667V3.57467C10.2948 3.878 11.5135 5.29733 11.6801 6.968L11.9028 9.192C11.9495 9.65467 12.1921 10.1 12.6061 10.312C12.8593 10.4412 13.0646 10.6478 13.1922 10.9017C13.3198 11.1557 13.363 11.4438 13.3155 11.724C13.2088 12.3793 12.5935 12.8333 11.9288 12.8333Z" fill="#121212"/>
<path d="M14.236 3.06865L12.9027 4.40198C12.8718 4.43308 12.8351 4.45777 12.7946 4.47461C12.7542 4.49146 12.7108 4.50013 12.667 4.50013C12.6232 4.50013 12.5798 4.49146 12.5394 4.47461C12.4989 4.45777 12.4622 4.43308 12.4313 4.40198C12.369 4.3395 12.3341 4.25487 12.3341 4.16665C12.3341 4.07842 12.369 3.99379 12.4313 3.93131L13.7647 2.59798C13.7954 2.56614 13.8322 2.54075 13.8729 2.52328C13.9135 2.50581 13.9573 2.49661 14.0015 2.49623C14.0458 2.49584 14.0897 2.50428 14.1307 2.52104C14.1716 2.5378 14.2088 2.56255 14.2401 2.59385C14.2714 2.62514 14.2962 2.66236 14.3129 2.70333C14.3297 2.74429 14.3381 2.78819 14.3378 2.83245C14.3374 2.87671 14.3282 2.92045 14.3107 2.96111C14.2932 3.00178 14.2678 3.03856 14.236 3.06931V3.06865ZM3.56933 4.40198C3.63162 4.3395 3.6666 4.25487 3.6666 4.16665C3.6666 4.07842 3.63162 3.99379 3.56933 3.93131L2.236 2.59798C2.20525 2.56614 2.16847 2.54075 2.1278 2.52328C2.08713 2.50581 2.04339 2.49661 1.99913 2.49623C1.95487 2.49584 1.91098 2.50428 1.87002 2.52104C1.82905 2.5378 1.79183 2.56255 1.76054 2.59385C1.72924 2.62514 1.70449 2.66236 1.68773 2.70333C1.67097 2.74429 1.66253 2.78819 1.66292 2.83245C1.6633 2.87671 1.6725 2.92045 1.68997 2.96111C1.70744 3.00178 1.73283 3.03856 1.76467 3.06931L3.098 4.40265C3.12886 4.43375 3.16557 4.45843 3.20602 4.47528C3.24647 4.49212 3.28985 4.5008 3.33367 4.5008C3.37748 4.5008 3.42086 4.49212 3.46131 4.47528C3.50176 4.45843 3.53847 4.43308 3.56933 4.40198ZM9.33333 14.1666H6.66667C6.66667 14.5203 6.80714 14.8594 7.05719 15.1095C7.30724 15.3595 7.64638 15.5 8 15.5C8.35362 15.5 8.69276 15.3595 8.94281 15.1095C9.19286 14.8594 9.33333 14.5203 9.33333 14.1666ZM14.6667 6.49998H13.3333C13.2449 6.49998 13.1601 6.5351 13.0976 6.59761C13.0351 6.66012 13 6.74491 13 6.83331C13 6.92172 13.0351 7.0065 13.0976 7.06902C13.1601 7.13153 13.2449 7.16665 13.3333 7.16665H14.6667C14.7551 7.16665 14.8399 7.13153 14.9024 7.06902C14.9649 7.0065 15 6.92172 15 6.83331C15 6.74491 14.9649 6.66012 14.9024 6.59761C14.8399 6.5351 14.7551 6.49998 14.6667 6.49998ZM2.66667 7.16665C2.75507 7.16665 2.83986 7.13153 2.90237 7.06902C2.96488 7.0065 3 6.92172 3 6.83331C3 6.74491 2.96488 6.66012 2.90237 6.59761C2.83986 6.5351 2.75507 6.49998 2.66667 6.49998H1.33333C1.24493 6.49998 1.16014 6.5351 1.09763 6.59761C1.03512 6.66012 1 6.74491 1 6.83331C1 6.92172 1.03512 7.0065 1.09763 7.06902C1.16014 7.13153 1.24493 7.16665 1.33333 7.16665H2.66667Z" fill="#121212"/>
</svg>
