<svg width="72" height="72" viewBox="0 0 72 72" fill="none" xmlns="http://www.w3.org/2000/svg">
<g clip-path="url(#clip0_601_1394)">
<path fill-rule="evenodd" clip-rule="evenodd" d="M35.5848 4.59326C46.5263 4.59326 55.3962 13.4632 55.3962 24.4047C55.3962 25.6776 55.2745 26.918 55.0435 28.1262C54.2382 27.6375 53.314 27.3795 52.372 27.3803H19.6286C18.3355 27.3803 17.1476 27.8587 16.2355 28.6451C15.9302 27.2523 15.7766 25.8305 15.7773 24.4047C15.7775 13.4632 24.6474 4.59326 35.5848 4.59326Z" fill="#353965"/>
<path fill-rule="evenodd" clip-rule="evenodd" d="M19.6283 27.3802H52.3717C55.2337 27.3802 57.581 29.7233 57.581 32.5896C57.581 35.4556 55.2338 37.7989 52.3717 37.7989H19.6283C16.7622 37.7989 14.4189 35.4558 14.4189 32.5896C14.4189 29.7233 16.7622 27.3802 19.6283 27.3802Z" fill="#F2A183"/>
<path fill-rule="evenodd" clip-rule="evenodd" d="M50.1826 25.7222V34.6408C50.1826 42.4405 43.8017 48.8253 35.998 48.8253C28.1983 48.8253 21.8135 42.4404 21.8135 34.6408V25.5762C23.0485 25.8709 24.3139 26.0192 25.5836 26.0181C31.2064 26.0181 37.6116 22.9858 41.5073 19.2764C41.9573 22.564 45.0301 25.9613 48.4801 25.9613C49.0559 25.9612 49.629 25.8808 50.1826 25.7222Z" fill="#F7C5B8"/>
<path fill-rule="evenodd" clip-rule="evenodd" d="M0.542969 24.6074H11.0101V35.9057H0.542969V24.6074ZM60.9908 24.6074H71.4579V35.9057H60.9908V24.6074ZM44.1954 60.4764C44.1954 63.3587 41.84 65.7141 38.9617 65.7141H33.039C30.1607 65.7141 27.8054 63.3587 27.8054 60.4764C27.8054 57.598 30.1607 55.2427 33.039 55.2427H38.9617C41.84 55.2427 44.1954 57.598 44.1954 60.4764Z" fill="#6BA7FF"/>
<path fill-rule="evenodd" clip-rule="evenodd" d="M21.132 71.2516H3.04748C1.96101 71.2516 1.07324 70.3638 1.07324 69.2773V51.1928C1.07324 50.1063 1.96101 49.2186 3.04748 49.2186H10.3527L17.147 42.4243C17.3294 42.2419 17.5929 42.1891 17.828 42.2865C18.0672 42.3878 18.2171 42.6067 18.2171 42.8661V49.2186H21.1319C22.2183 49.2186 23.1061 50.1063 23.1061 51.1928V69.2773C23.1062 70.3638 22.2185 71.2516 21.132 71.2516Z" fill="#ECECEC"/>
<path fill-rule="evenodd" clip-rule="evenodd" d="M35.5845 4.59326C46.5259 4.59326 55.3958 13.4632 55.3958 24.4047C55.3958 25.6776 55.2742 26.918 55.0432 28.1262C54.2378 27.6375 53.3137 27.3795 52.3717 27.3803H50.0975C50.2458 26.3953 50.3204 25.4007 50.3205 24.4047C50.3205 14.3225 42.7925 5.99993 33.0469 4.7554C33.8885 4.64805 34.736 4.5939 35.5845 4.59326Z" fill="#21244A"/>
<path fill-rule="evenodd" clip-rule="evenodd" d="M68.2186 24.6074H71.4577V35.9057H68.2186V24.6074ZM8.37891 24.6074H11.0099V35.9057H8.37891V24.6074ZM44.1951 60.4764C44.1951 63.3587 41.8398 65.7141 38.9615 65.7141H36.6832C39.5615 65.7141 41.9168 63.3587 41.9168 60.4764C41.9168 57.598 39.5615 55.2427 36.6832 55.2427H38.9615C41.8398 55.2427 44.1951 57.598 44.1951 60.4764Z" fill="#477DCF"/>
<path fill-rule="evenodd" clip-rule="evenodd" d="M21.1325 71.2516H18.8379C19.9244 71.2516 20.8121 70.3638 20.8121 69.2774V51.1929C20.8121 50.1064 19.9244 49.2186 18.8379 49.2186H21.1325C22.2189 49.2186 23.1067 50.1064 23.1067 51.1929V69.2774C23.1067 70.3638 22.2189 71.2516 21.1325 71.2516Z" fill="#C3C6C7"/>
<path d="M50.3331 39.0994H52.0672C55.428 39.0994 58.1621 36.3651 58.1621 33.0044C58.1621 31.0334 57.2209 29.2788 55.7653 28.164C55.9327 27.1081 56.0171 26.0408 56.0178 24.9718C56.0178 13.7093 46.8549 4.54641 35.5923 4.54641C24.3319 4.54641 15.1708 13.7093 15.1708 24.9718C15.1708 26.2572 15.2919 27.5408 15.531 28.7954C14.4836 29.8904 13.838 31.373 13.838 33.0044C13.838 36.3652 16.5722 39.0994 19.933 39.0994H21.6629C23.4423 45.3391 29.1951 49.9209 35.998 49.9209C42.801 49.9208 48.5538 45.3391 50.3331 39.0994ZM52.0672 37.1339H50.7505C50.8509 36.4328 50.9013 35.7255 50.9015 35.0173V28.8745H52.0673C52.7857 28.874 53.4915 29.062 54.1144 29.4199C54.1594 29.4524 54.2073 29.4812 54.2581 29.5059C55.4215 30.2372 56.1971 31.5315 56.1971 33.0041C56.1968 35.2813 54.3442 37.1339 52.0672 37.1339ZM35.5923 6.51164C45.7711 6.51164 54.0524 14.7926 54.0524 24.9716C54.0524 25.7138 54.0067 26.4585 53.917 27.197C53.3189 27.006 52.6949 26.9089 52.067 26.9092H50.9013V26.2647C50.9013 26.1126 50.8659 25.9625 50.7981 25.8264C50.7303 25.6903 50.6318 25.5717 50.5103 25.4801C50.3889 25.3885 50.2479 25.3264 50.0983 25.2986C49.9488 25.2708 49.7948 25.278 49.6486 25.3198C49.193 25.4503 48.7214 25.5166 48.2475 25.5168C45.3356 25.5168 42.7471 22.5017 42.3781 19.8059C42.3536 19.6266 42.2801 19.4576 42.1656 19.3175C42.0511 19.1774 41.9002 19.0716 41.7294 19.0118C41.5587 18.9518 41.3747 18.9402 41.1978 18.9783C41.0208 19.0163 40.8579 19.1025 40.7269 19.2274C36.803 22.9634 30.6555 25.5725 25.7771 25.5725C24.6024 25.5725 23.4345 25.4357 22.3056 25.1658C22.1612 25.1313 22.0108 25.1299 21.8658 25.1618C21.7208 25.1937 21.5849 25.2581 21.4683 25.3501C21.3517 25.442 21.2575 25.5592 21.1928 25.6929C21.128 25.8265 21.0944 25.973 21.0944 26.1215V26.9092H19.9327C19.025 26.9082 18.1287 27.1112 17.31 27.5033C17.1942 26.6644 17.1359 25.8185 17.1358 24.9716C17.1361 14.7928 25.4155 6.51164 35.5923 6.51164ZM19.933 37.1339C17.6558 37.1339 15.8032 35.2813 15.8032 33.0043C15.8032 31.7775 16.3415 30.6744 17.1937 29.9174C17.2292 29.8907 17.2628 29.8616 17.2943 29.8304C18.0345 29.2121 18.9685 28.8738 19.933 28.8747H21.0947V35.0175C21.0947 35.7359 21.1468 36.4424 21.2457 37.134H19.933V37.1339ZM23.06 35.0173V27.3196C23.9585 27.465 24.8672 27.538 25.7773 27.5379C30.7109 27.5379 36.5759 25.2495 40.8521 21.7377C41.305 22.969 42.0564 24.1495 43.0261 25.1227C44.5421 26.6442 46.3965 27.4822 48.2478 27.4822C48.4777 27.4822 48.7074 27.4708 48.936 27.4483V35.0173C48.936 42.1514 43.132 47.9552 35.9981 47.9552C28.8641 47.9554 23.06 42.1514 23.06 35.0173ZM70.7977 24.1879H65.9463C62.9064 10.1644 50.4414 0.0703125 35.9981 0.0703125C21.557 0.0703125 9.09373 10.1644 6.05384 24.1879H1.20241C1.07337 24.1879 0.945581 24.2133 0.826356 24.2627C0.707131 24.3121 0.5988 24.3845 0.507549 24.4757C0.323259 24.66 0.219727 24.91 0.219727 25.1706V36.2585C0.219727 36.5191 0.323259 36.769 0.507549 36.9533C0.5988 37.0446 0.707131 37.117 0.826356 37.1664C0.945581 37.2157 1.07337 37.2412 1.20241 37.2412H11.4748C11.7354 37.2412 11.9854 37.1376 12.1697 36.9533C12.3539 36.769 12.4575 36.5191 12.4575 36.2585V25.1706C12.4575 24.91 12.3539 24.66 12.1697 24.4757C11.9854 24.2915 11.7354 24.1879 11.4748 24.1879H8.06773C11.0668 11.2821 22.6265 2.03583 35.9981 2.03583C49.372 2.03583 60.9333 11.2822 63.9324 24.1879H60.5214C60.2608 24.1879 60.0108 24.2915 59.8265 24.4757C59.6423 24.66 59.5387 24.91 59.5387 25.1706V36.2585C59.5387 36.5191 59.6423 36.769 59.8265 36.9533C60.0108 37.1376 60.2608 37.2412 60.5214 37.2412H63.9316C61.6416 47.0464 54.2026 55.0681 44.5796 58.0846C43.671 55.8408 41.4694 54.2531 38.9023 54.2531H33.0938C29.7198 54.2531 26.9749 56.9981 26.9749 60.3721C26.9749 63.7483 29.7198 66.495 33.0938 66.495H38.9023C42.2784 66.495 45.0251 63.7483 45.0251 60.3721C45.0251 60.2495 45.0205 60.1282 45.0133 60.0072C50.171 58.4231 54.8246 55.495 58.5144 51.5008C62.2337 47.4751 64.7919 42.5596 65.9463 37.2412H70.7977C71.0583 37.2412 71.3083 37.1376 71.4926 36.9533C71.6769 36.769 71.7804 36.5191 71.7804 36.2585V25.1706C71.7804 24.91 71.6769 24.66 71.4926 24.4757C71.3083 24.2915 71.0583 24.1879 70.7977 24.1879ZM10.4921 35.2758H2.1851V26.1534H10.4921V35.2758ZM38.9024 64.5296H33.0939C30.8037 64.5296 28.9404 62.6646 28.9404 60.3721C28.9404 58.0818 30.8037 56.2186 33.0939 56.2186H38.9024C40.8809 56.2186 42.5398 57.6069 42.9575 59.4592C42.9632 59.4946 42.9709 59.5297 42.9804 59.5643C43.0322 59.8257 43.06 60.0957 43.06 60.372C43.0599 62.6646 41.1948 64.5296 38.9024 64.5296ZM69.815 35.2758H61.5041V26.1534H65.1418L65.1433 26.1536L65.1463 26.1534H69.8152V35.2758H69.815ZM21.409 48.3411H19.5271V43.0896C19.5271 42.4358 19.1526 41.8711 18.537 41.6105C18.2456 41.4916 17.9256 41.4614 17.6171 41.5237C17.3087 41.5861 17.0255 41.7382 16.8032 41.961L10.4231 48.3411H3.6611C2.05095 48.3411 0.740883 49.6512 0.740883 51.2613V69.0093C0.740883 70.6195 2.0508 71.9296 3.6611 71.9296H21.409C23.0191 71.9296 24.3292 70.6195 24.3292 69.0093V51.2613C24.3292 49.6512 23.0191 48.3411 21.409 48.3411ZM22.3639 69.0095C22.3636 69.2626 22.263 69.5053 22.084 69.6843C21.9049 69.8633 21.6623 69.964 21.4091 69.9643H3.6611C3.40795 69.964 3.16526 69.8633 2.98625 69.6843C2.80725 69.5053 2.70656 69.2626 2.70626 69.0095V51.2613C2.70656 51.0082 2.80725 50.7655 2.98625 50.5865C3.16526 50.4075 3.40795 50.3068 3.6611 50.3065H10.8303C11.0909 50.3064 11.3408 50.2029 11.5251 50.0186L17.5619 43.9819V49.3238C17.5619 49.5844 17.6654 49.8344 17.8497 50.0187C18.034 50.203 18.2839 50.3065 18.5446 50.3065H21.4091C21.6623 50.3068 21.9049 50.4075 22.084 50.5865C22.263 50.7655 22.3636 51.0082 22.3639 51.2613V69.0095ZM19.7579 56.8194C19.7579 57.08 19.6544 57.33 19.4701 57.5143C19.2858 57.6986 19.0358 57.8021 18.7752 57.8021H6.67666C6.41604 57.8021 6.16609 57.6986 5.9818 57.5143C5.79751 57.33 5.69398 57.08 5.69398 56.8194C5.69398 56.5588 5.79751 56.3088 5.9818 56.1245C6.16609 55.9402 6.41604 55.8367 6.67666 55.8367H18.7752C18.9042 55.8367 19.032 55.8621 19.1513 55.9115C19.2705 55.9608 19.3788 56.0332 19.4701 56.1245C19.5614 56.2157 19.6337 56.3241 19.6831 56.4433C19.7325 56.5626 19.7579 56.6903 19.7579 56.8194ZM19.7579 62.246C19.7579 62.5066 19.6544 62.7565 19.4701 62.9408C19.2858 63.1251 19.0358 63.2287 18.7752 63.2287H6.67666C6.41604 63.2287 6.16609 63.1251 5.9818 62.9408C5.79751 62.7565 5.69398 62.5066 5.69398 62.246C5.69398 61.9854 5.79751 61.7354 5.9818 61.5511C6.16609 61.3668 6.41604 61.2633 6.67666 61.2633H18.7752C18.9042 61.2633 19.032 61.2887 19.1513 61.3381C19.2705 61.3874 19.3788 61.4598 19.4701 61.5511C19.5614 61.6423 19.6337 61.7507 19.6831 61.8699C19.7325 61.9891 19.7579 62.1169 19.7579 62.246Z" fill="black"/>
</g>
<defs>
<clipPath id="clip0_601_1394">
<rect width="72" height="72" fill="white"/>
</clipPath>
</defs>
</svg>
