<svg width="72" height="72" viewBox="0 0 72 72" fill="none" xmlns="http://www.w3.org/2000/svg">
<path fill-rule="evenodd" clip-rule="evenodd" d="M24.3438 22.4848C27.6011 22.2266 33.8545 19.4705 35.9997 17.9385C38.1449 19.4705 44.3982 22.2266 47.6557 22.4848V32.669C47.6557 39.2407 40.9855 44.7621 35.9997 46.0994C31.0153 44.7621 24.3438 39.2407 24.3438 32.669V22.4848Z" fill="#66D4F1"/>
<path d="M35.8619 37.1718C38.7078 37.1718 41.0149 34.8648 41.0149 32.0189C41.0149 29.173 38.7078 26.866 35.8619 26.866C33.016 26.866 30.709 29.173 30.709 32.0189C30.709 34.8648 33.016 37.1718 35.8619 37.1718Z" fill="#C6EA94"/>
<path fill-rule="evenodd" clip-rule="evenodd" d="M62.9396 26.8589C63.2412 28.2449 63.9932 29.5662 65.2254 30.8182C63.452 31.0638 62.1582 31.8554 61.2661 33.1041C61.373 31.481 60.5601 30.1973 58.9803 29.1448C60.6383 28.7926 61.9566 28.0311 62.9396 26.8589ZM12.616 16.205C13.5702 17.2545 14.882 18.0228 16.5753 18.4909C15.1621 19.5904 14.4375 20.9227 14.2894 22.4502C13.5704 20.9911 12.2245 20.2858 10.3301 20.1643C11.5898 19.0302 12.3507 17.7116 12.616 16.205ZM51.9163 7.53308C52.5664 8.79392 53.6347 9.87548 55.149 10.7659C53.4994 11.4622 52.4547 12.5616 51.9163 13.9985C51.5993 12.4032 50.4819 11.3736 48.6835 10.7659C50.1939 9.99646 51.2701 8.91985 51.9163 7.53308ZM28.4933 2.1167C29.1434 3.37741 30.2117 4.45896 31.7259 5.34936C30.0764 6.04564 29.0316 7.14512 28.4933 8.58216C28.1763 6.98672 27.0589 5.95712 25.2605 5.34936C26.7708 4.57995 27.8471 3.50333 28.4933 2.1167Z" fill="#FDCD56"/>
<path fill-rule="evenodd" clip-rule="evenodd" d="M27.3067 59.0821C27.8665 61.4449 28.4656 63.7945 29.0582 66.1441H19.6303L19.1654 64.1943C18.969 63.3815 18.5303 62.7426 17.8396 62.2708L13.0929 59.0166C11.5904 57.9844 10.9324 55.7166 10.3823 54.0585L6.88626 43.4967C5.96635 40.7178 9.77684 36.7263 12.412 42.9133L15.4368 50.008C16.1734 49.6804 17.0638 49.7394 17.7643 50.2407L21.9839 53.2621C26.0203 54.3632 26.6062 56.1328 27.3067 59.0821Z" fill="#EFC7A4"/>
<path fill-rule="evenodd" clip-rule="evenodd" d="M14.4865 50.7848L23.9144 57.5387C23.1615 58.5906 21.6851 58.8364 20.6343 58.0826L15.0299 54.0683C13.9759 53.3147 13.7336 51.8367 14.4865 50.7848Z" fill="#D5A889"/>
<path d="M16.9482 65.8623L16.9515 68.7462C16.9515 69.372 17.4623 69.8799 18.0874 69.8799C21.9928 69.8832 25.9015 69.8832 29.8069 69.8832C30.1211 69.8832 30.3895 69.7718 30.6121 69.549C30.8315 69.3261 30.9428 69.0575 30.9428 68.7429L30.9395 65.8591C30.9395 65.2331 30.4288 64.7252 29.8036 64.7252C25.8983 64.7219 21.9895 64.7219 18.0841 64.7219C17.7699 64.7219 17.5015 64.8333 17.2789 65.0562C17.0595 65.279 16.9482 65.5478 16.9482 65.8623Z" fill="#E4E8EB"/>
<path fill-rule="evenodd" clip-rule="evenodd" d="M44.6928 59.0821C44.1331 61.4449 43.5339 63.7945 42.9414 66.1441H52.3693L52.8342 64.1943C53.0306 63.3815 53.4692 62.7426 54.16 62.2708L58.9066 59.0166C60.4092 57.9844 61.0672 55.7166 61.6172 54.0585L65.1133 43.4967C66.0332 40.7178 62.2227 36.7263 59.5875 42.9133L56.5628 50.008C55.8262 49.6804 54.9358 49.7394 54.2352 50.2407L50.0156 53.2621C45.9792 54.3632 45.3934 56.1328 44.6928 59.0821Z" fill="#EFC7A4"/>
<path fill-rule="evenodd" clip-rule="evenodd" d="M57.5119 50.7848L48.084 57.5387C48.8369 58.5906 50.3133 58.8364 51.3641 58.0826L56.9685 54.0683C58.0225 53.3147 58.2648 51.8367 57.5119 50.7848Z" fill="#D5A889"/>
<path d="M55.0502 65.8623L55.047 68.7462C55.047 69.372 54.5362 69.8799 53.9111 69.8799C50.0057 69.8832 46.0969 69.8832 42.1916 69.8832C41.8773 69.8832 41.6089 69.7718 41.3863 69.549C41.1669 69.3261 41.0557 69.0575 41.0557 68.7429L41.0589 65.8591C41.0589 65.2331 41.5697 64.7252 42.1948 64.7252C46.1002 64.7219 50.0089 64.7219 53.9143 64.7219C54.2286 64.7219 54.4969 64.8333 54.7196 65.0562C54.939 65.279 55.0502 65.5478 55.0502 65.8623Z" fill="#E4E8EB"/>
<path fill-rule="evenodd" clip-rule="evenodd" d="M17.8875 63.7469C17.7302 63.5041 17.5237 63.2954 17.2673 63.1192L12.518 59.8559C10.8458 58.7072 10.0391 56.2284 9.43189 54.3817L5.9461 43.8095L5.94582 43.809C5.51283 42.4927 5.87156 40.9684 6.68883 39.94C7.28657 39.188 8.11584 38.7039 9.02714 38.6593C10.3318 38.5953 12.0339 39.4709 13.3327 42.5382L16.0128 48.8613C16.8125 48.7675 17.6481 48.9588 18.3507 49.4628L18.3513 49.4632L22.4285 52.3924C24.1483 52.8838 25.2835 53.5072 26.0869 54.2566C27.3332 55.4192 27.8074 56.9112 28.278 58.9061C28.6586 60.5203 29.0567 62.1297 29.459 63.7387H29.8038C30.9729 63.7387 31.9278 64.6936 31.9278 65.8616L31.931 68.7422V68.7431C31.931 69.328 31.7244 69.8278 31.3162 70.242L31.3059 70.2523C30.8918 70.6603 30.3915 70.8705 29.807 70.8705H29.8062C25.9015 70.8673 21.9936 70.8673 18.0888 70.8673C16.9189 70.8673 15.9648 69.9165 15.9648 68.7477L15.9616 65.8639V65.8627C15.9616 65.2831 16.1676 64.7822 16.5764 64.3672L16.5816 64.362C16.9498 63.9938 17.3851 63.789 17.8875 63.7469ZM27.4219 63.7387C27.0582 62.2808 26.699 60.8223 26.3543 59.3599C25.9882 57.8078 25.7084 56.6063 24.7388 55.702C24.0915 55.0983 23.149 54.6388 21.7323 54.2498C21.6192 54.2187 21.5125 54.1678 21.4172 54.0995L17.1986 51.0687C16.5873 50.6303 15.7291 50.7691 15.2926 51.3803C15.2919 51.3812 15.2912 51.3822 15.2904 51.3831C14.8517 51.9928 14.9927 52.8513 15.6023 53.2901L21.2088 57.319C21.4216 57.472 21.5649 57.7033 21.6072 57.9619C21.6496 58.2205 21.5875 58.4854 21.4347 58.6983C21.2817 58.911 21.0504 59.0543 20.7918 59.0966C20.5332 59.139 20.2683 59.0769 20.0554 58.924L14.4485 54.8947L14.4479 54.8943C12.9566 53.8212 12.6129 51.7216 13.6851 50.2301C13.8352 50.02 14.0094 49.8282 14.2041 49.6585L11.5128 43.3094C11.0609 42.2419 10.584 41.5149 10.0902 41.0707C9.7542 40.7687 9.43246 40.6183 9.1237 40.6334C8.76921 40.6507 8.46864 40.8773 8.23613 41.1698C7.80808 41.7083 7.5966 42.5018 7.82333 43.1912L11.3091 53.7632L11.3094 53.7639C11.5718 54.5623 11.8573 55.5076 12.2608 56.3765C12.6036 57.1147 13.023 57.8049 13.6371 58.2268L18.3867 61.4903C19.2103 62.0563 19.7591 62.8009 20.0392 63.7387H27.4219ZM28.6683 65.7152H18.0856C18.0662 65.715 18.0469 65.7187 18.0289 65.7261C18.011 65.7334 17.9946 65.7443 17.9809 65.758C17.9672 65.7718 17.9563 65.7881 17.9489 65.8061C17.9416 65.824 17.9379 65.8433 17.9381 65.8627L17.9413 68.7454V68.7465C17.9413 68.827 18.0084 68.8908 18.0888 68.8908C21.9939 68.8908 25.9021 68.8908 29.807 68.8941C29.8486 68.8941 29.8833 68.8774 29.9142 68.8486C29.9406 68.82 29.9551 68.7823 29.9546 68.7433L29.9513 65.8639V65.8627C29.9513 65.7815 29.885 65.7152 29.8038 65.7152H28.7063C28.6936 65.7153 28.681 65.7153 28.6683 65.7152ZM54.1117 63.7468C54.6136 63.7887 55.055 63.9952 55.4201 64.3646C55.8348 64.7805 56.0409 65.2822 56.0409 65.8627V65.8639L56.0376 68.7465C56.0376 69.9165 55.0836 70.8673 53.9136 70.8673C50.0056 70.8673 46.1009 70.8673 42.193 70.8705H42.1922C41.6105 70.8705 41.1017 70.6575 40.6915 70.2472C40.2757 69.8315 40.0682 69.3302 40.0682 68.7431V68.7422L40.0714 65.8627C40.0714 64.6936 41.0263 63.7387 42.1954 63.7387H42.5412C42.9441 62.1302 43.3425 60.521 43.721 58.9072L43.7213 58.9061C44.1919 56.911 44.6673 55.4189 45.9147 54.2563C46.7187 53.507 47.8545 52.8838 49.5739 52.3924L53.6506 49.4637C54.3514 48.9594 55.1865 48.7677 55.9864 48.8613L58.6663 42.5387C59.9653 39.4709 61.6675 38.5953 62.9721 38.6593C63.8834 38.7039 64.7127 39.188 65.3104 39.94C66.1277 40.9684 66.4864 42.4927 66.0534 43.809L62.5706 54.3818L62.5702 54.3828C61.9596 56.2293 61.1532 58.7075 59.4814 59.8558L54.7319 63.1192C54.4755 63.2954 54.269 63.5041 54.1117 63.7468ZM53.9169 65.7152H42.1954C42.1142 65.7152 42.0479 65.7815 42.0479 65.8627V65.8639L42.0446 68.7433C42.0446 68.7848 42.0596 68.8202 42.089 68.8496C42.1174 68.878 42.1519 68.8941 42.1922 68.8941C46.1004 68.8908 50.0053 68.8908 53.9136 68.8908C53.9941 68.8908 54.0612 68.827 54.0612 68.7465V68.7454L54.0644 65.8627C54.0644 65.8225 54.0487 65.7883 54.0201 65.7597L54.0149 65.7544C54.0021 65.7415 53.9868 65.7314 53.97 65.7246C53.9531 65.7179 53.935 65.7147 53.9169 65.7152ZM51.9602 63.7387C52.2407 62.8 52.7893 62.056 53.6125 61.4903L58.3621 58.2268C58.9764 57.8048 59.3958 57.1146 59.739 56.3761C60.1429 55.5071 60.4294 54.5617 60.6934 53.7632L64.1759 43.1912C64.4026 42.5018 64.1911 41.7084 63.7631 41.1698C63.5306 40.8773 63.23 40.6507 62.8755 40.6334C62.5668 40.6183 62.245 40.7687 61.909 41.0707C61.4152 41.5149 60.9383 42.2419 60.4864 43.3094L57.7957 49.6571C57.9911 49.8269 58.1659 50.0189 58.3168 50.2293C59.3899 51.7212 59.0465 53.8216 57.5508 54.8947L51.9438 58.924C51.7309 59.0769 51.4661 59.139 51.2074 59.0966C50.9488 59.0543 50.7176 58.911 50.5645 58.6983C50.4117 58.4854 50.3496 58.2205 50.392 57.9619C50.4343 57.7033 50.5776 57.472 50.7904 57.319L56.3974 53.2897L56.3981 53.2893C57.0094 52.8506 57.1507 51.9926 56.712 51.3831L56.7112 51.382C56.2726 50.7705 55.4145 50.6294 54.805 51.068L54.8045 51.0684L50.5853 54.0995C50.49 54.1678 50.3834 54.2187 50.2703 54.2498C48.8532 54.6388 47.9101 55.0984 47.2622 55.7023C46.2919 56.6065 46.0111 57.8076 45.6451 59.3594C45.302 60.822 44.9427 62.2808 44.5785 63.7387H51.9602ZM35.9996 11.2469C47.4646 11.2469 56.7726 20.555 56.7726 32.0199C56.7726 43.4848 47.4646 52.7927 35.9996 52.7927C24.5347 52.7927 15.2266 43.4848 15.2266 32.0199C15.2266 20.555 24.5347 11.2469 35.9996 11.2469ZM35.9996 13.2234C25.6255 13.2234 17.2031 21.6458 17.2031 32.0199C17.2031 42.394 25.6255 50.8163 35.9996 50.8163C46.3737 50.8163 54.7961 42.394 54.7961 32.0199C54.7961 21.6458 46.3737 13.2234 35.9996 13.2234ZM24.2656 21.5006C27.423 21.2503 35.5502 17.0593 35.5502 17.0593C35.6894 16.9882 35.8434 16.9512 35.9996 16.9512C36.1558 16.9512 36.3098 16.9882 36.449 17.0593C36.449 17.0593 44.5762 21.2503 47.7336 21.5006C47.9814 21.5202 48.2128 21.6326 48.3814 21.8152C48.5501 21.9978 48.6438 22.2372 48.6438 22.4858V32.6699C48.6438 36.2109 46.8763 39.4822 44.4077 42.0351C41.9835 44.5421 38.8939 46.3472 36.2556 47.0548C36.0878 47.0998 35.9112 47.0998 35.7435 47.0548C33.1062 46.3472 30.0166 44.5421 27.5921 42.0351C25.1234 39.4822 23.3554 36.2109 23.3554 32.6699V22.4858C23.3554 22.2372 23.4491 21.9978 23.6178 21.8152C23.7865 21.6326 24.0178 21.5202 24.2656 21.5006ZM25.3319 23.3303V32.6699C25.3319 35.7008 26.8998 38.4759 29.0129 40.661C31.0923 42.8113 33.7114 44.3978 35.9998 45.0736C38.2885 44.398 40.9076 42.8114 42.9869 40.6612C45.0998 38.476 46.6673 35.7008 46.6673 32.6699V23.3303C43.4393 22.6447 37.6487 19.8564 35.9996 19.0432C34.3505 19.8564 28.5599 22.6447 25.3319 23.3303ZM40.0007 33.015C40.0619 32.7602 40.2218 32.5401 40.4453 32.4032C40.6687 32.2662 40.9373 32.2235 41.1922 32.2845C41.447 32.3457 41.6671 32.5056 41.804 32.7291C41.941 32.9525 41.9837 33.2211 41.9227 33.476C41.2661 36.2142 38.8001 38.2523 35.8617 38.2523C32.4219 38.2523 29.6293 35.4597 29.6293 32.0199C29.6293 28.5801 32.4219 25.7874 35.8617 25.7874C37.0497 25.7857 38.2132 26.1254 39.2138 26.7659C39.4345 26.9071 39.5901 27.1302 39.6464 27.3862C39.7027 27.6421 39.6551 27.9099 39.5141 28.1308C39.3728 28.3515 39.1496 28.5071 38.8937 28.5634C38.6377 28.6197 38.3699 28.5721 38.149 28.431C37.4662 27.9941 36.6723 27.7626 35.8617 27.7638C33.5128 27.7638 31.6058 29.6709 31.6058 32.0199C31.6058 34.3688 33.5128 36.2758 35.8617 36.2758C37.8681 36.2758 39.5523 34.8848 40.0007 33.015ZM42.6295 26.179C42.8149 25.9938 43.0662 25.8897 43.3283 25.8897C43.5904 25.8897 43.8417 25.9938 44.027 26.179C44.2123 26.3644 44.3163 26.6158 44.3163 26.8778C44.3163 27.1399 44.2123 27.3912 44.027 27.5767L36.9737 34.6298C36.882 34.7216 36.773 34.7944 36.6531 34.8441C36.5333 34.8937 36.4047 34.9193 36.275 34.9193C36.1452 34.9193 36.0167 34.8937 35.8968 34.8441C35.7769 34.7944 35.668 34.7216 35.5762 34.6298L32.9789 32.0325C32.5932 31.6469 32.5932 31.0207 32.9789 30.635C33.3646 30.2493 33.9908 30.2493 34.3764 30.635L36.275 32.5335L42.6295 26.179ZM63.9044 26.6497C64.1698 27.8693 64.8447 29.0243 65.929 30.1259C66.0577 30.2564 66.1474 30.4202 66.1883 30.5988C66.2292 30.7774 66.2196 30.9639 66.1606 31.1374C66.1016 31.3109 65.9955 31.4646 65.8541 31.5813C65.7128 31.6979 65.5418 31.7729 65.3602 31.798C63.8897 32.0017 62.809 32.6442 62.0695 33.6794C61.9446 33.8543 61.7661 33.9837 61.561 34.048C61.3559 34.1123 61.1354 34.108 60.933 34.0357C60.7306 33.9634 60.5573 33.8271 60.4393 33.6474C60.3213 33.4677 60.2651 33.2545 60.2793 33.04C60.363 31.7675 59.6704 30.7935 58.4316 29.9682C58.2697 29.8604 58.1433 29.7072 58.0681 29.5278C57.9929 29.3485 57.9723 29.1509 58.0088 28.9599C58.0454 28.7689 58.1375 28.5929 58.2736 28.454C58.4097 28.3151 58.5838 28.2195 58.7741 28.1791C60.1987 27.8764 61.337 27.232 62.1815 26.2249C62.3002 26.0833 62.4563 25.9778 62.632 25.9204C62.8077 25.863 62.9959 25.8561 63.1754 25.9003C63.3548 25.9446 63.5182 26.0382 63.6471 26.1707C63.776 26.3032 63.8651 26.4691 63.9044 26.6497ZM62.496 28.6425C62.0241 29.0008 61.5119 29.3027 60.9698 29.5418C61.392 30.0086 61.7126 30.509 61.9289 31.0451C62.3806 30.7201 62.8827 30.4524 63.4388 30.2463C63.0558 29.7217 62.7424 29.1868 62.496 28.6425ZM13.3463 15.5411C14.186 16.4647 15.3479 17.1275 16.8377 17.5393C17.0143 17.5882 17.1738 17.6851 17.2985 17.8194C17.4231 17.9537 17.508 18.1199 17.5436 18.2996C17.5792 18.4794 17.5642 18.6654 17.5002 18.8371C17.4362 19.0088 17.3258 19.1593 17.1812 19.2718C16.0096 20.1834 15.395 21.28 15.2722 22.5465C15.2515 22.7605 15.1616 22.9618 15.0161 23.1201C14.8706 23.2783 14.6775 23.3848 14.466 23.4234C14.2546 23.462 14.0363 23.4306 13.8443 23.334C13.6523 23.2373 13.497 23.0807 13.4021 22.8879C12.8383 21.7439 11.7514 21.2467 10.266 21.1514C10.0719 21.139 9.88581 21.0695 9.73102 20.9518C9.57623 20.8341 9.45962 20.6733 9.39579 20.4896C9.33196 20.3059 9.32375 20.1074 9.37219 19.9191C9.42062 19.7308 9.52355 19.5609 9.66808 19.4308C10.7505 18.4564 11.414 17.3292 11.6419 16.0346C11.6739 15.8526 11.7562 15.6832 11.8797 15.5456C12.0031 15.4081 12.1627 15.3079 12.3402 15.2565C12.5177 15.2051 12.7061 15.2045 12.884 15.2548C13.0618 15.3051 13.222 15.4043 13.3463 15.5411ZM13.1231 17.9711C12.8935 18.5174 12.6008 19.0349 12.2509 19.5131C12.8501 19.7062 13.3778 19.9792 13.8332 20.3354C14.0619 19.828 14.3629 19.3452 14.7414 18.8886C14.1475 18.6259 13.6086 18.3193 13.1231 17.9711ZM52.7938 7.08121C53.3659 8.19058 54.3166 9.13138 55.6491 9.91491C55.807 10.0078 55.9361 10.1427 56.0217 10.3047C56.1074 10.4666 56.1464 10.6492 56.1343 10.832C56.1222 11.0148 56.0595 11.1907 55.9532 11.3399C55.847 11.4892 55.7013 11.606 55.5325 11.6772C54.1648 12.2545 53.2872 13.1548 52.8408 14.3463C52.7654 14.5476 52.6265 14.7188 52.445 14.834C52.2636 14.9491 52.0495 15.002 51.8353 14.9846C51.621 14.9672 51.4183 14.8804 51.2579 14.7374C51.0974 14.5944 50.988 14.4029 50.9461 14.1921C50.6976 12.941 49.7765 12.1795 48.3664 11.703C48.1821 11.6408 48.0204 11.5256 47.9013 11.3718C47.7822 11.218 47.7112 11.0325 47.6971 10.8386C47.6829 10.6446 47.7264 10.4508 47.8219 10.2814C47.9174 10.112 48.0608 9.97453 48.2341 9.88625C49.5318 9.22512 50.4646 8.30818 51.0197 7.11665C51.0978 6.94922 51.2213 6.80703 51.3761 6.70623C51.531 6.60542 51.711 6.55003 51.8957 6.54634C52.0804 6.54265 52.2625 6.59081 52.4212 6.68535C52.58 6.77989 52.7091 6.91703 52.7938 7.08121ZM51.9492 9.37067C51.5923 9.83246 51.1786 10.2537 50.7077 10.6342C51.2364 10.9758 51.6756 11.3762 52.0233 11.838C52.3754 11.4073 52.7911 11.0188 53.275 10.6757C52.7691 10.2681 52.3281 9.8326 51.9492 9.37067ZM29.3708 1.6647C29.9429 2.77406 30.8935 3.715 32.2261 4.49839C32.384 4.59132 32.5129 4.72629 32.5986 4.88824C32.6842 5.0502 32.7231 5.23276 32.711 5.41556C32.6989 5.59836 32.6363 5.7742 32.5301 5.92346C32.4238 6.07272 32.2782 6.18952 32.1095 6.26084C30.7418 6.83811 29.8642 7.73839 29.4178 8.92978C29.3424 9.13105 29.2035 9.30225 29.022 9.41744C28.8405 9.53262 28.6265 9.5855 28.4123 9.56807C28.198 9.55064 27.9953 9.46385 27.8349 9.32085C27.6744 9.17784 27.565 8.98643 27.5231 8.77561C27.2746 7.52465 26.3534 6.76314 24.9432 6.28653C24.759 6.22427 24.5972 6.10903 24.4782 5.95524C24.3591 5.80146 24.2881 5.61597 24.274 5.422C24.2599 5.22804 24.3033 5.03422 24.3989 4.86483C24.4944 4.69544 24.6378 4.558 24.8111 4.46973C26.1088 3.80874 27.0415 2.89166 27.5966 1.70027C27.6747 1.53279 27.7982 1.39055 27.953 1.2897C28.1079 1.18884 28.2879 1.13342 28.4726 1.12972C28.6574 1.12601 28.8395 1.17417 28.9982 1.26874C29.157 1.3633 29.2861 1.50048 29.3708 1.6647ZM28.5262 3.95416C28.1631 4.42239 27.7464 4.8465 27.2846 5.21783C27.8134 5.55933 28.2526 5.95971 28.6003 6.42164C28.9524 5.99077 29.3681 5.60225 29.8519 5.25919C29.3461 4.85176 28.9051 4.41609 28.5262 3.95416Z" fill="black"/>
</svg>
