<svg width="268" height="268" viewBox="0 0 268 268" fill="none" xmlns="http://www.w3.org/2000/svg">
<path d="M150.562 117.438C168.857 117.438 183.688 132.268 183.688 150.562C183.688 156.192 182.283 161.495 179.805 166.138L183.688 180.375L171.059 176.587C165.222 181.197 158 183.699 150.562 183.687C132.268 183.687 117.438 168.857 117.438 150.562L150.562 117.438Z" fill="#355485"/>
<path d="M183.401 146.422C181.359 130.086 167.451 117.438 150.563 117.438C133.674 117.438 119.765 130.086 117.724 146.422C119.766 162.757 133.674 175.406 150.563 175.406C167.451 175.406 181.361 162.757 183.401 146.422Z" fill="#446AA9"/>
<path d="M183.401 146.422C181.359 130.086 167.451 117.438 150.563 117.438C133.674 117.438 119.765 130.086 117.724 146.422C119.766 162.757 133.674 175.406 150.563 175.406C167.451 175.406 181.361 162.757 183.401 146.422Z" fill="#446AA9"/>
<path d="M153.87 117.605C152.771 117.495 151.667 117.439 150.562 117.438L117.438 150.563C117.438 151.679 117.497 152.782 117.605 153.87C137.564 153.779 153.781 137.563 153.872 117.603L153.87 117.605Z" fill="#355485"/>
<path d="M88.1947 133.013L84.3125 147.25L96.9414 143.462C102.778 148.072 110 150.574 117.438 150.562C135.732 150.562 150.562 135.732 150.562 117.437C150.562 99.1426 135.732 84.3125 117.438 84.3125C99.1426 84.3125 84.3125 99.1426 84.3125 117.437C84.3125 123.067 85.717 128.37 88.1947 133.013Z" fill="#F1A141"/>
<path d="M150.276 113.297C148.234 96.9613 134.326 84.3125 117.438 84.3125C100.549 84.3125 86.6396 96.9613 84.5991 113.297C86.6413 129.632 100.549 142.281 117.438 142.281C134.326 142.281 148.236 129.632 150.276 113.297Z" fill="#FFBE51"/>
<path d="M136.284 133.457L132.564 129.737C134.585 126.735 135.662 123.198 135.656 119.579C135.656 109.517 127.499 101.36 117.438 101.36C107.376 101.36 99.2188 109.517 99.2188 119.579C99.2188 129.641 107.376 137.798 117.438 137.798C121.199 137.798 124.694 136.658 127.595 134.706L131.315 138.425C131.806 138.918 132.432 139.253 133.114 139.389C133.796 139.525 134.503 139.456 135.145 139.19C135.787 138.924 136.336 138.473 136.722 137.895C137.108 137.316 137.313 136.636 137.313 135.941C137.313 135.009 136.942 134.116 136.284 133.457ZM127.736 124.909L125.091 122.264C124.6 121.772 123.974 121.436 123.292 121.3C122.61 121.164 121.904 121.233 121.261 121.499C120.619 121.766 120.07 122.216 119.684 122.795C119.298 123.373 119.093 124.053 119.094 124.748C119.094 125.681 119.465 126.573 120.122 127.233L122.767 129.878C120.31 131.149 117.479 131.5 114.786 130.867C112.092 130.233 109.714 128.658 108.081 126.425C106.448 124.191 105.667 121.448 105.88 118.689C106.093 115.931 107.285 113.339 109.241 111.383C111.198 109.426 113.789 108.234 116.548 108.021C119.306 107.808 122.05 108.589 124.283 110.223C126.516 111.856 128.092 114.234 128.725 116.927C129.358 119.621 129.008 122.452 127.736 124.909Z" fill="#F1A141"/>
<path d="M136.284 131.315L132.564 127.595C134.585 124.594 135.662 121.056 135.656 117.438C135.656 107.376 127.499 99.2188 117.438 99.2188C107.376 99.2188 99.2188 107.376 99.2188 117.438C99.2188 127.499 107.376 135.656 117.438 135.656C121.199 135.656 124.694 134.517 127.595 132.564L131.315 136.284C131.806 136.776 132.432 137.112 133.114 137.248C133.796 137.384 134.503 137.314 135.145 137.048C135.787 136.782 136.336 136.331 136.722 135.753C137.108 135.175 137.313 134.495 137.313 133.8C137.313 132.867 136.942 131.974 136.284 131.315ZM127.736 122.767L125.091 120.122C124.6 119.63 123.974 119.295 123.292 119.159C122.61 119.022 121.904 119.092 121.261 119.358C120.619 119.624 120.07 120.075 119.684 120.653C119.298 121.232 119.093 121.911 119.094 122.607C119.094 123.539 119.465 124.432 120.122 125.091L122.767 127.736C120.31 129.008 117.479 129.358 114.786 128.725C112.092 128.092 109.714 126.516 108.081 124.283C106.448 122.05 105.667 119.306 105.88 116.548C106.093 113.789 107.285 111.198 109.241 109.241C111.198 107.285 113.789 106.093 116.548 105.88C119.306 105.667 122.05 106.448 124.283 108.081C126.516 109.714 128.092 112.092 128.725 114.786C129.358 117.479 129.008 120.31 127.736 122.767Z" fill="#EDF4FA"/>
<path d="M165.361 164.124L160.374 142.354C159.293 137.63 155.233 134.298 150.563 134.298C149.16 134.298 147.811 134.6 146.583 135.148L140.582 143.091L135.764 164.125C135.184 166.653 137.029 169.081 139.529 169.081C141.324 169.081 142.884 167.797 143.297 165.979L144.469 160.8H156.656L157.828 165.979C158.239 167.796 159.799 169.081 161.596 169.081C164.097 169.081 165.941 166.653 165.361 164.124ZM145.968 154.173L148.603 142.535C148.817 141.591 149.628 140.923 150.561 140.923C151.493 140.923 152.305 141.591 152.519 142.535L155.154 154.173H145.966H145.968Z" fill="#355485"/>
<path d="M165.361 162.169L160.374 140.4C159.293 135.676 155.233 132.344 150.563 132.344C149.16 132.344 147.811 132.645 146.583 133.193L140.582 141.137L135.764 162.171C135.184 164.699 137.029 167.127 139.529 167.127C141.324 167.127 142.884 165.843 143.297 164.024L144.469 158.845H156.656L157.828 164.024C158.239 165.841 159.799 167.127 161.596 167.127C164.097 167.127 165.941 164.699 165.361 162.169ZM145.968 152.219L148.603 140.58C148.817 139.636 149.628 138.969 150.561 138.969C151.493 138.969 152.305 139.636 152.519 140.58L155.154 152.219H145.966H145.968Z" fill="#EDF4FA"/>
<circle cx="134.5" cy="134.5" r="77" stroke="#F1A141"/>
<circle cx="134" cy="134" r="105.5" stroke="#FFBE51" stroke-opacity="0.6"/>
<circle cx="134" cy="134" r="133.5" stroke="#FFBE51" stroke-opacity="0.2"/>
</svg>
