<svg width="268" height="268" viewBox="0 0 268 268" fill="none" xmlns="http://www.w3.org/2000/svg">
<circle cx="134.5" cy="134.5" r="77" stroke="#F1A141"/>
<circle cx="134" cy="134" r="105.5" stroke="#FFBE51" stroke-opacity="0.6"/>
<circle cx="134" cy="134" r="133.5" stroke="#FFBE51" stroke-opacity="0.2"/>
<path d="M119.094 119.094H147.25V163.812H119.094V119.094Z" fill="#A97C50"/>
<path d="M147.25 119.094H175.406V163.812H147.25V119.094Z" fill="#8B5E3C"/>
<path d="M147.25 158.844V163.812H175.406V130.688C175.406 138.155 172.44 145.317 167.159 150.597C161.879 155.877 154.718 158.844 147.25 158.844Z" fill="#754C29"/>
<path d="M180.839 156.194C180.514 155.629 180.081 155.134 179.564 154.737C179.048 154.34 178.458 154.048 177.829 153.879C177.2 153.71 176.544 153.667 175.898 153.751C175.252 153.836 174.629 154.047 174.065 154.372L156.393 164.574H156.384C156.149 163.755 155.706 163.011 155.098 162.413C154.491 161.815 153.739 161.385 152.916 161.163L128.205 154.538C126.575 154.101 124.86 154.087 123.223 154.496L112.469 157.187V177.062L116.995 179.327C118.375 180.016 119.897 180.375 121.439 180.375H146.245C147.989 180.377 149.702 179.92 151.213 179.05L179.038 162.984C180.177 162.322 181.007 161.235 181.344 159.962C181.682 158.688 181.5 157.333 180.839 156.194Z" fill="#FFBCAB"/>
<path d="M156.384 164.574C156.354 164.477 156.333 164.376 156.298 164.28C156.264 164.381 156.225 164.482 156.184 164.581C155.722 165.685 154.876 166.584 153.802 167.113C152.729 167.641 151.5 167.763 150.344 167.456L141.537 165.098L132.99 162.799C132.781 162.743 132.563 162.73 132.35 162.761C132.136 162.792 131.931 162.865 131.746 162.977C131.561 163.089 131.401 163.237 131.276 163.413C131.15 163.588 131.061 163.787 131.014 163.998C130.925 164.4 130.995 164.821 131.208 165.174C131.422 165.526 131.764 165.782 132.161 165.889L150.072 170.693C151.212 171.023 152.431 170.952 153.524 170.492C154.618 170.032 155.521 169.211 156.083 168.165C156.637 167.05 156.745 165.766 156.384 164.574Z" fill="#FF9478"/>
<path d="M169.858 114.125C169.757 114.457 169.624 114.779 169.46 115.086L173.386 119.011L173.303 119.094H147.697L147.614 119.011L151.54 115.086C151.376 114.779 151.243 114.457 151.142 114.125H145.594V107.5H151.142C151.243 107.168 151.376 106.846 151.54 106.539L147.614 102.614L152.302 97.9269L156.227 101.852C156.533 101.689 156.855 101.556 157.188 101.455V95.9062H163.812V101.455C164.145 101.556 164.467 101.689 164.773 101.852L168.698 97.9269L173.386 102.614L169.46 106.539C169.624 106.846 169.757 107.168 169.858 107.5H175.406V114.125H169.858Z" fill="#ED1C24"/>
<path d="M134 86.9294V99.2188L129.031 102.531L124.062 99.2188V86.9294C121.974 87.7744 120.135 89.1381 118.72 90.8915C117.306 92.6448 116.361 94.73 115.977 96.9499C115.592 99.1698 115.78 101.451 116.522 103.578C117.265 105.705 118.537 107.608 120.22 109.107C120.911 109.722 121.464 110.477 121.841 111.322C122.218 112.168 122.411 113.084 122.406 114.009V119.094H135.656V114.009C135.651 113.084 135.844 112.168 136.221 111.322C136.598 110.477 137.151 109.722 137.842 109.107C139.525 107.608 140.797 105.705 141.54 103.578C142.282 101.451 142.47 99.1698 142.085 96.9499C141.701 94.73 140.756 92.6448 139.342 90.8915C137.927 89.1381 136.088 87.7744 134 86.9294Z" fill="#FF9811"/>
<path d="M99.2188 152.219V182.031H112.469V152.219H99.2188Z" fill="#006DF0"/>
<path d="M85.9688 155.531H99.2188V178.719H85.9688V155.531Z" fill="#005ECE"/>
<path d="M129.031 119.094H119.094L112.469 132.344H140.625L147.25 119.094H135.656H129.031Z" fill="#8B5E3C"/>
<path d="M173.303 119.094H147.25L153.875 132.344H182.031L175.406 119.094H173.303Z" fill="#754C29"/>
<path d="M160.5 115.781C163.244 115.781 165.469 113.557 165.469 110.812C165.469 108.068 163.244 105.844 160.5 105.844C157.756 105.844 155.531 108.068 155.531 110.812C155.531 113.557 157.756 115.781 160.5 115.781Z" fill="#E6E7E8"/>
<path d="M95.9062 155.531H99.2188V178.719H95.9062V155.531Z" fill="#004FAC"/>
<path d="M183.505 131.598L176.88 118.348C176.746 118.072 176.536 117.84 176.275 117.679C176.015 117.518 175.713 117.434 175.406 117.438H174.147L172.491 115.781H175.406C175.846 115.781 176.267 115.607 176.577 115.296C176.888 114.986 177.062 114.564 177.062 114.125V107.5C177.062 107.061 176.888 106.639 176.577 106.329C176.267 106.018 175.846 105.844 175.406 105.844H172.491L174.562 103.79C174.872 103.477 175.046 103.055 175.046 102.614C175.046 102.174 174.872 101.751 174.562 101.438L169.874 96.7509C169.562 96.4406 169.139 96.2665 168.698 96.2665C168.258 96.2665 167.835 96.4406 167.522 96.7509L165.469 98.8213V95.9062C165.469 95.467 165.294 95.0457 164.984 94.7351C164.673 94.4245 164.252 94.25 163.812 94.25H157.188C156.748 94.25 156.327 94.4245 156.016 94.7351C155.706 95.0457 155.531 95.467 155.531 95.9062V98.8213L153.478 96.7509C153.165 96.4406 152.742 96.2665 152.302 96.2665C151.861 96.2665 151.438 96.4406 151.126 96.7509L146.438 101.438C146.128 101.751 145.954 102.174 145.954 102.614C145.954 103.055 146.128 103.477 146.438 103.79L148.509 105.844H145.594C145.154 105.844 144.733 106.018 144.423 106.329C144.112 106.639 143.938 107.061 143.938 107.5V114.125C143.938 114.564 144.112 114.986 144.423 115.296C144.733 115.607 145.154 115.781 145.594 115.781H148.509L146.852 117.438H137.312V114.009C137.31 113.319 137.453 112.636 137.733 112.006C138.013 111.375 138.423 110.81 138.936 110.349C140.831 108.664 142.266 106.524 143.104 104.131C143.942 101.738 144.155 99.1702 143.724 96.6713C143.293 94.1724 142.231 91.8248 140.64 89.8506C139.049 87.8764 136.98 86.3408 134.629 85.3891C134.377 85.2854 134.103 85.2457 133.832 85.2734C133.561 85.301 133.3 85.3952 133.074 85.5476C132.848 85.7 132.663 85.9058 132.536 86.1469C132.408 86.3879 132.342 86.6567 132.344 86.9294V98.3244L129.031 100.544L125.719 98.3244V86.9294C125.72 86.6567 125.654 86.3879 125.527 86.1469C125.399 85.9058 125.214 85.7 124.988 85.5476C124.762 85.3952 124.502 85.301 124.231 85.2734C123.959 85.2457 123.685 85.2854 123.433 85.3891C121.083 86.3408 119.014 87.8764 117.423 89.8506C115.831 91.8248 114.77 94.1724 114.338 96.6713C113.907 99.1702 114.121 101.738 114.959 104.131C115.797 106.524 117.231 108.664 119.127 110.349C119.64 110.81 120.05 111.375 120.329 112.006C120.609 112.636 120.752 113.319 120.75 114.009V117.438H119.094C118.787 117.434 118.486 117.518 118.225 117.679C117.964 117.84 117.754 118.072 117.62 118.348L110.995 131.598C110.868 131.851 110.807 132.131 110.819 132.413C110.831 132.695 110.915 132.97 111.062 133.21C111.21 133.451 111.417 133.65 111.663 133.788C111.909 133.926 112.186 133.999 112.469 134H117.438V154.239L114.125 155.068V152.219C114.125 151.779 113.951 151.358 113.64 151.048C113.329 150.737 112.908 150.562 112.469 150.562H99.2188C98.7795 150.562 98.3582 150.737 98.0476 151.048C97.737 151.358 97.5625 151.779 97.5625 152.219V153.875H85.9688C85.5295 153.875 85.1082 154.049 84.7976 154.36C84.487 154.671 84.3125 155.092 84.3125 155.531V178.719C84.3125 179.158 84.487 179.579 84.7976 179.89C85.1082 180.201 85.5295 180.375 85.9688 180.375H97.5625V182.031C97.5625 182.471 97.737 182.892 98.0476 183.202C98.3582 183.513 98.7795 183.687 99.2188 183.687H112.469C112.908 183.687 113.329 183.513 113.64 183.202C113.951 182.892 114.125 182.471 114.125 182.031V179.746L116.262 180.806C117.872 181.607 119.646 182.027 121.446 182.031H146.24C148.276 182.036 150.277 181.498 152.037 180.474L179.862 164.409C181.085 163.703 182.051 162.624 182.617 161.329C183.182 160.035 183.319 158.593 183.006 157.215C182.693 155.838 181.947 154.597 180.878 153.674C179.808 152.751 178.471 152.194 177.062 152.086V134H182.031C182.314 133.999 182.591 133.926 182.837 133.788C183.083 133.65 183.29 133.451 183.438 133.21C183.585 132.97 183.669 132.695 183.681 132.413C183.693 132.131 183.632 131.851 183.505 131.598ZM97.5625 177.062H87.625V157.187H97.5625V177.062ZM110.812 180.375H100.875V153.875H110.812V180.375ZM147.25 112.469V109.156H151.142C151.498 109.155 151.844 109.041 152.13 108.829C152.416 108.618 152.627 108.32 152.732 107.98C152.805 107.746 152.899 107.518 153.014 107.301C153.177 106.989 153.236 106.632 153.182 106.283C153.129 105.935 152.965 105.613 152.716 105.363L149.95 102.614L152.302 100.262L155.051 103.028C155.3 103.278 155.622 103.441 155.971 103.495C156.32 103.548 156.676 103.489 156.989 103.326C157.206 103.211 157.433 103.117 157.668 103.045C158.008 102.94 158.305 102.729 158.517 102.443C158.728 102.157 158.843 101.81 158.844 101.455V97.5625H162.156V101.455C162.157 101.81 162.272 102.157 162.483 102.443C162.695 102.729 162.992 102.94 163.332 103.045C163.567 103.117 163.794 103.211 164.011 103.326C164.324 103.489 164.68 103.548 165.029 103.495C165.378 103.441 165.7 103.278 165.949 103.028L168.698 100.262L171.05 102.614L168.284 105.363C168.035 105.613 167.871 105.935 167.818 106.283C167.764 106.632 167.823 106.989 167.986 107.301C168.101 107.518 168.195 107.746 168.268 107.98C168.373 108.32 168.584 108.618 168.87 108.829C169.156 109.041 169.502 109.155 169.858 109.156H173.75V112.469H169.858C169.502 112.47 169.156 112.584 168.87 112.796C168.584 113.007 168.373 113.305 168.268 113.645C168.195 113.879 168.101 114.107 167.986 114.324C167.823 114.636 167.764 114.993 167.818 115.342C167.871 115.69 168.035 116.012 168.284 116.262L169.477 117.438H151.523L152.716 116.262C152.965 116.012 153.129 115.69 153.182 115.342C153.236 114.993 153.177 114.636 153.014 114.324C152.899 114.107 152.805 113.879 152.732 113.645C152.627 113.305 152.416 113.007 152.13 112.796C151.844 112.584 151.498 112.47 151.142 112.469H147.25ZM148.906 126.116L152.401 133.089C152.535 133.365 152.745 133.597 153.006 133.758C153.267 133.92 153.568 134.004 153.875 134H173.75V152.682C173.584 152.765 173.402 152.848 173.237 152.931L157.088 162.256C156.206 160.934 154.877 159.976 153.345 159.556L148.906 158.38V126.116ZM117.438 99.2188C117.433 97.3478 117.883 95.5038 118.749 93.845C119.614 92.1862 120.869 90.7623 122.406 89.6953V99.2188C122.408 99.4915 122.476 99.7598 122.606 99.9996C122.736 100.239 122.924 100.443 123.152 100.593L128.12 103.906C128.388 104.092 128.706 104.192 129.031 104.192C129.357 104.192 129.675 104.092 129.942 103.906L134.911 100.593C135.139 100.443 135.326 100.239 135.456 99.9996C135.586 99.7598 135.655 99.4915 135.656 99.2188V89.6953C137.094 90.696 138.286 92.0094 139.144 93.5369C140.001 95.0645 140.501 96.7664 140.606 98.5149C140.711 100.263 140.419 102.013 139.751 103.632C139.083 105.252 138.057 106.699 136.749 107.864C135.88 108.634 135.185 109.58 134.71 110.639C134.236 111.699 133.994 112.848 134 114.009V117.438H130.688V112.469C130.688 112.029 130.513 111.608 130.202 111.298C129.892 110.987 129.471 110.812 129.031 110.812C128.592 110.812 128.171 110.987 127.86 111.298C127.549 111.608 127.375 112.029 127.375 112.469V117.438H124.062V114.009C124.068 112.85 123.827 111.703 123.356 110.643C122.885 109.584 122.194 108.637 121.33 107.864C120.105 106.782 119.124 105.451 118.453 103.96C117.782 102.47 117.436 100.853 117.438 99.2188ZM115.152 130.688L120.121 120.75H144.567L139.598 130.688H115.152ZM145.594 126.116V157.486L128.634 152.947C126.732 152.434 124.731 152.417 122.82 152.898L120.75 153.411V134H140.625C140.932 134.004 141.233 133.92 141.494 133.758C141.755 133.597 141.965 133.365 142.099 133.089L145.594 126.116ZM179.398 157.022C179.838 157.78 179.959 158.682 179.736 159.529C179.512 160.376 178.962 161.101 178.205 161.543L150.38 177.609C149.122 178.337 147.694 178.72 146.24 178.719H121.446C120.157 178.721 118.886 178.421 117.736 177.841L114.125 176.036V158.479L123.615 156.111C124.981 155.766 126.412 155.777 127.772 156.144L152.484 162.769C153.12 162.934 153.691 163.285 154.126 163.778C154.561 164.27 154.839 164.881 154.925 165.532C155.01 166.183 154.899 166.845 154.606 167.433C154.313 168.021 153.85 168.508 153.279 168.831C152.905 169.051 152.492 169.194 152.062 169.251C151.632 169.308 151.196 169.278 150.778 169.162L131.019 163.862C130.593 163.748 130.139 163.808 129.757 164.028C129.375 164.249 129.096 164.612 128.982 165.038C128.867 165.464 128.927 165.918 129.148 166.3C129.368 166.682 129.731 166.961 130.158 167.075L149.917 172.359C150.478 172.51 151.057 172.588 151.639 172.591C152.798 172.592 153.936 172.283 154.935 171.696C155.692 171.264 156.356 170.685 156.887 169.995C157.419 169.304 157.808 168.514 158.032 167.672C158.216 166.941 158.277 166.186 158.214 165.436L174.893 155.813C175.654 155.39 176.549 155.28 177.39 155.506C178.231 155.732 178.951 156.275 179.398 157.022ZM154.902 130.688L149.933 120.75H174.379L179.348 130.688H154.902Z" fill="#231F20"/>
<path d="M167.125 110.813C167.125 109.502 166.736 108.221 166.008 107.132C165.281 106.042 164.246 105.193 163.035 104.692C161.825 104.19 160.493 104.059 159.208 104.315C157.922 104.57 156.742 105.201 155.815 106.128C154.889 107.054 154.258 108.235 154.002 109.52C153.747 110.805 153.878 112.137 154.379 113.348C154.881 114.558 155.73 115.593 156.819 116.321C157.909 117.049 159.19 117.438 160.5 117.438C162.257 117.438 163.942 116.74 165.185 115.497C166.427 114.255 167.125 112.57 167.125 110.813ZM160.5 114.125C159.845 114.125 159.204 113.931 158.66 113.567C158.115 113.203 157.69 112.685 157.44 112.08C157.189 111.475 157.123 110.809 157.251 110.166C157.379 109.524 157.694 108.933 158.158 108.47C158.621 108.007 159.211 107.691 159.854 107.564C160.496 107.436 161.162 107.501 161.768 107.752C162.373 108.003 162.89 108.427 163.254 108.972C163.618 109.517 163.813 110.157 163.813 110.813C163.813 111.691 163.464 112.534 162.842 113.155C162.221 113.776 161.379 114.125 160.5 114.125Z" fill="#231F20"/>
</svg>
