<svg width="77" height="77" viewBox="0 0 77 77" fill="none" xmlns="http://www.w3.org/2000/svg">
<path d="M3.69079 24.6496L40.6098 3.19466L38.8465 2.17787L1.92896 23.6298L3.69079 24.6496Z" fill="#FE91AB"/>
<path d="M43.4833 35.2633C41.8558 34.3229 40.5367 32.0359 40.5428 30.1702L40.5993 3.2023L28.0406 10.5L3.69096 24.6481L3.62378 51.6206C3.62073 53.4908 4.93981 55.7778 6.56729 56.7152C7.38714 57.19 8.12913 57.2328 8.66653 56.9213L45.5825 35.4664C45.0451 35.7779 44.3001 35.7351 43.4818 35.2649L43.4833 35.2633Z" fill="#ED5D71"/>
<path d="M5.16558 25.6695L10.1518 28.5473L10.5152 28.758V57.3397C10.0328 57.3107 9.50146 57.1458 8.94268 56.8236C6.8236 55.5962 5.10299 52.6206 5.11062 50.187L5.16558 25.6695Z" fill="#E3E7F0"/>
<path d="M48.2754 7.62213L48.2082 34.5946C48.2021 36.0755 47.6784 37.1244 46.8296 37.6145L9.91357 59.0694C10.7609 58.5748 11.2846 57.5305 11.2922 56.0465L11.3578 29.0725L48.2754 7.62213Z" fill="#ED5D71"/>
<path d="M9.91227 28.4114L44.5687 8.27099L39.8237 5.52901L5.16724 25.671L9.91227 28.4114Z" fill="white"/>
<path d="M1.92901 23.6298L1.86184 50.6038C1.8542 53.59 3.96107 57.2419 6.56107 58.7427C9.16107 60.2435 11.2817 59.0328 11.2908 56.0481L11.358 29.074L9.59466 28.0572L9.52748 55.0297C9.5229 56.8984 8.19466 57.6557 6.56565 56.7168C4.9397 55.7778 3.61909 53.4908 3.62519 51.6221L3.69084 24.6496L1.92901 23.6298Z" fill="#D3374E"/>
<path d="M11.3581 29.074L48.2741 7.62061L46.5107 6.60382L9.59473 28.0572L11.3581 29.074Z" fill="#FE91AB"/>
<path d="M48.2848 3.19772L39.5062 8.30001L35.7153 14.9199L48.2756 7.62215L48.2848 3.19772Z" fill="#ED5D71"/>
<path d="M39.5075 8.3L35.7167 14.9183L33.9548 13.9015L37.7441 7.28168L39.5075 8.3Z" fill="#D3374E"/>
<path d="M39.5075 8.3L48.2846 3.20077L46.5212 2.18245L37.7441 7.28168L39.5075 8.3Z" fill="#FE91AB"/>
<path d="M17.1183 32.3672L54.0343 10.9122L52.2725 9.89542L15.355 31.3488L17.1183 32.3672Z" fill="#FFDD94"/>
<path d="M56.9092 42.9824C55.2817 42.0404 53.9626 39.7534 53.9687 37.8878L54.0268 10.9183L41.4665 18.216L17.1184 32.3656L17.0527 59.3381C17.0497 61.2068 18.3688 63.4954 19.9962 64.4328C20.8146 64.9076 21.5581 64.9503 22.094 64.6389L59.01 43.1839C58.4756 43.4954 57.7275 43.4526 56.9092 42.9809V42.9824Z" fill="#FEBB61"/>
<path d="M18.5916 33.387L23.5779 36.2649L23.9412 36.4756V65.0572C23.4603 65.0282 22.929 64.8633 22.3687 64.5412C20.2496 63.3137 18.529 60.3381 18.5366 57.9045L18.5916 33.387Z" fill="#E3E7F0"/>
<path d="M61.7014 15.3397L61.6358 42.3122C61.6281 43.7931 61.1045 44.842 60.2571 45.332L23.3396 66.787C24.1885 66.2923 24.7121 65.2496 24.7182 63.7641L24.7854 36.7901L61.7014 15.3397Z" fill="#FEBB61"/>
<path d="M23.3396 36.129L57.996 15.9886L53.2495 13.2466L18.593 33.387L23.3396 36.129Z" fill="white"/>
<path d="M15.355 31.3488L15.2893 58.3213C15.2802 61.3076 17.3886 64.9595 19.9886 66.4603C22.587 67.961 24.7092 66.7503 24.7183 63.7641L24.784 36.7916L23.0222 35.7748L22.955 62.7473C22.9489 64.616 21.6206 65.3732 19.9932 64.4343C18.3657 63.4954 17.0466 61.2084 17.0512 59.3397L17.1183 32.3656L15.355 31.3488Z" fill="#EFA143"/>
<path d="M24.784 36.7916L61.7 15.3397L59.9382 14.3229L23.0222 35.7763L24.784 36.7916Z" fill="#FFDD94"/>
<path d="M61.7107 10.9153L52.9321 16.0176L49.1428 22.6374L61.7016 15.3397L61.7107 10.9153Z" fill="#FEBB61"/>
<path d="M52.9351 16.0176L49.1442 22.6359L47.3809 21.6191L51.1717 14.9992L52.9351 16.0176Z" fill="#EFA143"/>
<path d="M52.9351 16.0176L61.7106 10.9183L59.9488 9.89848L51.1702 14.9992L52.9351 16.0176Z" fill="#FFDD94"/>
<path d="M30.5458 40.0832L67.4618 18.6298L65.6999 17.613L28.7839 39.0664L30.5458 40.0832Z" fill="#7BB1FF"/>
<path d="M70.3365 50.6985C68.709 49.758 67.3899 47.471 67.396 45.6053L67.4525 18.6359L54.8938 25.9336L30.5457 40.0817L30.4785 67.0557C30.4755 68.9244 31.7945 71.2129 33.422 72.1503C34.2419 72.6236 34.9839 72.6679 35.5213 72.3564L72.4373 50.9015C71.9014 51.213 71.1548 51.1702 70.3365 50.6985Z" fill="#5793FB"/>
<path d="M32.0191 41.1046L37.0054 43.9824L37.3687 44.1931V72.7748C36.8878 72.7458 36.355 72.5809 35.7962 72.2587C33.6771 71.0312 31.9565 68.0541 31.9641 65.6221L32.0191 41.1046Z" fill="#E3E7F0"/>
<path d="M75.1289 23.0573L75.0617 50.0297C75.0556 51.5107 74.5319 52.5595 73.6831 53.0496L36.7671 74.5045C37.6144 74.0099 38.1396 72.9656 38.1457 71.4816L38.2114 44.5076L75.1289 23.0573Z" fill="#5793FB"/>
<path d="M63.2008 53.0343L72.1885 47.813C72.1885 47.813 72.1839 49.5824 72.1855 49.6939L63.1931 54.9198L63.2008 53.0343ZM63.2008 49.4817L72.1885 44.2588C72.1885 44.2588 72.1839 46.0297 72.1855 46.1397L63.1931 51.3656L63.2008 49.4817ZM63.2008 45.9275L72.1885 40.7061C72.1885 40.7061 72.1839 42.474 72.1855 42.5855L63.1931 47.813L63.2008 45.9275Z" fill="#E3E7F0"/>
<path d="M36.7671 43.8465L71.4236 23.7046L66.6755 20.9641L32.019 41.1046L36.7671 43.8465Z" fill="white"/>
<path d="M28.7825 39.0649L28.7154 66.0389C28.7077 69.0252 30.8146 72.6771 33.4146 74.1763C36.0146 75.6786 38.1367 74.4694 38.1444 71.4832L38.2115 44.5092L36.4482 43.4924L36.381 70.4649C36.3764 72.3336 35.0482 73.0908 33.4192 72.1519C31.7902 71.2129 30.4726 68.9259 30.4787 67.0572L30.5459 40.0832L28.7825 39.0649Z" fill="#3A53D0"/>
<path d="M38.2115 44.5091L75.1275 23.0557L73.3657 22.0389L36.4497 43.4923L38.2115 44.5091Z" fill="#7BB1FF"/>
<path d="M75.1382 18.6328L66.3596 23.7351L62.5703 30.355L75.1291 23.0573L75.1382 18.6328Z" fill="#5793FB"/>
<path d="M66.3625 23.7351L62.5717 30.3534L60.8083 29.3366L64.5992 22.7168L66.3625 23.7351Z" fill="#3A53D0"/>
<path d="M66.3625 23.7351L75.138 18.6359L73.3747 17.616L64.5991 22.7168L66.3625 23.7351Z" fill="#7BB1FF"/>
</svg>
