<svg width="77" height="77" viewBox="0 0 77 77" fill="none" xmlns="http://www.w3.org/2000/svg">
<path d="M50.4275 26.5725C63.6025 26.5725 74.2824 37.2524 74.2824 50.4275C74.2824 54.4816 73.2709 58.3008 71.4866 61.644L74.2824 71.8969L65.1877 69.1691C60.9848 72.4889 55.7833 74.2908 50.4275 74.2824C37.2524 74.2824 26.5725 63.6025 26.5725 50.4275L50.4275 26.5725Z" fill="#355485"/>
<path d="M74.076 47.4456C72.6053 35.6815 62.5898 26.5725 50.4274 26.5725C38.265 26.5725 28.2483 35.6815 26.7788 47.4456C28.2495 59.2096 38.265 68.3187 50.4274 68.3187C62.5898 68.3187 72.6065 59.2096 74.076 47.4456Z" fill="#446AA9"/>
<path d="M74.076 47.4456C72.6053 35.6815 62.5898 26.5725 50.4274 26.5725C38.265 26.5725 28.2483 35.6815 26.7788 47.4456C28.2495 59.2096 38.265 68.3187 50.4274 68.3187C62.5898 68.3187 72.6065 59.2096 74.076 47.4456Z" fill="#446AA9"/>
<path d="M52.8094 26.693C52.0179 26.6137 51.2229 26.5735 50.4275 26.5725L26.5725 50.4275C26.5725 51.2314 26.6154 52.0257 26.693 52.8094C41.0668 52.7438 52.745 41.0656 52.8106 26.6918L52.8094 26.693Z" fill="#355485"/>
<path d="M5.51333 37.7891L2.71753 48.042L11.8122 45.3142C16.0151 48.634 21.2166 50.4359 26.5725 50.4275C39.7476 50.4275 50.4274 39.7476 50.4274 26.5725C50.4274 13.3974 39.7476 2.71758 26.5725 2.71758C13.3974 2.71758 2.71753 13.3974 2.71753 26.5725C2.71753 30.6267 3.72898 34.4458 5.51333 37.7891Z" fill="#F1A141"/>
<path d="M50.2213 23.5906C48.7506 11.8266 38.7351 2.71758 26.5727 2.71758C14.4102 2.71758 4.39354 11.8266 2.92407 23.5906C4.39473 35.3547 14.4102 44.4637 26.5727 44.4637C38.7351 44.4637 48.7518 35.3547 50.2213 23.5906Z" fill="#FFBE51"/>
<path d="M40.1446 38.1088L37.4657 35.4299C38.9213 33.2683 39.6968 30.7207 39.6926 28.1147C39.6926 20.8688 33.8183 14.9945 26.5724 14.9945C19.3264 14.9945 13.4521 20.8688 13.4521 28.1147C13.4521 35.3607 19.3264 41.235 26.5724 41.235C29.2811 41.235 31.7978 40.4143 33.8875 39.0081L36.5664 41.687C36.92 42.0415 37.3708 42.2831 37.8618 42.381C38.3528 42.479 38.8619 42.429 39.3244 42.2374C39.787 42.0458 40.1823 41.7212 40.4602 41.3047C40.738 40.8882 40.886 40.3986 40.8853 39.8979C40.8853 39.2264 40.6182 38.5835 40.1446 38.1088ZM33.9889 31.953L32.0841 30.0482C31.7305 29.6937 31.2796 29.4521 30.7886 29.3542C30.2976 29.2562 29.7886 29.3061 29.326 29.4978C28.8634 29.6894 28.4682 30.014 28.1903 30.4305C27.9124 30.847 27.7644 31.3366 27.7651 31.8373C27.7651 32.5088 28.0323 33.1517 28.5058 33.6264L30.4106 35.5312C28.641 36.4469 26.6023 36.6996 24.6627 36.2436C22.7231 35.7875 21.0105 34.6529 19.8343 33.0447C18.6581 31.4364 18.0958 29.4605 18.2491 27.4739C18.4023 25.4873 19.2609 23.621 20.6698 22.2121C22.0787 20.8032 23.945 19.9446 25.9316 19.7914C27.9181 19.6382 29.894 20.2005 31.5023 21.3767C33.1106 22.5529 34.2452 24.2655 34.7012 26.2051C35.1572 28.1447 34.9046 30.1834 33.9889 31.953Z" fill="#F1A141"/>
<path d="M40.1446 36.5665L37.4657 33.8876C38.9213 31.7261 39.6968 29.1785 39.6926 26.5725C39.6926 19.3266 33.8183 13.4523 26.5724 13.4523C19.3264 13.4523 13.4521 19.3266 13.4521 26.5725C13.4521 33.8185 19.3264 39.6927 26.5724 39.6927C29.2811 39.6927 31.7978 38.8721 33.8875 37.4659L36.5664 40.1448C36.92 40.4993 37.3708 40.7408 37.8618 40.8388C38.3528 40.9368 38.8619 40.8868 39.3244 40.6952C39.787 40.5036 40.1823 40.179 40.4602 39.7625C40.738 39.346 40.886 38.8564 40.8853 38.3557C40.8853 37.6842 40.6182 37.0413 40.1446 36.5665ZM33.9889 30.4108L32.0841 28.506C31.7305 28.1515 31.2796 27.9099 30.7886 27.8119C30.2976 27.7139 29.7886 27.7639 29.326 27.9555C28.8634 28.1472 28.4682 28.4718 28.1903 28.8883C27.9124 29.3048 27.7644 29.7944 27.7651 30.2951C27.7651 30.9666 28.0323 31.6095 28.5058 32.0842L30.4106 33.989C28.641 34.9047 26.6023 35.1574 24.6627 34.7013C22.7231 34.2453 21.0105 33.1107 19.8343 31.5024C18.6581 29.8942 18.0958 27.9183 18.2491 25.9317C18.4023 23.9451 19.2609 22.0788 20.6698 20.6699C22.0787 19.261 23.945 18.4024 25.9316 18.2492C27.9181 18.096 29.894 18.6583 31.5023 19.8345C33.1106 21.0107 34.2452 22.7233 34.7012 24.6628C35.1572 26.6024 34.9046 28.6412 33.9889 30.4108Z" fill="#EDF4FA"/>
<path d="M61.0847 60.1937L57.4933 44.5162C56.7145 41.1145 53.791 38.7147 50.4275 38.7147C49.4172 38.7147 48.4463 38.9318 47.5613 39.3266L43.24 45.047L39.7703 60.1949C39.3528 62.015 40.6816 63.7636 42.4814 63.7636C43.7744 63.7636 44.8979 62.8392 45.1949 61.5296L46.0394 57.7998H54.8156L55.6601 61.5296C55.9559 62.838 57.0794 63.7636 58.3736 63.7636C60.1746 63.7636 61.5022 62.015 61.0847 60.1937ZM47.1188 53.0277L49.0165 44.6462C49.1703 43.9664 49.7548 43.4857 50.4263 43.4857C51.0978 43.4857 51.6823 43.9664 51.8361 44.6462L53.7338 53.0277H47.1176H47.1188Z" fill="#355485"/>
<path d="M61.0847 58.7862L57.4933 43.1088C56.7145 39.7071 53.791 37.3073 50.4275 37.3073C49.4172 37.3073 48.4463 37.5243 47.5613 37.9191L43.24 43.6395L39.7703 58.7874C39.3528 60.6076 40.6816 62.3561 42.4814 62.3561C43.7744 62.3561 44.8979 61.4317 45.1949 60.1221L46.0394 56.3924H54.8156L55.6601 60.1221C55.9559 61.4306 57.0794 62.3561 58.3736 62.3561C60.1746 62.3561 61.5022 60.6076 61.0847 58.7862ZM47.1188 51.6202L49.0165 43.2388C49.1703 42.5589 49.7548 42.0782 50.4263 42.0782C51.0978 42.0782 51.6823 42.5589 51.8361 43.2388L53.7338 51.6202H47.1176H47.1188Z" fill="#EDF4FA"/>
</svg>
