<svg width="77" height="77" viewBox="0 0 77 77" fill="none" xmlns="http://www.w3.org/2000/svg">
<path d="M23.6069 37.2386V28.6201C23.6069 20.4608 30.2223 13.8455 38.3815 13.8455C46.5408 13.8455 53.1562 20.4608 53.1562 28.6201V37.2386H23.6069Z" fill="#D3A06C"/>
<path d="M38.3811 13.8455C37.965 13.8455 37.5574 13.8738 37.1499 13.907C44.7317 14.535 50.6933 20.8757 50.6933 28.6201V37.2386H53.1557V28.6201C53.1557 20.4608 46.5404 13.8455 38.3811 13.8455Z" fill="#B27946"/>
<path d="M33.4565 65.5566H60.5433L58.2323 58.6249C57.8134 57.3685 57.0646 56.2479 56.0641 55.3802C55.0636 54.5124 53.8483 53.9296 52.5453 53.6926L43.3063 52.0132H33.4565L24.2162 53.6926C22.9132 53.9296 21.6979 54.5124 20.6974 55.3801C19.6969 56.2478 18.9481 57.3685 18.5292 58.6249L17.4507 63.5264V65.5566H33.4565Z" fill="#92E0C0"/>
<path d="M33.4567 48.3196V52.0132L38.3815 56.9381L43.3064 52.0132V48.3196H33.4567ZM48.2313 33.545H49.4625C51.5026 33.545 53.1562 35.1985 53.1562 37.2386C53.1562 39.2787 51.5026 40.9323 49.4625 40.9323H48.2313V33.545ZM28.5318 33.545H27.3006C25.2605 33.545 23.6069 35.1985 23.6069 37.2386C23.6069 39.2787 25.2605 40.9323 27.3006 40.9323H28.5318V33.545Z" fill="#F9E0A6"/>
<path d="M27.3003 32.3137V39.701C27.3003 45.8214 32.2609 50.782 38.3813 50.782C44.5016 50.782 49.4622 45.8214 49.4622 39.701V32.3137C45.5203 32.3135 41.7399 30.7475 38.9525 27.9602L38.3813 27.3889L37.81 27.9602C35.0226 30.7475 31.2422 32.3135 27.3003 32.3137Z" fill="#F9E0A6"/>
<path d="M46.9996 39.7011C46.9996 45.4041 42.6892 50.0962 37.1499 50.7094C37.555 50.7549 37.965 50.782 38.3811 50.782C44.5015 50.782 49.4621 45.8214 49.4621 39.7011V32.3137C48.631 32.3137 47.8086 32.2288 46.9996 32.0934V39.7011Z" fill="#EABD8C"/>
<path d="M55.6182 1.53329H72.8552C74.2157 1.53329 75.3177 2.63523 75.3177 3.99573V13.8455C75.3177 15.206 74.2157 16.3079 72.8552 16.3079H69.1616L59.3119 22.464L60.367 16.3079H55.6182C54.2577 16.3079 53.1558 15.206 53.1558 13.8455V3.99573C53.1558 2.63523 54.2577 1.53329 55.6182 1.53329Z" fill="#ECECEC"/>
<path d="M55.2083 65.5566H60.5432L58.2322 58.6249C57.8133 57.3685 57.0645 56.2479 56.064 55.3802C55.0635 54.5124 53.8482 53.9296 52.5452 53.6926L43.3062 52.0132L52.1648 56.9344C52.8519 57.3161 53.4377 57.8567 53.8731 58.5111C54.3086 59.1655 54.5811 59.9146 54.6678 60.6958L55.2083 65.5566Z" fill="#48C397"/>
<path d="M28.5316 61.2289L24.1165 65.2217C23.1549 66.1833 21.5962 66.1833 20.6346 65.2217L11.8043 56.3915C10.8427 55.4299 10.8427 53.8711 11.8043 52.9096L15.7972 48.9167L8.40985 41.5294L3.78416 46.1551C0.899419 49.0398 0.899419 53.7172 3.78416 56.602L20.4241 73.2419C23.3088 76.1266 27.9862 76.1266 30.871 73.2419L35.919 68.6162L28.5316 61.2289Z" fill="#FB5968"/>
<path d="M59.4009 58.2358C58.9122 56.7701 58.0385 55.4628 56.8712 54.4506C55.7039 53.4384 54.286 52.7586 52.7659 52.4823L44.5377 50.9852V50.3474C45.9696 49.5163 47.2156 48.4045 48.2079 47.0884H50.6938C52.7302 47.0884 54.3874 45.4311 54.3874 43.3947V28.6201C54.3874 19.7947 47.2069 12.6143 38.3816 12.6143C29.5562 12.6143 22.3757 19.7947 22.3757 28.6201V37.2386C22.3757 39.6124 24.0637 41.5984 26.3021 42.0613C26.9928 45.5998 29.2041 48.5941 32.2255 50.3474V50.9852L23.996 52.4823C22.4761 52.7586 21.0583 53.4385 19.8913 54.4507C18.7242 55.4629 17.8507 56.7702 17.3622 58.2358L16.8697 59.7145L12.6762 55.521C12.196 55.0408 12.196 54.259 12.6762 53.7788L17.5395 48.9167L8.41127 39.7885L2.91511 45.2846C1.28744 46.9123 0.391113 49.0768 0.391113 51.3792C0.391113 53.6815 1.28744 55.8448 2.91511 57.4725L19.555 74.1124C21.1827 75.74 23.3472 76.6376 25.6495 76.6376C27.9519 76.6376 30.1152 75.74 31.7047 74.1493L37.7019 68.6544L35.8317 66.7878H62.2512L59.4009 58.2358ZM38.3816 55.1972L34.6879 51.5035V51.4456C35.883 51.8219 37.1286 52.0134 38.3816 52.0132C39.6682 52.0132 40.908 51.8125 42.0752 51.4456V51.5035L38.3816 55.1972ZM50.6938 44.6259H49.6583C50.0193 43.8031 50.2885 42.9431 50.461 42.0613C50.988 41.9517 51.4731 41.7424 51.925 41.4789V43.3947C51.925 44.0743 51.3722 44.6259 50.6938 44.6259ZM50.6938 35.1185C51.4263 35.5457 51.925 36.3312 51.925 37.2386C51.925 38.146 51.4263 38.9315 50.6938 39.3588V35.1185ZM24.8382 37.2386C24.8382 36.3312 25.3368 35.5457 26.0694 35.1185V39.3588C25.3368 38.9315 24.8382 38.146 24.8382 37.2386ZM26.0694 31.0825V32.4886C25.6376 32.6014 25.2234 32.7729 24.8382 32.9983V28.6201C24.8382 21.1528 30.9142 15.0767 38.3816 15.0767C45.8489 15.0767 51.925 21.1528 51.925 28.6201V32.9983C51.54 32.7724 51.1257 32.6009 50.6938 32.4886V31.0825H49.4625C45.8218 31.0825 42.399 29.6642 39.8233 27.0897L38.3816 25.6479L36.9398 27.0897C34.3641 29.6642 30.9413 31.0825 27.3006 31.0825H26.0694ZM28.5318 39.7011V33.4982C32.2292 33.2199 35.6766 31.6944 38.3816 29.1224C41.0866 31.6944 44.534 33.2212 48.2313 33.4982V39.7011C48.2313 41.4962 47.7413 43.1756 46.8991 44.6259H38.3816V47.0884H44.875C43.139 48.6163 40.8699 49.5508 38.3816 49.5508C32.9507 49.5508 28.5318 45.132 28.5318 39.7011ZM14.0564 48.9167L12.7193 50.2538L7.07293 44.6075L8.41003 43.2704L14.0564 48.9167ZM25.6471 74.1752C24.0034 74.1752 22.457 73.5337 21.2935 72.3714L4.65359 55.7327C3.49132 54.5705 2.85109 53.0241 2.85109 51.3804C2.85109 49.7355 3.49132 48.1891 4.65359 47.0268L5.33076 46.3496L10.9771 51.996L10.9328 52.0403C9.49351 53.4808 9.49351 55.8239 10.9328 57.2644L19.7619 66.0934C20.46 66.7903 21.3871 67.1757 22.3745 67.1757C23.3619 67.1757 24.2891 66.7915 24.9416 66.1365L25.0339 66.054L30.7062 71.7263L29.9994 72.3739C28.8372 73.5337 27.2908 74.1752 25.6471 74.1752ZM32.5234 70.0592L26.8635 64.3993L28.49 62.9292L34.14 68.5793L32.5234 70.0592ZM33.3693 64.3254L28.5737 59.5298L23.245 64.35C22.7808 64.8167 21.9694 64.8167 21.504 64.35L18.8151 61.6611L19.6966 59.0139C20.0457 57.9669 20.6697 57.0329 21.5033 56.3097C22.337 55.5865 23.3498 55.1006 24.4356 54.9029L33.0418 53.3393L38.3816 58.6791L43.7201 53.3405L52.3251 54.9041C53.411 55.1016 54.4238 55.5874 55.2576 56.3107C56.0913 57.0339 56.7152 57.968 57.0641 59.0152L58.8358 64.3254H33.3693ZM72.8557 0.302078H55.6186C53.5822 0.302078 51.925 1.9593 51.925 3.99573V13.8455C51.925 15.8819 53.5822 17.5391 55.6186 17.5391H58.9072L57.6341 24.9646L69.5154 17.5391H72.8557C74.8921 17.5391 76.5493 15.8819 76.5493 13.8455V3.99573C76.5493 1.9593 74.8921 0.302078 72.8557 0.302078ZM74.0869 13.8455C74.0869 14.5239 73.5341 15.0767 72.8557 15.0767H68.8087L60.9892 19.9634L61.8277 15.0767H55.6186C54.9402 15.0767 54.3874 14.5239 54.3874 13.8455V3.99573C54.3874 3.31733 54.9402 2.76451 55.6186 2.76451H72.8557C73.5341 2.76451 74.0869 3.31733 74.0869 3.99573V13.8455Z" fill="black"/>
<path d="M56.8496 5.22695H71.6242V7.68938H56.8496V5.22695ZM56.8496 10.1518H66.6994V12.6143H56.8496V10.1518ZM69.1618 10.1518H71.6242V12.6143H69.1618V10.1518ZM11.9286 30.9065L10.6617 28.7949L7.3251 30.7969C10.8144 16.5972 23.5833 6.45816 38.3813 6.45816C41.6157 6.45816 44.8071 6.93834 47.8666 7.88638L48.5955 5.53475C45.2996 4.51284 41.8632 3.99573 38.3813 3.99573C22.2942 3.99573 8.43689 15.1235 4.83435 30.6454L2.50119 26.756L0.389648 28.0229L4.71738 35.2342L11.9286 30.9065ZM64.413 30.4485L66.5245 31.7154L68.6792 28.1239C69.8131 31.442 70.393 34.9128 70.393 38.4698C70.393 45.7919 67.8567 52.9502 63.2532 58.6249L65.1653 60.1762C70.1246 54.0644 72.8554 46.3546 72.8554 38.4698C72.8554 34.7035 72.2485 31.0259 71.0653 27.5046L74.6838 29.6752L75.9507 27.5637L68.7395 23.236L64.413 30.4485Z" fill="black"/>
</svg>
