<svg width="77" height="77" viewBox="0 0 77 77" fill="none" xmlns="http://www.w3.org/2000/svg">
<path d="M45.6246 52.2404C57.7102 52.2404 67.5076 42.4431 67.5076 30.3575C67.5076 18.2719 57.7102 8.47456 45.6246 8.47456C33.539 8.47456 23.7417 18.2719 23.7417 30.3575C23.7417 42.4431 33.539 52.2404 45.6246 52.2404Z" fill="#FFE5D2"/>
<path d="M37.9912 43.0801V36.2071C37.9912 34.3313 39.4251 32.7346 41.4291 32.1364C43.1899 31.6107 44.9612 31.1097 46.6197 30.389L50.2049 28.8308L53.7902 30.3888C55.4487 31.1094 57.22 31.6107 58.9808 32.1361C60.9848 32.7343 62.4187 34.331 62.4187 36.2069V43.0801H37.9912Z" fill="#A9BA5A"/>
<path d="M62.4187 44.0979H37.9912C37.7213 44.0979 37.4624 43.9907 37.2715 43.7998C37.0806 43.609 36.9734 43.3501 36.9734 43.0801V36.2069C36.9734 33.9323 38.6472 31.9046 41.138 31.1611L41.649 31.0089C43.2551 30.5323 44.7724 30.0814 46.2141 29.4555L49.7993 27.8974C49.9273 27.8419 50.0654 27.8133 50.2049 27.8133C50.3445 27.8133 50.4825 27.8419 50.6105 27.8974L54.1958 29.4555C55.6375 30.0817 57.1548 30.5323 58.7609 31.0089L59.2713 31.1605C61.7627 31.9046 63.4365 33.9323 63.4365 36.2069V43.0801C63.4365 43.3501 63.3292 43.609 63.1384 43.7998C62.9475 43.9907 62.6886 44.0979 62.4187 44.0979ZM39.009 42.0623H61.4009V36.2069C61.4009 34.8397 60.311 33.5957 58.6894 33.1112L58.1815 32.9605C56.5876 32.4875 54.9398 31.998 53.3846 31.3221L50.2049 29.9404L47.0253 31.3221C45.4703 31.998 43.8222 32.4875 42.2283 32.9605L41.72 33.1117C40.0988 33.5957 39.009 34.8397 39.009 36.2069V42.0623Z" fill="#4C241D"/>
<path d="M10.5103 52.2404V45.3674C10.5103 43.4916 11.5856 41.8949 13.0886 41.2967C14.4092 40.771 15.7377 40.27 16.9818 39.5494L19.6706 37.9911L22.3594 39.5491C23.6031 40.2697 24.9316 40.771 26.2525 41.2964C27.7555 41.8947 28.8309 43.4913 28.8309 45.3672V52.2404H10.5103Z" fill="#BD53B5"/>
<path d="M28.8308 53.2583H10.5102C10.2403 53.2583 9.98142 53.151 9.79054 52.9601C9.59967 52.7693 9.49243 52.5104 9.49243 52.2404V45.3672C9.49243 43.1333 10.7861 41.1176 12.7118 40.3506L13.0945 40.199C14.2863 39.7272 15.4123 39.2819 16.4713 38.6682L19.1599 37.1102C19.3149 37.0203 19.491 36.9729 19.6703 36.9729C19.8495 36.9729 20.0256 37.0203 20.1807 37.1102L22.8693 38.6682C23.9283 39.2819 25.0545 39.7272 26.2461 40.199L26.6283 40.3506C28.5545 41.1176 29.8481 43.1333 29.8481 45.3672V52.2404C29.8482 52.3741 29.822 52.5064 29.7709 52.6299C29.7198 52.7534 29.6449 52.8657 29.5504 52.9602C29.456 53.0547 29.3438 53.1297 29.2203 53.1808C29.0968 53.232 28.9645 53.2583 28.8308 53.2583ZM11.5281 51.2226H27.813V45.3672C27.813 43.9593 27.0347 42.7033 25.8759 42.2422L25.4978 42.0921C24.2891 41.614 23.0392 41.1191 21.8489 40.4298L19.6705 39.1674L17.4922 40.4298C16.3018 41.1191 15.052 41.614 13.8433 42.0921L13.4647 42.2422C12.3064 42.7036 11.5281 43.9593 11.5281 45.3672V51.2226Z" fill="#4C241D"/>
<path d="M50.2048 31.8842C49.6649 31.8842 49.1472 31.6698 48.7654 31.288C48.3837 30.9062 48.1692 30.3885 48.1692 29.8486V26.7952H52.2404V29.8486C52.2404 30.3885 52.026 30.9062 51.6442 31.288C51.2625 31.6698 50.7447 31.8842 50.2048 31.8842Z" fill="#E7D1C4"/>
<path d="M50.2048 32.902C48.5211 32.902 47.1514 31.5323 47.1514 29.8486V26.7952C47.1514 26.5252 47.2586 26.2663 47.4495 26.0755C47.6404 25.8846 47.8992 25.7774 48.1692 25.7774H52.2404C52.5104 25.7774 52.7692 25.8846 52.9601 26.0755C53.151 26.2663 53.2582 26.5252 53.2582 26.7952V29.8486C53.2582 31.5323 51.8885 32.902 50.2048 32.902ZM49.187 27.813V29.8486C49.187 30.4097 49.6437 30.8664 50.2048 30.8664C50.7659 30.8664 51.2226 30.4097 51.2226 29.8486V27.813H49.187Z" fill="#4C241D"/>
<path d="M28.8309 34.9377H10.5103V23.7C10.5103 19.2262 14.1372 15.5992 18.611 15.5992H20.7301C25.2039 15.5992 28.8309 19.2262 28.8309 23.7V34.9377Z" fill="#FFCE56"/>
<path d="M28.8308 35.9555H10.5102C10.2403 35.9555 9.98142 35.8482 9.79054 35.6574C9.59967 35.4665 9.49243 35.2076 9.49243 34.9377V23.7C9.49243 18.672 13.583 14.5814 18.611 14.5814H20.7301C25.7581 14.5814 29.8487 18.672 29.8487 23.7V34.9377C29.8487 35.2076 29.7414 35.4665 29.5505 35.6574C29.3597 35.8482 29.1008 35.9555 28.8308 35.9555ZM11.5281 33.9198H27.813V23.7C27.813 19.7942 24.6359 16.6171 20.7301 16.6171H18.611C14.7052 16.6171 11.5281 19.7942 11.5281 23.7V33.9198Z" fill="#4C241D"/>
<path d="M52.7493 26.7952H47.6602C45.1307 26.7952 43.0801 24.7445 43.0801 22.215V9.49237H52.7493C55.2788 9.49237 57.3294 11.543 57.3294 14.0725V22.215C57.3294 24.7445 55.2788 26.7952 52.7493 26.7952Z" fill="#E7D1C4"/>
<path d="M52.7495 27.813H47.6605C44.5737 27.813 42.0625 25.3018 42.0625 22.215V9.49237C42.0625 9.22243 42.1697 8.96355 42.3606 8.77267C42.5515 8.5818 42.8104 8.47456 43.0803 8.47456H52.7495C55.8363 8.47456 58.3475 10.9858 58.3475 14.0725V22.215C58.3475 25.3018 55.8363 27.813 52.7495 27.813ZM44.0981 10.5102V22.215C44.0981 24.1791 45.6963 25.7773 47.6605 25.7773H52.7495C54.7136 25.7773 56.3119 24.1791 56.3119 22.215V14.0725C56.3119 12.1084 54.7136 10.5102 52.7495 10.5102H44.0981Z" fill="#4C241D"/>
<path d="M25.7775 22.7239V31.3753C25.7775 33.9048 23.7268 35.9555 21.1973 35.9555H18.1439C15.6144 35.9555 13.5637 33.9048 13.5637 31.3753V22.7239" fill="#E7D1C4"/>
<path d="M21.1973 36.9733H18.1439C15.0571 36.9733 12.5459 34.4621 12.5459 31.3753V22.7239C12.5459 22.454 12.6531 22.1951 12.844 22.0042C13.0349 21.8133 13.2938 21.7061 13.5637 21.7061C13.8336 21.7061 14.0925 21.8133 14.2834 22.0042C14.4743 22.1951 14.5815 22.454 14.5815 22.7239V31.3753C14.5815 33.3394 16.1797 34.9377 18.1439 34.9377H21.1973C23.1614 34.9377 24.7596 33.3394 24.7596 31.3753V22.7239C24.7596 22.454 24.8669 22.1951 25.0577 22.0042C25.2486 21.8133 25.5075 21.7061 25.7774 21.7061C26.0474 21.7061 26.3063 21.8133 26.4971 22.0042C26.688 22.1951 26.7953 22.454 26.7953 22.7239V31.3753C26.7953 34.4621 24.2841 36.9733 21.1973 36.9733Z" fill="#4C241D"/>
<path d="M51.6409 14.5814H48.5607C44.4098 14.5814 41.0447 11.8473 41.0447 8.47456H53.1052C55.4383 8.47456 57.3297 10.0112 57.3297 11.9069V14.5814" fill="#6B4F5B"/>
<path d="M57.3296 15.5992C57.0597 15.5992 56.8008 15.492 56.6099 15.3011C56.4191 15.1103 56.3118 14.8514 56.3118 14.5814V11.9066C56.3118 10.5753 54.8737 9.49238 53.1052 9.49238H42.193C42.7968 11.8122 45.4223 13.5636 48.5607 13.5636H51.6406C51.9105 13.5636 52.1694 13.6709 52.3603 13.8617C52.5512 14.0526 52.6584 14.3115 52.6584 14.5814C52.6584 14.8514 52.5512 15.1103 52.3603 15.3011C52.1694 15.492 51.9105 15.5992 51.6406 15.5992H48.5607C43.8551 15.5992 40.0269 12.4031 40.0269 8.47457C40.0269 8.20463 40.1341 7.94574 40.325 7.75487C40.5158 7.56399 40.7747 7.45676 41.0447 7.45676H53.1052C55.9958 7.45676 58.3475 9.45319 58.3475 11.9066V14.5814C58.3475 14.8514 58.2402 15.1103 58.0493 15.3011C57.8585 15.492 57.5996 15.5992 57.3296 15.5992Z" fill="#4C241D"/>
<path d="M21.7063 39.0089L19.6706 42.0623L17.635 39.0089V35.9555H21.7063V39.0089Z" fill="#E7D1C4"/>
<path d="M19.6706 43.0801C19.5031 43.0802 19.3381 43.0388 19.1904 42.9598C19.0426 42.8807 18.9167 42.7664 18.8238 42.627L16.7882 39.5735C16.6767 39.4063 16.6172 39.2099 16.6172 39.0089V35.9555C16.6172 35.6855 16.7244 35.4266 16.9153 35.2358C17.1062 35.0449 17.3651 34.9377 17.635 34.9377H21.7062C21.9762 34.9377 22.2351 35.0449 22.4259 35.2358C22.6168 35.4266 22.7241 35.6855 22.7241 35.9555V39.0089C22.7241 39.2097 22.6645 39.4064 22.5531 39.5735L20.5174 42.627C20.4245 42.7664 20.2986 42.8807 20.1509 42.9598C20.0031 43.0388 19.8382 43.0802 19.6706 43.0801ZM18.6528 38.7008L19.6706 40.2275L20.6884 38.7008V36.9733H18.6528V38.7008Z" fill="#4C241D"/>
<path d="M12.5459 22.7239H16.6171C17.84 22.7239 18.9243 22.1735 19.6706 21.3199C20.4169 22.1735 21.5011 22.7239 22.724 22.7239H26.7953" fill="#FFCE56"/>
<path d="M26.7952 23.7417H22.724C21.6181 23.7417 20.5482 23.3725 19.6706 22.7056C18.793 23.3725 17.723 23.7417 16.6171 23.7417H12.5459C12.2759 23.7417 12.0171 23.6345 11.8262 23.4436C11.6353 23.2527 11.5281 22.9939 11.5281 22.7239C11.5281 22.454 11.6353 22.1951 11.8262 22.0042C12.0171 21.8133 12.2759 21.7061 12.5459 21.7061H16.6171C17.4963 21.7061 18.3087 21.3308 18.9047 20.6501C19.2904 20.2079 20.0507 20.2079 20.4365 20.6501C21.0324 21.3308 21.8449 21.7061 22.724 21.7061H26.7952C27.0652 21.7061 27.3241 21.8133 27.5149 22.0042C27.7058 22.1951 27.8131 22.454 27.8131 22.7239C27.8131 22.9939 27.7058 23.2527 27.5149 23.4436C27.3241 23.6345 27.0652 23.7417 26.7952 23.7417Z" fill="#4C241D"/>
<path d="M57.3296 44.098C57.0597 44.098 56.8008 43.9907 56.6099 43.7998C56.419 43.609 56.3118 43.3501 56.3118 43.0801V37.9911C56.3118 37.7212 56.419 37.4623 56.6099 37.2714C56.8008 37.0805 57.0597 36.9733 57.3296 36.9733C57.5995 36.9733 57.8584 37.0805 58.0493 37.2714C58.2402 37.4623 58.3474 37.7212 58.3474 37.9911V43.0801C58.3474 43.3501 58.2402 43.609 58.0493 43.7998C57.8584 43.9907 57.5995 44.098 57.3296 44.098ZM43.0802 44.098C42.8103 44.098 42.5514 43.9907 42.3605 43.7998C42.1697 43.609 42.0624 43.3501 42.0624 43.0801V37.9911C42.0624 37.7212 42.1697 37.4623 42.3605 37.2714C42.5514 37.0805 42.8103 36.9733 43.0802 36.9733C43.3502 36.9733 43.6091 37.0805 43.7999 37.2714C43.9908 37.4623 44.0981 37.7212 44.0981 37.9911V43.0801C44.0981 43.3501 43.9908 43.609 43.7999 43.7998C43.6091 43.9907 43.3502 44.098 43.0802 44.098ZM24.7596 53.2583C24.4897 53.2583 24.2308 53.151 24.0399 52.9601C23.8491 52.7693 23.7418 52.5104 23.7418 52.2404V48.1692C23.7418 47.8993 23.8491 47.6404 24.0399 47.4495C24.2308 47.2586 24.4897 47.1514 24.7596 47.1514C25.0296 47.1514 25.2885 47.2586 25.4793 47.4495C25.6702 47.6404 25.7775 47.8993 25.7775 48.1692V52.2404C25.7775 52.5104 25.6702 52.7693 25.4793 52.9601C25.2885 53.151 25.0296 53.2583 24.7596 53.2583ZM14.5815 53.2583C14.3116 53.2583 14.0527 53.151 13.8618 52.9601C13.671 52.7693 13.5637 52.5104 13.5637 52.2404V48.1692C13.5637 47.8993 13.671 47.6404 13.8618 47.4495C14.0527 47.2586 14.3116 47.1514 14.5815 47.1514C14.8515 47.1514 15.1104 47.2586 15.3012 47.4495C15.4921 47.6404 15.5993 47.8993 15.5993 48.1692V52.2404C15.5993 52.5104 15.4921 52.7693 15.3012 52.9601C15.1104 53.151 14.8515 53.2583 14.5815 53.2583Z" fill="#4C241D"/>
<path d="M10.5441 14.6771C11.1212 14.6771 11.5891 14.2092 11.5891 13.6321C11.5891 13.0549 11.1212 12.587 10.5441 12.587C9.9669 12.587 9.49902 13.0549 9.49902 13.6321C9.49902 14.2092 9.9669 14.6771 10.5441 14.6771Z" fill="#4C241D"/>
<path d="M33.9199 68.5254C35.6063 68.5254 36.9733 67.1583 36.9733 65.472C36.9733 63.7856 35.6063 62.4185 33.9199 62.4185C32.2335 62.4185 30.8665 63.7856 30.8665 65.472C30.8665 67.1583 32.2335 68.5254 33.9199 68.5254Z" fill="#E66353"/>
<path d="M33.9199 69.5432C31.6751 69.5432 29.8486 67.7168 29.8486 65.472C29.8486 63.2272 31.6751 61.4007 33.9199 61.4007C36.1647 61.4007 37.9911 63.2272 37.9911 65.472C37.9911 67.7168 36.1647 69.5432 33.9199 69.5432ZM33.9199 63.4364C32.7972 63.4364 31.8843 64.3493 31.8843 65.472C31.8843 66.5946 32.7972 67.5076 33.9199 67.5076C35.0425 67.5076 35.9555 66.5946 35.9555 65.472C35.9555 64.3493 35.0425 63.4364 33.9199 63.4364Z" fill="#4C241D"/>
<path d="M34.4288 24.3852C35.0652 24.3852 35.5812 23.8693 35.5812 23.2328C35.5812 22.5964 35.0652 22.0804 34.4288 22.0804C33.7923 22.0804 33.2764 22.5964 33.2764 23.2328C33.2764 23.8693 33.7923 24.3852 34.4288 24.3852Z" fill="#4C241D"/>
<path d="M50.205 59.3651H19.6706C19.4007 59.3651 19.1418 59.2579 18.9509 59.067C18.7601 58.8761 18.6528 58.6172 18.6528 58.3473V55.2939C18.6528 55.0239 18.7601 54.765 18.9509 54.5742C19.1418 54.3833 19.4007 54.2761 19.6706 54.2761C19.9406 54.2761 20.1995 54.3833 20.3903 54.5742C20.5812 54.765 20.6885 55.0239 20.6885 55.2939V57.3295H49.1872V46.1336C49.1872 45.8636 49.2944 45.6047 49.4853 45.4139C49.6761 45.223 49.935 45.1158 50.205 45.1158C50.4749 45.1158 50.7338 45.223 50.9247 45.4139C51.1156 45.6047 51.2228 45.8636 51.2228 46.1336V58.3473C51.2228 58.6172 51.1156 58.8761 50.9247 59.067C50.7338 59.2579 50.4749 59.3651 50.205 59.3651Z" fill="#4C241D"/>
<path d="M33.92 63.4364C33.6501 63.4364 33.3912 63.3291 33.2003 63.1382C33.0094 62.9474 32.9022 62.6885 32.9022 62.4185V58.3473C32.9022 58.0774 33.0094 57.8185 33.2003 57.6276C33.3912 57.4367 33.6501 57.3295 33.92 57.3295C34.1899 57.3295 34.4488 57.4367 34.6397 57.6276C34.8306 57.8185 34.9378 58.0774 34.9378 58.3473V62.4185C34.9378 62.6885 34.8306 62.9474 34.6397 63.1382C34.4488 63.3291 34.1899 63.4364 33.92 63.4364ZM30.0147 13.9066C29.8134 13.9066 29.6167 13.8469 29.4493 13.735C29.282 13.6232 29.1516 13.4642 29.0745 13.2783C28.9975 13.0923 28.9774 12.8877 29.0166 12.6903C29.0559 12.4929 29.1528 12.3116 29.2951 12.1692L33.0343 8.43003C33.1281 8.33282 33.2405 8.25528 33.3646 8.20194C33.4888 8.1486 33.6224 8.12052 33.7575 8.11935C33.8927 8.11817 34.0267 8.14392 34.1518 8.1951C34.2768 8.24628 34.3905 8.32185 34.4861 8.41742C34.5816 8.51298 34.6572 8.62662 34.7084 8.75171C34.7595 8.87679 34.7853 9.01082 34.7841 9.14596C34.783 9.28111 34.7549 9.41466 34.7015 9.53884C34.6482 9.66302 34.5707 9.77533 34.4734 9.86922L30.7343 13.6084C30.6399 13.7031 30.5277 13.7781 30.4042 13.8293C30.2807 13.8805 30.1483 13.9068 30.0147 13.9066Z" fill="#4C241D"/>
<path d="M33.7539 13.9066C33.6202 13.9068 33.4878 13.8805 33.3643 13.8293C33.2408 13.7781 33.1287 13.7031 33.0343 13.6084L29.2949 9.86897C29.1976 9.77508 29.1201 9.66277 29.0668 9.5386C29.0134 9.41442 28.9853 9.28086 28.9842 9.14572C28.983 9.01057 29.0087 8.87655 29.0599 8.75147C29.1111 8.62638 29.1867 8.51274 29.2822 8.41717C29.3778 8.32161 29.4914 8.24603 29.6165 8.19486C29.7416 8.14368 29.8756 8.11793 30.0108 8.1191C30.1459 8.12028 30.2795 8.14835 30.4037 8.2017C30.5278 8.25504 30.6402 8.33258 30.734 8.42979L34.4732 12.169C34.664 12.3598 34.7712 12.6187 34.7712 12.8886C34.7712 13.1585 34.664 13.4173 34.4732 13.6082C34.3789 13.7029 34.2668 13.7781 34.1434 13.8293C34.0199 13.8805 33.8876 13.9068 33.7539 13.9066Z" fill="#4C241D"/>
</svg>
