<svg width="173" height="174" viewBox="0 0 173 174" fill="none" xmlns="http://www.w3.org/2000/svg">
<circle cx="86.8229" cy="87.3229" r="49.778" stroke="#F1A141" stroke-width="0.5"/>
<circle cx="86.4996" cy="86.9998" r="68.1754" stroke="#FFBE51" stroke-opacity="0.6" stroke-width="0.5"/>
<circle cx="86.5" cy="87" r="86.25" stroke="#FFBE51" stroke-opacity="0.2" stroke-width="0.5"/>
<g clip-path="url(#clip0_987_1076)">
<path d="M73.1484 85.8691V78.1437C73.1484 70.83 79.0782 64.9001 86.392 64.9001C93.7058 64.9001 99.6356 70.83 99.6356 78.1437V85.8691H73.1484Z" fill="#D3A06C"/>
<path d="M86.3927 64.9001C86.0197 64.9001 85.6544 64.9255 85.2891 64.9553C92.0852 65.5182 97.429 71.2019 97.429 78.1437V85.8691H99.6363V78.1437C99.6363 70.83 93.7065 64.9001 86.3927 64.9001Z" fill="#B27946"/>
<path d="M81.9781 111.253H106.258L104.186 105.039C103.811 103.913 103.14 102.909 102.243 102.131C101.346 101.353 100.257 100.831 99.0887 100.618L90.8071 99.1128H81.9781L73.6953 100.618C72.5274 100.831 71.438 101.353 70.5412 102.131C69.6443 102.909 68.9731 103.913 68.5976 105.039L67.6309 109.433V111.253H81.9781Z" fill="#92E0C0"/>
<path d="M81.9775 95.8017V99.1126L86.392 103.527L90.8065 99.1126V95.8017H81.9775ZM95.2211 82.5581H96.3247C98.1534 82.5581 99.6356 84.0403 99.6356 85.869C99.6356 87.6977 98.1534 89.1799 96.3247 89.1799H95.2211V82.5581ZM77.563 82.5581H76.4593C74.6306 82.5581 73.1484 84.0403 73.1484 85.869C73.1484 87.6977 74.6306 89.1799 76.4593 89.1799H77.563V82.5581Z" fill="#F9E0A6"/>
<path d="M76.459 81.4546V88.0763C76.459 93.5625 80.9055 98.009 86.3917 98.009C91.8778 98.009 96.3243 93.5625 96.3243 88.0763V81.4546C92.7909 81.4544 89.4023 80.0506 86.9037 77.5521L86.3917 77.04L85.8796 77.5521C83.3811 80.0506 79.9924 81.4544 76.459 81.4546Z" fill="#F9E0A6"/>
<path d="M94.1181 88.0764C94.1181 93.1884 90.2543 97.3944 85.2891 97.944C85.6522 97.9848 86.0197 98.0091 86.3927 98.0091C91.8788 98.0091 96.3254 93.5626 96.3254 88.0764V81.4546C95.5804 81.4546 94.8432 81.3785 94.1181 81.2571V88.0764Z" fill="#EABD8C"/>
<path d="M101.844 53.8638H117.295C118.514 53.8638 119.502 54.8515 119.502 56.071V64.9001C119.502 66.1196 118.514 67.1073 117.295 67.1073H113.984L105.155 72.6255L106.101 67.1073H101.844C100.624 67.1073 99.6367 66.1196 99.6367 64.9001V56.071C99.6367 54.8515 100.624 53.8638 101.844 53.8638Z" fill="#ECECEC"/>
<path d="M101.477 111.253H106.259L104.188 105.039C103.812 103.913 103.141 102.909 102.244 102.131C101.348 101.353 100.258 100.831 99.0902 100.618L90.8086 99.1128L98.7492 103.524C99.3651 103.866 99.8902 104.351 100.281 104.937C100.671 105.524 100.915 106.195 100.993 106.896L101.477 111.253Z" fill="#48C397"/>
<path d="M77.5637 107.373L73.6061 110.952C72.7442 111.814 71.347 111.814 70.4851 110.952L62.5698 103.037C61.7079 102.175 61.7079 100.778 62.5698 99.9162L66.1489 96.3371L59.5271 89.7153L55.3808 93.8617C52.795 96.4475 52.795 100.64 55.3808 103.226L70.2963 118.142C72.8821 120.727 77.0748 120.727 79.6606 118.142L84.1855 113.995L77.5637 107.373Z" fill="#FB5968"/>
<path d="M105.235 104.69C104.797 103.377 104.013 102.205 102.967 101.298C101.921 100.39 100.65 99.7809 99.2872 99.5332L91.9116 98.1912V97.6195C93.1951 96.8746 94.312 95.878 95.2015 94.6982H97.4298C99.2552 94.6982 100.741 93.2127 100.741 91.3873V78.1438C100.741 70.2329 94.3043 63.7966 86.3935 63.7966C78.4826 63.7966 72.0463 70.2329 72.0463 78.1438V85.8692C72.0463 87.997 73.5593 89.7771 75.5657 90.1921C76.1849 93.3639 78.167 96.048 80.8753 97.6195V98.1912L73.4986 99.5332C72.1362 99.7809 70.8654 100.39 69.8192 101.298C68.7731 102.205 67.9901 103.377 67.5523 104.69L67.1108 106.016L63.3519 102.257C62.9215 101.827 62.9215 101.126 63.3519 100.695L67.7112 96.3371L59.5289 88.1548L54.6023 93.0814C53.1433 94.5404 52.3398 96.4806 52.3398 98.5444C52.3398 100.608 53.1433 102.547 54.6023 104.006L69.5179 118.922C70.9769 120.381 72.917 121.185 74.9808 121.185C77.0446 121.185 78.9837 120.381 80.4085 118.955L85.7843 114.029L84.1078 112.356H107.79L105.235 104.69ZM86.3935 101.967L83.0826 98.6558V98.604C84.1538 98.9413 85.2704 99.1129 86.3935 99.1127C87.5468 99.1127 88.6581 98.9328 89.7044 98.604V98.6558L86.3935 101.967ZM97.4298 92.491H96.5016C96.8252 91.7534 97.0665 90.9825 97.2212 90.1921C97.6935 90.0939 98.1284 89.9063 98.5334 89.6701V91.3873C98.5334 91.9965 98.0379 92.491 97.4298 92.491ZM97.4298 83.9687C98.0864 84.3517 98.5334 85.0558 98.5334 85.8692C98.5334 86.6825 98.0864 87.3867 97.4298 87.7696V83.9687ZM74.2535 85.8692C74.2535 85.0558 74.7005 84.3517 75.3572 83.9687V87.7696C74.7005 87.3867 74.2535 86.6825 74.2535 85.8692ZM75.3572 80.351V81.6114C74.9701 81.7125 74.5988 81.8663 74.2535 82.0683V78.1438C74.2535 71.4502 79.6999 66.0038 86.3935 66.0038C93.087 66.0038 98.5334 71.4502 98.5334 78.1438V82.0683C98.1884 81.8658 97.817 81.712 97.4298 81.6114V80.351H96.3261C93.0627 80.351 89.9946 79.0796 87.6858 76.7719L86.3935 75.4796L85.1011 76.7719C82.7923 79.0796 79.7242 80.351 76.4608 80.351H75.3572ZM77.5644 88.0764V82.5163C80.8786 82.2669 83.9688 80.8995 86.3935 78.594C88.8181 80.8995 91.9083 82.268 95.2225 82.5163V88.0764C95.2225 89.6855 94.7833 91.1909 94.0284 92.491H86.3935V94.6982H92.214C90.6579 96.0678 88.6239 96.9055 86.3935 96.9055C81.5254 96.9055 77.5644 92.9445 77.5644 88.0764ZM64.589 96.3371L63.3905 97.5357L58.3292 92.4744L59.5278 91.2759L64.589 96.3371ZM74.9786 118.978C73.5053 118.978 72.1191 118.403 71.0762 117.361L56.1606 102.447C55.1188 101.405 54.5449 100.019 54.5449 98.5455C54.5449 97.071 55.1188 95.6849 56.1606 94.643L56.7676 94.036L61.8289 99.0973L61.7891 99.137C60.499 100.428 60.499 102.528 61.7891 103.82L69.7033 111.734C70.329 112.359 71.1601 112.704 72.0452 112.704C72.9303 112.704 73.7613 112.36 74.3462 111.772L74.429 111.699L79.5134 116.783L78.88 117.363C77.8381 118.403 76.452 118.978 74.9786 118.978ZM81.1424 115.289L76.069 110.215L77.5269 108.898L82.5915 113.962L81.1424 115.289ZM81.9006 110.149L77.6019 105.85L72.8254 110.171C72.4094 110.589 71.6821 110.589 71.2649 110.171L68.8546 107.761L69.6448 105.388C69.9576 104.449 70.517 103.612 71.2643 102.964C72.0116 102.316 72.9194 101.88 73.8926 101.703L81.607 100.301L86.3935 105.088L91.1788 100.302L98.8921 101.704C99.8655 101.881 100.773 102.317 101.521 102.965C102.268 103.613 102.827 104.45 103.14 105.389L104.728 110.149H81.9006ZM117.295 52.7603H101.844C100.019 52.7603 98.5334 54.2457 98.5334 56.0711V64.9002C98.5334 66.7256 100.019 68.2111 101.844 68.2111H104.792L103.651 74.8671L114.301 68.2111H117.295C119.121 68.2111 120.606 66.7256 120.606 64.9002V56.0711C120.606 54.2457 119.121 52.7603 117.295 52.7603ZM118.399 64.9002C118.399 65.5083 117.903 66.0038 117.295 66.0038H113.667L106.658 70.3841L107.41 66.0038H101.844C101.236 66.0038 100.741 65.5083 100.741 64.9002V56.0711C100.741 55.463 101.236 54.9675 101.844 54.9675H117.295C117.903 54.9675 118.399 55.463 118.399 56.0711V64.9002Z" fill="#101010"/>
<path d="M102.947 57.1747H116.191V59.3819H102.947V57.1747ZM102.947 61.5892H111.776V63.7965H102.947V61.5892ZM113.983 61.5892H116.191V63.7965H113.983V61.5892ZM62.6811 80.1931L61.5455 78.3004L58.5546 80.0949C61.6823 67.3667 73.1281 58.2783 86.3926 58.2783C89.2919 58.2783 92.1525 58.7087 94.895 59.5585L95.5483 57.4506C92.5939 56.5346 89.5137 56.071 86.3926 56.071C71.9726 56.071 59.5512 66.0457 56.322 79.9591L54.2306 76.4728L52.3379 77.6084L56.2172 84.0724L62.6811 80.1931ZM109.727 79.7826L111.619 80.9182L113.551 77.6989C114.567 80.6732 115.087 83.7843 115.087 86.9727C115.087 93.536 112.814 99.9525 108.687 105.039L110.401 106.43C114.846 100.951 117.294 94.0404 117.294 86.9727C117.294 83.5967 116.75 80.3002 115.69 77.1438L118.933 79.0895L120.069 77.1967L113.605 73.3175L109.727 79.7826Z" fill="#F1A141"/>
</g>
<defs>
<clipPath id="clip0_987_1076">
<rect width="68.4251" height="68.4251" fill="white" transform="translate(52.2598 52.7603)"/>
</clipPath>
</defs>
</svg>
