<svg width="193" height="193" viewBox="0 0 193 193" fill="none" xmlns="http://www.w3.org/2000/svg">
<circle cx="96.8599" cy="96.8601" r="55.5616" stroke="#F1A141" stroke-width="0.5"/>
<circle cx="96.4999" cy="96.5" r="76.0858" stroke="#FFBE51" stroke-opacity="0.6" stroke-width="0.5"/>
<circle cx="96.5" cy="96.5" r="96.25" stroke="#FFBE51" stroke-opacity="0.2" stroke-width="0.5"/>
<g clip-path="url(#clip0_470_1222)">
<path d="M81.6069 95.2386V86.6201C81.6069 78.4608 88.2223 71.8455 96.3815 71.8455C104.541 71.8455 111.156 78.4608 111.156 86.6201V95.2386H81.6069Z" fill="#D3A06C"/>
<path d="M96.3811 71.8455C95.965 71.8455 95.5574 71.8738 95.1499 71.907C102.732 72.535 108.693 78.8757 108.693 86.6201V95.2386H111.156V86.6201C111.156 78.4608 104.54 71.8455 96.3811 71.8455Z" fill="#B27946"/>
<path d="M91.4565 123.557H118.543L116.232 116.625C115.813 115.369 115.065 114.248 114.064 113.38C113.064 112.512 111.848 111.93 110.545 111.693L101.306 110.013H91.4565L82.2162 111.693C80.9132 111.93 79.6979 112.512 78.6974 113.38C77.6969 114.248 76.9481 115.369 76.5292 116.625L75.4507 121.526V123.557H91.4565Z" fill="#92E0C0"/>
<path d="M91.4567 106.32V110.013L96.3815 114.938L101.306 110.013V106.32H91.4567ZM106.231 91.545H107.463C109.503 91.545 111.156 93.1985 111.156 95.2386C111.156 97.2787 109.503 98.9323 107.463 98.9323H106.231V91.545ZM86.5318 91.545H85.3006C83.2605 91.545 81.6069 93.1985 81.6069 95.2386C81.6069 97.2787 83.2605 98.9323 85.3006 98.9323H86.5318V91.545Z" fill="#F9E0A6"/>
<path d="M85.3003 90.3137V97.701C85.3003 103.821 90.2609 108.782 96.3813 108.782C102.502 108.782 107.462 103.821 107.462 97.701V90.3137C103.52 90.3135 99.7399 88.7475 96.9525 85.9602L96.3813 85.3889L95.81 85.9602C93.0226 88.7475 89.2422 90.3135 85.3003 90.3137Z" fill="#F9E0A6"/>
<path d="M105 97.7011C105 103.404 100.689 108.096 95.1499 108.709C95.555 108.755 95.965 108.782 96.3811 108.782C102.502 108.782 107.462 103.821 107.462 97.7011V90.3137C106.631 90.3137 105.809 90.2288 105 90.0934V97.7011Z" fill="#EABD8C"/>
<path d="M113.618 59.5333H130.855C132.216 59.5333 133.318 60.6352 133.318 61.9957V71.8455C133.318 73.206 132.216 74.3079 130.855 74.3079H127.162L117.312 80.464L118.367 74.3079H113.618C112.258 74.3079 111.156 73.206 111.156 71.8455V61.9957C111.156 60.6352 112.258 59.5333 113.618 59.5333Z" fill="#ECECEC"/>
<path d="M113.208 123.557H118.543L116.232 116.625C115.813 115.369 115.064 114.248 114.064 113.38C113.063 112.512 111.848 111.93 110.545 111.693L101.306 110.013L110.165 114.934C110.852 115.316 111.438 115.857 111.873 116.511C112.309 117.165 112.581 117.915 112.668 118.696L113.208 123.557Z" fill="#48C397"/>
<path d="M86.5316 119.229L82.1165 123.222C81.1549 124.183 79.5962 124.183 78.6346 123.222L69.8043 114.391C68.8427 113.43 68.8427 111.871 69.8043 110.91L73.7972 106.917L66.4098 99.5294L61.7842 104.155C58.8994 107.04 58.8994 111.717 61.7842 114.602L78.4241 131.242C81.3088 134.127 85.9862 134.127 88.871 131.242L93.919 126.616L86.5316 119.229Z" fill="#FB5968"/>
<path d="M117.401 116.236C116.912 114.77 116.038 113.463 114.871 112.451C113.704 111.438 112.286 110.759 110.766 110.482L102.538 108.985V108.347C103.97 107.516 105.216 106.405 106.208 105.088H108.694C110.73 105.088 112.387 103.431 112.387 101.395V86.6201C112.387 77.7947 105.207 70.6143 96.3816 70.6143C87.5562 70.6143 80.3757 77.7947 80.3757 86.6201V95.2386C80.3757 97.6124 82.0637 99.5984 84.3021 100.061C84.9928 103.6 87.2041 106.594 90.2255 108.347V108.985L81.996 110.482C80.4761 110.759 79.0583 111.438 77.8913 112.451C76.7242 113.463 75.8507 114.77 75.3622 116.236L74.8697 117.715L70.6762 113.521C70.196 113.041 70.196 112.259 70.6762 111.779L75.5395 106.917L66.4113 97.7885L60.9151 103.285C59.2874 104.912 58.3911 107.077 58.3911 109.379C58.3911 111.682 59.2874 113.845 60.9151 115.472L77.555 132.112C79.1827 133.74 81.3472 134.638 83.6495 134.638C85.9519 134.638 88.1152 133.74 89.7047 132.149L95.7019 126.654L93.8317 124.788H120.251L117.401 116.236ZM96.3816 113.197L92.6879 109.504V109.446C93.883 109.822 95.1286 110.013 96.3816 110.013C97.6682 110.013 98.908 109.813 100.075 109.446V109.504L96.3816 113.197ZM108.694 102.626H107.658C108.019 101.803 108.288 100.943 108.461 100.061C108.988 99.9517 109.473 99.7424 109.925 99.4789V101.395C109.925 102.074 109.372 102.626 108.694 102.626ZM108.694 93.1185C109.426 93.5457 109.925 94.3312 109.925 95.2386C109.925 96.146 109.426 96.9315 108.694 97.3588V93.1185ZM82.8382 95.2386C82.8382 94.3312 83.3368 93.5457 84.0694 93.1185V97.3588C83.3368 96.9315 82.8382 96.146 82.8382 95.2386ZM84.0694 89.0825V90.4886C83.6376 90.6014 83.2234 90.7729 82.8382 90.9983V86.6201C82.8382 79.1528 88.9142 73.0767 96.3816 73.0767C103.849 73.0767 109.925 79.1528 109.925 86.6201V90.9983C109.54 90.7724 109.126 90.6009 108.694 90.4886V89.0825H107.463C103.822 89.0825 100.399 87.6642 97.8233 85.0897L96.3816 83.6479L94.9398 85.0897C92.3641 87.6642 88.9413 89.0825 85.3006 89.0825H84.0694ZM86.5318 97.7011V91.4982C90.2292 91.2199 93.6766 89.6944 96.3816 87.1224C99.0866 89.6944 102.534 91.2212 106.231 91.4982V97.7011C106.231 99.4962 105.741 101.176 104.899 102.626H96.3816V105.088H102.875C101.139 106.616 98.8699 107.551 96.3816 107.551C90.9507 107.551 86.5318 103.132 86.5318 97.7011ZM72.0564 106.917L70.7193 108.254L65.0729 102.607L66.41 101.27L72.0564 106.917ZM83.6471 132.175C82.0034 132.175 80.457 131.534 79.2935 130.371L62.6536 113.733C61.4913 112.57 60.8511 111.024 60.8511 109.38C60.8511 107.735 61.4913 106.189 62.6536 105.027L63.3308 104.35L68.9771 109.996L68.9328 110.04C67.4935 111.481 67.4935 113.824 68.9328 115.264L77.7619 124.093C78.46 124.79 79.3871 125.176 80.3745 125.176C81.3619 125.176 82.2891 124.792 82.9416 124.137L83.0339 124.054L88.7062 129.726L87.9994 130.374C86.8372 131.534 85.2908 132.175 83.6471 132.175ZM90.5234 128.059L84.8635 122.399L86.49 120.929L92.14 126.579L90.5234 128.059ZM91.3693 122.325L86.5737 117.53L81.245 122.35C80.7808 122.817 79.9694 122.817 79.504 122.35L76.8151 119.661L77.6966 117.014C78.0457 115.967 78.6697 115.033 79.5033 114.31C80.337 113.587 81.3498 113.101 82.4356 112.903L91.0418 111.339L96.3816 116.679L101.72 111.34L110.325 112.904C111.411 113.102 112.424 113.587 113.258 114.311C114.091 115.034 114.715 115.968 115.064 117.015L116.836 122.325H91.3693ZM130.856 58.3021H113.619C111.582 58.3021 109.925 59.9593 109.925 61.9957V71.8455C109.925 73.8819 111.582 75.5391 113.619 75.5391H116.907L115.634 82.9646L127.515 75.5391H130.856C132.892 75.5391 134.549 73.8819 134.549 71.8455V61.9957C134.549 59.9593 132.892 58.3021 130.856 58.3021ZM132.087 71.8455C132.087 72.5239 131.534 73.0767 130.856 73.0767H126.809L118.989 77.9634L119.828 73.0767H113.619C112.94 73.0767 112.387 72.5239 112.387 71.8455V61.9957C112.387 61.3173 112.94 60.7645 113.619 60.7645H130.856C131.534 60.7645 132.087 61.3173 132.087 61.9957V71.8455Z" fill="black"/>
<path d="M114.85 63.2269H129.624V65.6894H114.85V63.2269ZM114.85 68.1518H124.699V70.6143H114.85V68.1518ZM127.162 68.1518H129.624V70.6143H127.162V68.1518ZM69.9286 88.9065L68.6617 86.7949L65.3251 88.7969C68.8144 74.5972 81.5833 64.4582 96.3813 64.4582C99.6157 64.4582 102.807 64.9383 105.867 65.8864L106.596 63.5348C103.3 62.5128 99.8632 61.9957 96.3813 61.9957C80.2942 61.9957 66.4369 73.1235 62.8343 88.6454L60.5012 84.756L58.3896 86.0229L62.7174 93.2342L69.9286 88.9065ZM122.413 88.4485L124.525 89.7154L126.679 86.1239C127.813 89.442 128.393 92.9128 128.393 96.4698C128.393 103.792 125.857 110.95 121.253 116.625L123.165 118.176C128.125 112.064 130.855 104.355 130.855 96.4698C130.855 92.7035 130.248 89.0259 129.065 85.5046L132.684 87.6752L133.951 85.5637L126.739 81.236L122.413 88.4485Z" fill="black"/>
</g>
<defs>
<clipPath id="clip0_470_1222">
<rect width="76.3355" height="76.3355" fill="white" transform="translate(58.3018 58.3021)"/>
</clipPath>
</defs>
</svg>
