<svg width="268" height="268" viewBox="0 0 268 268" fill="none" xmlns="http://www.w3.org/2000/svg">
<circle cx="134.5" cy="134.5" r="77" stroke="#F1A141"/>
<circle cx="134" cy="134" r="105.5" stroke="#FFBE51" stroke-opacity="0.6"/>
<circle cx="134" cy="134" r="133.5" stroke="#FFBE51" stroke-opacity="0.2"/>
<path d="M95.5303 82.5681H172.47V185.432H95.5303V82.5681Z" fill="#DDF5FF"/>
<path d="M167.033 82.5681V123.103C167.033 124.782 165.143 125.792 163.767 124.831C160.719 122.705 157.016 121.455 153.026 121.455C142.65 121.455 134.208 129.897 134.208 140.272C134.208 140.403 134.21 140.533 134.213 140.662C134.237 141.828 133.29 142.781 132.123 142.781H95.5303V185.432H154.908V160.798C154.908 159.8 155.613 158.937 156.593 158.749C159.158 158.253 161.59 157.226 163.734 155.734C165.127 154.765 167.034 155.734 167.034 157.432V185.432H172.469V82.5681H167.033Z" fill="#C1E9F4"/>
<path d="M134 91.3491H112.675C110.365 91.3491 108.493 93.2212 108.493 95.5303V113.929C108.493 116.238 110.365 118.11 112.675 118.11H155.326C157.634 118.11 159.507 116.238 159.507 113.929V95.5303C159.507 93.2212 157.634 91.3491 155.326 91.3491H134Z" fill="#FFDA88"/>
<path d="M155.326 91.3491H151.353C153.662 91.3491 155.534 93.2212 155.534 95.5303V113.929C155.534 116.238 153.662 118.11 151.353 118.11H155.326C157.634 118.11 159.507 116.238 159.507 113.929V95.5303C159.507 93.2212 157.634 91.3491 155.326 91.3491Z" fill="#FFCD69"/>
<path d="M82.5679 146.962V185.432H150.726V146.962L82.5679 146.962Z" fill="#ABDE97"/>
<path d="M147.171 146.962V185.432H150.726V146.962L147.171 146.962Z" fill="#82CD64"/>
<path d="M116.647 178.951H94.4547C94.4547 176.196 92.2218 173.963 89.4673 173.963V158.64C92.2218 158.64 94.4547 156.407 94.4547 153.653H138.839C138.839 156.407 141.072 158.64 143.827 158.64V173.963C141.072 173.963 138.839 176.196 138.839 178.951H116.647Z" fill="#6DC54A"/>
<path d="M138.839 153.653H136.58V154.291C136.58 157.102 138.213 159.696 140.801 160.797C140.885 160.832 140.97 160.866 141.056 160.899V171.704C140.038 172.096 139.114 172.697 138.343 173.468C137.572 174.239 136.972 175.163 136.58 176.18H93.6143C94.1634 177 94.4559 177.964 94.4544 178.951H138.839C138.839 176.196 141.072 173.963 143.827 173.963V158.64C141.072 158.64 138.839 156.407 138.839 153.653Z" fill="#5DB33A"/>
<path d="M167.66 140.272C167.66 148.355 161.108 154.907 153.026 154.907C144.943 154.907 138.391 148.355 138.391 140.272C138.391 132.189 144.943 125.637 153.026 125.637C161.108 125.637 167.66 132.189 167.66 140.272Z" fill="#E5646E"/>
<path d="M161.924 128.656C163.816 131.123 164.943 134.206 164.943 137.554C164.943 145.637 158.39 152.189 150.308 152.189C146.96 152.189 143.876 151.062 141.41 149.171C144.085 152.657 148.292 154.907 153.026 154.907C161.108 154.907 167.66 148.355 167.66 140.272C167.66 135.538 165.411 131.331 161.924 128.656V128.656Z" fill="#E04955"/>
<path d="M172.47 102.221C173.335 102.221 174.037 101.519 174.037 100.653V82.5681C174.037 82.1523 173.872 81.7536 173.578 81.4596C173.284 81.1655 172.885 81.0002 172.47 81H95.5303C94.6649 81 93.963 81.7018 93.963 82.5681V145.395H82.5678C82.152 145.395 81.7533 145.56 81.4593 145.854C81.1653 146.148 81.0001 146.547 81 146.963V161.301C81 161.717 81.1652 162.116 81.4593 162.41C81.7533 162.704 82.1522 162.869 82.5681 162.869C82.9839 162.869 83.3828 162.704 83.6768 162.41C83.9709 162.116 84.1361 161.717 84.1361 161.301V148.531H139.092C141.283 152.213 144.89 154.956 149.158 156.005V183.864H84.1361V168.584C84.1361 168.169 83.9709 167.77 83.6768 167.476C83.3828 167.182 82.9839 167.016 82.5681 167.016C82.1522 167.016 81.7533 167.182 81.4593 167.476C81.1652 167.77 81 168.169 81 168.584V185.432C81 185.637 81.0405 185.841 81.1193 186.032C81.1981 186.222 81.3136 186.395 81.4592 186.54C81.6048 186.686 81.7777 186.802 81.9679 186.88C82.1582 186.959 82.3621 187 82.5681 187H172.47C173.335 187 174.037 186.298 174.037 185.432V107.996C174.04 107.788 174.002 107.582 173.925 107.389C173.848 107.195 173.733 107.02 173.587 106.871C173.441 106.723 173.267 106.605 173.075 106.525C172.883 106.444 172.677 106.403 172.469 106.403C172.261 106.403 172.055 106.444 171.863 106.525C171.671 106.605 171.497 106.723 171.352 106.871C171.206 107.02 171.091 107.195 171.013 107.389C170.936 107.582 170.898 107.788 170.901 107.996V183.864H152.294V156.456C152.536 156.468 152.78 156.475 153.026 156.475C161.96 156.475 169.228 149.206 169.228 140.272C169.228 131.338 161.959 124.069 153.026 124.069C144.091 124.069 136.822 131.338 136.822 140.272C136.822 142.014 137.104 143.743 137.657 145.395H97.0983V84.1365H170.901V100.653C170.901 101.069 171.067 101.468 171.361 101.762C171.655 102.056 172.054 102.221 172.47 102.221ZM153.026 127.205C160.23 127.205 166.092 133.067 166.092 140.272C166.092 147.477 160.23 153.339 153.026 153.339C145.82 153.339 139.958 147.477 139.958 140.272C139.958 133.067 145.82 127.205 153.026 127.205Z" fill="black"/>
<path d="M119.156 113.197C119.362 113.198 119.565 113.157 119.756 113.078C119.946 112.999 120.119 112.884 120.265 112.738C120.41 112.593 120.526 112.42 120.605 112.229C120.683 112.039 120.724 111.835 120.724 111.629V99.3982H123.337C123.753 99.3982 124.151 99.233 124.446 98.9389C124.74 98.6449 124.905 98.246 124.905 97.8302C124.905 97.4143 124.74 97.0154 124.446 96.7214C124.151 96.4273 123.753 96.2621 123.337 96.2621H114.974C114.109 96.2621 113.407 96.9639 113.407 97.8302C113.407 98.2459 113.572 98.6447 113.866 98.9387C114.16 99.2328 114.558 99.3981 114.974 99.3982H117.588V111.629C117.588 111.835 117.628 112.039 117.707 112.229C117.786 112.42 117.901 112.592 118.047 112.738C118.193 112.884 118.365 112.999 118.556 113.078C118.746 113.157 118.95 113.197 119.156 113.197ZM138.182 113.197C139.047 113.197 139.75 112.495 139.75 111.629V99.9216C139.75 97.9037 138.108 96.2621 136.09 96.2621H131.909C129.891 96.2621 128.25 97.9039 128.25 99.9216V111.629C128.25 112.045 128.415 112.444 128.709 112.738C129.003 113.032 129.402 113.197 129.818 113.197C130.024 113.197 130.228 113.157 130.418 113.078C130.608 112.999 130.781 112.884 130.927 112.738C131.072 112.592 131.188 112.42 131.267 112.229C131.345 112.039 131.386 111.835 131.386 111.629V106.298H136.613V111.629C136.613 111.835 136.654 112.039 136.733 112.229C136.812 112.42 136.927 112.592 137.073 112.738C137.218 112.884 137.391 112.999 137.581 113.078C137.772 113.157 137.976 113.197 138.182 113.197H138.182ZM131.386 103.162V99.9216C131.386 99.7828 131.441 99.6498 131.539 99.5516C131.637 99.4535 131.77 99.3983 131.909 99.3982H136.09C136.229 99.3983 136.362 99.4535 136.46 99.5516C136.558 99.6498 136.613 99.7828 136.613 99.9216V103.162H131.386ZM143.85 112.97C144.026 113.077 144.221 113.148 144.425 113.179C144.628 113.211 144.836 113.201 145.036 113.152C145.236 113.103 145.424 113.015 145.59 112.894C145.756 112.772 145.897 112.618 146.003 112.442L148.844 107.755L151.685 112.442C151.824 112.673 152.021 112.864 152.257 112.996C152.492 113.129 152.757 113.198 153.027 113.197C153.305 113.197 153.578 113.123 153.818 112.983C154.058 112.842 154.256 112.641 154.393 112.398C154.529 112.156 154.598 111.882 154.594 111.604C154.589 111.326 154.511 111.054 154.366 110.817L150.678 104.729L154.366 98.643C154.473 98.4669 154.544 98.2715 154.576 98.068C154.607 97.8644 154.598 97.6567 154.549 97.4567C154.5 97.2567 154.412 97.0683 154.29 96.9023C154.168 96.7363 154.015 96.5959 153.838 96.4892C153.662 96.3824 153.467 96.3114 153.263 96.2801C153.06 96.2489 152.852 96.258 152.652 96.3071C152.452 96.3561 152.264 96.4441 152.098 96.566C151.932 96.6878 151.791 96.8412 151.685 97.0174L148.844 101.705L146.003 97.0174C145.788 96.6619 145.44 96.4066 145.036 96.3076C144.632 96.2086 144.205 96.274 143.85 96.4894C143.674 96.5961 143.52 96.7365 143.399 96.9025C143.277 97.0685 143.189 97.2569 143.14 97.4568C143.091 97.6568 143.082 97.8645 143.113 98.068C143.144 98.2715 143.215 98.4669 143.322 98.643L147.01 104.729L143.322 110.817C143.215 110.993 143.144 111.188 143.113 111.392C143.081 111.595 143.091 111.803 143.14 112.003C143.189 112.203 143.277 112.391 143.399 112.557C143.52 112.723 143.674 112.863 143.85 112.97Z" fill="black"/>
<path d="M161.075 113.929V95.5303C161.075 92.36 158.496 89.781 155.325 89.781H125.513C125.097 89.7811 124.698 89.9463 124.404 90.2404C124.11 90.5344 123.945 90.9332 123.945 91.3491C123.945 91.555 123.986 91.7589 124.064 91.9492C124.143 92.1395 124.259 92.3124 124.404 92.458C124.55 92.6036 124.723 92.7191 124.913 92.798C125.103 92.8768 125.307 92.9173 125.513 92.9173H155.326C156.767 92.9173 157.938 94.09 157.938 95.5301V113.929C157.938 115.37 156.766 116.542 155.326 116.542H112.675C111.234 116.542 110.061 115.37 110.061 113.929V95.5303C110.061 94.0891 111.234 92.9173 112.675 92.9173H118.163C118.369 92.9173 118.573 92.8768 118.763 92.798C118.953 92.7191 119.126 92.6036 119.272 92.458C119.417 92.3124 119.533 92.1395 119.612 91.9492C119.69 91.7589 119.731 91.555 119.731 91.3491C119.731 91.1432 119.69 90.9393 119.611 90.749C119.533 90.5588 119.417 90.3859 119.272 90.2403C119.126 90.0947 118.953 89.9792 118.763 89.9004C118.573 89.8216 118.369 89.781 118.163 89.781H112.675C109.504 89.781 106.925 92.36 106.925 95.5303V113.929C106.925 117.099 109.504 119.678 112.675 119.678H155.326C158.496 119.678 161.075 117.099 161.075 113.929L161.075 113.929ZM92.8863 178.951C92.8863 179.367 93.0515 179.766 93.3456 180.06C93.6396 180.354 94.0385 180.519 94.4544 180.519H138.839C139.255 180.519 139.654 180.354 139.948 180.06C140.242 179.766 140.407 179.367 140.407 178.951C140.407 177.065 141.94 175.532 143.827 175.532C144.242 175.532 144.641 175.366 144.935 175.072C145.229 174.778 145.395 174.379 145.395 173.963V158.64C145.395 158.434 145.354 158.23 145.275 158.04C145.197 157.85 145.081 157.677 144.935 157.531C144.79 157.385 144.617 157.27 144.427 157.191C144.236 157.112 144.032 157.072 143.827 157.072C141.94 157.072 140.407 155.538 140.407 153.653C140.407 153.237 140.242 152.838 139.948 152.544C139.654 152.25 139.255 152.085 138.839 152.085H94.4544C94.0385 152.085 93.6396 152.25 93.3456 152.544C93.0515 152.838 92.8863 153.237 92.8863 153.653C92.8863 155.538 91.3522 157.072 89.467 157.072C89.261 157.072 89.0571 157.112 88.8669 157.191C88.6766 157.27 88.5037 157.385 88.3581 157.531C88.2125 157.677 88.097 157.85 88.0182 158.04C87.9394 158.23 87.8989 158.434 87.8989 158.64V173.963C87.8989 174.379 88.0641 174.778 88.3582 175.072C88.6523 175.366 89.0511 175.532 89.467 175.532C91.353 175.532 92.8863 177.066 92.8863 178.951ZM91.0352 160.019C93.3925 159.437 95.2518 157.578 95.8332 155.221H137.461C138.042 157.578 139.901 159.437 142.258 160.019V172.585C139.901 173.166 138.042 175.026 137.461 177.383H95.8334C95.2527 175.025 93.3925 173.166 91.0352 172.585V160.019Z" fill="black"/>
<path d="M130.777 167.854H136.041C136.247 167.854 136.451 167.814 136.641 167.735C136.831 167.656 137.004 167.541 137.15 167.395C137.296 167.249 137.411 167.077 137.49 166.886C137.569 166.696 137.609 166.492 137.609 166.286C137.609 166.08 137.569 165.876 137.49 165.686C137.411 165.496 137.296 165.323 137.15 165.177C137.004 165.032 136.831 164.916 136.641 164.837C136.451 164.759 136.247 164.718 136.041 164.718H130.777C130.571 164.718 130.367 164.759 130.177 164.837C129.987 164.916 129.814 165.032 129.668 165.177C129.523 165.323 129.407 165.496 129.328 165.686C129.25 165.876 129.209 166.08 129.209 166.286C129.209 166.492 129.25 166.696 129.328 166.886C129.407 167.077 129.523 167.249 129.668 167.395C129.814 167.541 129.987 167.656 130.177 167.735C130.367 167.814 130.571 167.854 130.777 167.854ZM107.854 167.854H108.964C109.693 171.429 112.861 174.127 116.647 174.127C120.434 174.127 123.601 171.429 124.329 167.854H125.413C125.619 167.854 125.823 167.814 126.013 167.735C126.203 167.656 126.376 167.541 126.522 167.395C126.667 167.249 126.783 167.077 126.862 166.886C126.941 166.696 126.981 166.492 126.981 166.286C126.981 166.08 126.941 165.876 126.862 165.686C126.783 165.496 126.667 165.323 126.522 165.177C126.376 165.032 126.203 164.916 126.013 164.837C125.823 164.759 125.619 164.718 125.413 164.718H124.329C123.601 161.144 120.434 158.446 116.647 158.446C112.861 158.446 109.693 161.144 108.964 164.718H107.854C107.438 164.718 107.039 164.883 106.745 165.177C106.451 165.472 106.286 165.87 106.286 166.286C106.286 166.492 106.327 166.696 106.405 166.886C106.484 167.077 106.6 167.249 106.745 167.395C106.891 167.541 107.064 167.656 107.254 167.735C107.444 167.814 107.648 167.854 107.854 167.854ZM116.646 161.582C119.241 161.582 121.351 163.693 121.351 166.286C121.351 168.881 119.241 170.991 116.646 170.991C114.053 170.991 111.943 168.881 111.943 166.286C111.943 163.693 114.053 161.582 116.646 161.582ZM97.2526 167.854H102.517C102.723 167.854 102.926 167.814 103.117 167.735C103.307 167.656 103.48 167.541 103.625 167.395C103.771 167.249 103.886 167.077 103.965 166.886C104.044 166.696 104.085 166.492 104.085 166.286C104.085 165.87 103.919 165.472 103.625 165.177C103.331 164.883 102.932 164.718 102.517 164.718H97.2526C96.8368 164.718 96.4379 164.883 96.1438 165.177C95.8498 165.472 95.6846 165.87 95.6846 166.286C95.6846 166.492 95.7251 166.696 95.8039 166.886C95.8827 167.077 95.9982 167.249 96.1438 167.395C96.2895 167.541 96.4623 167.656 96.6526 167.735C96.8428 167.814 97.0467 167.854 97.2526 167.854ZM148.695 139.35C150.515 139.35 151.995 137.87 151.995 136.05V134.534C151.995 132.714 150.515 131.233 148.695 131.233C146.875 131.233 145.395 132.714 145.395 134.534V136.05C145.395 137.87 146.875 139.35 148.695 139.35ZM154.056 144.495V146.01C154.056 147.831 155.537 149.31 157.356 149.31C159.176 149.31 160.657 147.831 160.657 146.01V144.495C160.657 142.675 159.176 141.194 157.356 141.194C155.537 141.194 154.056 142.675 154.056 144.495ZM148.402 149.133C148.585 149.228 148.784 149.287 148.989 149.305C149.195 149.323 149.401 149.301 149.598 149.239C149.794 149.177 149.977 149.077 150.135 148.945C150.292 148.813 150.423 148.651 150.518 148.468L158.313 133.527C158.408 133.344 158.467 133.145 158.485 132.939C158.503 132.734 158.481 132.528 158.419 132.331C158.357 132.135 158.257 131.952 158.125 131.795C157.993 131.637 157.831 131.506 157.648 131.411C157.466 131.316 157.266 131.257 157.061 131.239C156.856 131.221 156.649 131.243 156.453 131.305C156.256 131.367 156.074 131.467 155.916 131.599C155.758 131.731 155.628 131.893 155.533 132.076L147.737 147.018C147.545 147.386 147.507 147.816 147.632 148.213C147.757 148.61 148.034 148.94 148.402 149.133ZM136.822 126.473C136.822 126.267 136.782 126.063 136.703 125.873C136.624 125.683 136.509 125.51 136.363 125.364C136.217 125.219 136.045 125.103 135.854 125.024C135.664 124.946 135.46 124.905 135.254 124.905H108.493C108.287 124.905 108.083 124.946 107.893 125.024C107.703 125.103 107.53 125.219 107.384 125.364C107.239 125.51 107.123 125.683 107.044 125.873C106.965 126.063 106.925 126.267 106.925 126.473C106.925 126.889 107.09 127.288 107.384 127.582C107.678 127.876 108.077 128.041 108.493 128.041H135.254C135.67 128.041 136.069 127.876 136.363 127.582C136.657 127.288 136.822 126.889 136.822 126.473ZM126.891 138.913H108.493C108.287 138.913 108.083 138.953 107.893 139.032C107.703 139.111 107.53 139.226 107.384 139.372C107.239 139.518 107.123 139.691 107.044 139.881C106.965 140.071 106.925 140.275 106.925 140.481C106.925 140.897 107.09 141.296 107.384 141.59C107.678 141.884 108.077 142.049 108.493 142.049H126.891C127.097 142.049 127.301 142.009 127.491 141.93C127.682 141.851 127.854 141.735 128 141.59C128.146 141.444 128.261 141.271 128.34 141.081C128.419 140.891 128.459 140.687 128.459 140.481C128.459 140.275 128.419 140.071 128.34 139.881C128.261 139.691 128.146 139.518 128 139.372C127.854 139.226 127.682 139.111 127.491 139.032C127.301 138.953 127.097 138.913 126.891 138.913ZM126.891 131.909H108.493C108.287 131.909 108.083 131.95 107.893 132.029C107.703 132.108 107.53 132.223 107.384 132.369C107.239 132.514 107.123 132.687 107.044 132.877C106.965 133.068 106.925 133.272 106.925 133.478C106.925 134.343 107.627 135.046 108.493 135.046H126.891C127.307 135.046 127.706 134.88 128 134.586C128.294 134.292 128.459 133.893 128.459 133.478C128.459 133.272 128.419 133.068 128.34 132.877C128.261 132.687 128.146 132.514 128 132.369C127.854 132.223 127.682 132.108 127.491 132.029C127.301 131.95 127.097 131.909 126.891 131.909Z" fill="black"/>
</svg>
