<svg width="59" height="60" viewBox="0 0 59 60" fill="none" xmlns="http://www.w3.org/2000/svg">
<path d="M17.0556 28.4444L26.3889 37.7778L41.9444 22.2222M29.5 58C22.0739 58 14.952 55.05 9.70101 49.799C4.44999 44.548 1.5 37.4261 1.5 30V30C1.5 22.5739 4.44999 15.452 9.70101 10.201C14.952 4.94999 22.0739 2 29.5 2V2C36.9261 2 44.048 4.94999 49.299 10.201C54.55 15.452 57.5 22.5739 57.5 30V30C57.5 37.4261 54.55 44.548 49.299 49.799C44.048 55.05 36.9261 58 29.5 58V58Z" stroke="#009900" stroke-width="3" stroke-linecap="round" stroke-linejoin="round"/>
</svg>
