<svg width="22" height="24" viewBox="0 0 22 24" fill="none" xmlns="http://www.w3.org/2000/svg">
<path d="M15.6772 8.66347C17.2205 9.77064 19.1112 10.4221 21.1532 10.4221V6.47861C20.7668 6.47869 20.3813 6.43825 20.0032 6.35786V9.46193C17.9614 9.46193 16.0709 8.81049 14.5272 7.7034V15.7509C14.5272 19.7766 11.2753 23.0399 7.26406 23.0399C5.76739 23.0399 4.37629 22.5858 3.2207 21.807C4.53961 23.1604 6.37894 24 8.41383 24C12.4253 24 15.6774 20.7367 15.6774 16.7108V8.66347H15.6772ZM17.0959 4.68499C16.3071 3.82023 15.7892 2.70267 15.6772 1.46717V0.959961H14.5874C14.8617 2.53028 15.7974 3.87187 17.0959 4.68499ZM5.75779 18.7178C5.31712 18.1379 5.07898 17.4286 5.08004 16.6992C5.08004 14.858 6.56745 13.3651 8.40251 13.3651C8.7445 13.365 9.08444 13.4176 9.41035 13.5214V9.48977C9.02948 9.43738 8.64507 9.41515 8.26084 9.4233V12.5613C7.93468 12.4575 7.59457 12.4048 7.2525 12.4051C5.41744 12.4051 3.93012 13.8979 3.93012 15.7393C3.93012 17.0414 4.67357 18.1687 5.75779 18.7178Z" fill="#FF004F"/>
<path d="M14.526 7.70332C16.0697 8.81041 17.9602 9.46185 20.002 9.46185V6.35778C18.8623 6.11414 17.8533 5.5164 17.0946 4.68499C15.7961 3.87179 14.8605 2.5302 14.5862 0.959961H11.7236V16.7106C11.7171 18.5468 10.2323 20.0336 8.40113 20.0336C7.32208 20.0336 6.36345 19.5174 5.75634 18.7178C4.6722 18.1687 3.92874 17.0413 3.92874 15.7394C3.92874 13.8981 5.41607 12.4052 7.25112 12.4052C7.60271 12.4052 7.94159 12.4602 8.25946 12.5614V9.42338C4.31872 9.50509 1.14941 12.7365 1.14941 16.7107C1.14941 18.6946 1.93864 20.493 3.21958 21.8071C4.37516 22.5858 5.76626 23.04 7.26294 23.04C11.2742 23.04 14.5261 19.7765 14.5261 15.7509V7.70332H14.526Z" fill="black"/>
<path d="M20.0025 6.3578V5.51848C18.9748 5.52005 17.9672 5.23119 17.0952 4.68493C17.8671 5.53306 18.8835 6.11787 20.0025 6.3578ZM14.5867 0.959983C14.5605 0.809911 14.5404 0.658851 14.5265 0.507214V0H10.574V15.7508C10.5677 17.5868 9.08292 19.0736 7.25164 19.0736C6.714 19.0736 6.20638 18.9455 5.75685 18.7179C6.36397 19.5174 7.32259 20.0335 8.40164 20.0335C10.2326 20.0335 11.7177 18.5469 11.7241 16.7107V0.959983H14.5867ZM8.26014 9.4234V8.52989C7.92988 8.48459 7.59691 8.46186 7.26353 8.46202C3.25192 8.46194 0 11.7254 0 15.7508C0 18.2745 1.27806 20.4987 3.22017 21.807C1.93924 20.493 1.15001 18.6944 1.15001 16.7106C1.15001 12.7365 4.31923 9.50511 8.26014 9.4234Z" fill="#00F2EA"/>
</svg>
