<svg width="45" height="44" viewBox="0 0 45 44" fill="none" xmlns="http://www.w3.org/2000/svg">
<path d="M21.8287 0.608018C22.2097 0.262925 22.7903 0.262926 23.1713 0.608018L26.245 3.39196C26.5035 3.62604 26.8652 3.70859 27.1996 3.60983L31.1768 2.43522C31.6698 2.28962 32.1929 2.54153 32.3865 3.01776L33.9479 6.85964C34.0792 7.18267 34.3692 7.41399 34.7134 7.4701L38.8064 8.13747C39.3137 8.2202 39.6757 8.67412 39.6435 9.18717L39.3833 13.3261C39.3615 13.6741 39.5224 14.0083 39.8081 14.2082L43.2063 16.5854C43.6275 16.88 43.7567 17.4461 43.505 17.8943L41.4748 21.5105C41.3041 21.8145 41.3041 22.1855 41.4748 22.4895L43.505 26.1057C43.7567 26.5539 43.6275 27.12 43.2063 27.4146L39.8081 29.7918C39.5224 29.9917 39.3615 30.3259 39.3833 30.6739L39.6435 34.8128C39.6757 35.3259 39.3137 35.7798 38.8064 35.8625L34.7134 36.5299C34.3692 36.586 34.0792 36.8173 33.9479 37.1404L32.3865 40.9822C32.1929 41.4585 31.6698 41.7104 31.1768 41.5648L27.1996 40.3902C26.8652 40.2914 26.5035 40.374 26.245 40.608L23.1713 43.392C22.7903 43.7371 22.2097 43.7371 21.8287 43.392L18.755 40.608C18.4965 40.374 18.1348 40.2914 17.8004 40.3902L13.8232 41.5648C13.3302 41.7104 12.8071 41.4585 12.6135 40.9822L11.0521 37.1404C10.9208 36.8173 10.6308 36.586 10.2866 36.5299L6.19363 35.8625C5.68626 35.7798 5.32428 35.3259 5.35652 34.8128L5.61666 30.6739C5.63854 30.3259 5.47756 29.9917 5.19185 29.7918L1.79374 27.4146C1.37251 27.12 1.24332 26.5539 1.49498 26.1057L3.52516 22.4895C3.69585 22.1855 3.69585 21.8145 3.52516 21.5105L1.49498 17.8943C1.24332 17.4461 1.37252 16.88 1.79374 16.5854L5.19185 14.2082C5.47757 14.0083 5.63854 13.6741 5.61666 13.3261L5.35652 9.18716C5.32428 8.67412 5.68627 8.22019 6.19363 8.13747L10.2866 7.4701C10.6308 7.41399 10.9208 7.18267 11.0521 6.85964L12.6135 3.01776C12.8071 2.54152 13.3302 2.28962 13.8232 2.43522L17.8004 3.60983C18.1348 3.70859 18.4965 3.62604 18.755 3.39196L21.8287 0.608018Z" fill="#16CF98"/>
<path d="M20.7416 29.3338C20.5102 29.3352 20.2808 29.2877 20.0665 29.1939C19.8523 29.1001 19.6574 28.9619 19.4931 28.7872L14.2174 23.1334C14.0534 22.9577 13.9233 22.7491 13.8346 22.5195C13.7459 22.2899 13.7002 22.0438 13.7002 21.7953C13.7002 21.2934 13.8862 20.8121 14.2174 20.4573C14.5485 20.1024 14.9976 19.903 15.466 19.903C15.9343 19.903 16.3834 20.1024 16.7145 20.4573L20.7416 24.7919L28.2859 16.688C28.617 16.3332 29.0661 16.1338 29.5344 16.1338C30.0027 16.1338 30.4519 16.3332 30.783 16.688C31.1142 17.0429 31.3002 17.5242 31.3002 18.0261C31.3002 18.528 31.1142 19.0093 30.783 19.3642L21.9902 28.7872C21.8259 28.9619 21.631 29.1001 21.4168 29.1939C21.2025 29.2877 20.9731 29.3352 20.7416 29.3338Z" fill="white"/>
</svg>
