<svg width="44" height="44" viewBox="0 0 44 44" fill="none" xmlns="http://www.w3.org/2000/svg">
<path d="M21.3287 0.608018C21.7097 0.262925 22.2903 0.262926 22.6713 0.608018L25.745 3.39196C26.0035 3.62604 26.3652 3.70859 26.6996 3.60983L30.6768 2.43522C31.1698 2.28962 31.6929 2.54153 31.8865 3.01776L33.4479 6.85964C33.5792 7.18267 33.8692 7.41399 34.2134 7.4701L38.3064 8.13747C38.8137 8.2202 39.1757 8.67412 39.1435 9.18717L38.8833 13.3261C38.8615 13.6741 39.0224 14.0083 39.3081 14.2082L42.7063 16.5854C43.1275 16.88 43.2567 17.4461 43.005 17.8943L40.9748 21.5105C40.8041 21.8145 40.8041 22.1855 40.9748 22.4895L43.005 26.1057C43.2567 26.5539 43.1275 27.12 42.7063 27.4146L39.3081 29.7918C39.0224 29.9917 38.8615 30.3259 38.8833 30.6739L39.1435 34.8128C39.1757 35.3259 38.8137 35.7798 38.3064 35.8625L34.2134 36.5299C33.8692 36.586 33.5792 36.8173 33.4479 37.1404L31.8865 40.9822C31.6929 41.4585 31.1698 41.7104 30.6768 41.5648L26.6996 40.3902C26.3652 40.2914 26.0035 40.374 25.745 40.608L22.6713 43.392C22.2903 43.7371 21.7097 43.7371 21.3287 43.392L18.255 40.608C17.9965 40.374 17.6348 40.2914 17.3004 40.3902L13.3232 41.5648C12.8302 41.7104 12.3071 41.4585 12.1135 40.9822L10.5521 37.1404C10.4208 36.8173 10.1308 36.586 9.78664 36.5299L5.69363 35.8625C5.18626 35.7798 4.82428 35.3259 4.85652 34.8128L5.11666 30.6739C5.13854 30.3259 4.97756 29.9917 4.69185 29.7918L1.29374 27.4146C0.872515 27.12 0.743323 26.5539 0.99498 26.1057L3.02516 22.4895C3.19585 22.1855 3.19585 21.8145 3.02516 21.5105L0.994979 17.8943C0.743323 17.4461 0.872516 16.88 1.29374 16.5854L4.69185 14.2082C4.97757 14.0083 5.13854 13.6741 5.11666 13.3261L4.85652 9.18716C4.82428 8.67412 5.18627 8.22019 5.69363 8.13747L9.78664 7.4701C10.1308 7.41399 10.4208 7.18267 10.5521 6.85964L12.1135 3.01776C12.3071 2.54152 12.8302 2.28962 13.3232 2.43522L17.3004 3.60983C17.6348 3.70859 17.9965 3.62604 18.255 3.39196L21.3287 0.608018Z" fill="#FF9A27"/>
<path d="M20.2416 29.3338C20.0102 29.3352 19.7808 29.2877 19.5665 29.1939C19.3523 29.1001 19.1574 28.9619 18.9931 28.7872L13.7174 23.1334C13.5534 22.9577 13.4233 22.7491 13.3346 22.5195C13.2459 22.2899 13.2002 22.0438 13.2002 21.7953C13.2002 21.2934 13.3862 20.8121 13.7174 20.4573C14.0485 20.1024 14.4976 19.903 14.966 19.903C15.4343 19.903 15.8834 20.1024 16.2145 20.4573L20.2416 24.7919L27.7859 16.688C28.117 16.3332 28.5661 16.1338 29.0344 16.1338C29.5027 16.1338 29.9519 16.3332 30.283 16.688C30.6142 17.0429 30.8002 17.5242 30.8002 18.0261C30.8002 18.528 30.6142 19.0093 30.283 19.3642L21.4902 28.7872C21.3259 28.9619 21.131 29.1001 20.9168 29.1939C20.7025 29.2877 20.4731 29.3352 20.2416 29.3338Z" fill="white"/>
</svg>
