<svg width="48" height="48" viewBox="0 0 48 48" fill="none" xmlns="http://www.w3.org/2000/svg">
<path d="M0 48L3.39255 35.6806C1.29513 32.0646 0.194842 27.9696 0.206304 23.7833C0.206304 10.6654 10.9341 0 24.1031 0C30.4985 0 36.5043 2.47529 41.0086 6.96958C45.5243 11.4639 48.0114 17.4411 48 23.7947C48 36.9126 37.2722 47.578 24.0917 47.578H24.0802C20.0802 47.578 16.149 46.5742 12.6533 44.6806L0 48ZM13.2607 40.3802L13.9828 40.8137C17.0315 42.616 20.5272 43.5627 24.0917 43.5742H24.1031C35.0487 43.5742 43.9656 34.711 43.9656 23.8061C43.9656 18.5247 41.9025 13.5627 38.1547 9.82129C34.4068 6.07985 29.4097 4.02662 24.1031 4.02662C13.1576 4.01521 4.24068 12.8783 4.24068 23.7833C4.24068 27.5133 5.28366 31.1521 7.27793 34.3004L7.74785 35.0532L5.74212 42.3422L13.2607 40.3802Z" fill="white"/>
<path d="M0.836426 47.1673L4.11436 35.27C2.08571 31.7909 1.01981 27.8327 1.01981 23.7947C1.03127 11.1331 11.3808 0.832703 24.1029 0.832703C30.2805 0.832703 36.0685 3.22814 40.4238 7.56274C44.7791 11.8973 47.1745 17.6692 47.1745 23.8061C47.1745 36.4677 36.8135 46.7681 24.1029 46.7681H24.0914C20.229 46.7681 16.4353 45.7985 13.0656 43.9734L0.836426 47.1673Z" fill="url(#paint0_linear_181_7760)"/>
<path d="M0 48L3.39255 35.6806C1.29513 32.0646 0.194842 27.9696 0.206304 23.7833C0.206304 10.6654 10.9341 0 24.1031 0C30.4985 0 36.5043 2.47529 41.0086 6.96958C45.5243 11.4639 48.0114 17.4411 48 23.7947C48 36.9126 37.2722 47.578 24.0917 47.578H24.0802C20.0802 47.578 16.149 46.5742 12.6533 44.6806L0 48ZM13.2607 40.3802L13.9828 40.8137C17.0315 42.616 20.5272 43.5627 24.0917 43.5742H24.1031C35.0487 43.5742 43.9656 34.711 43.9656 23.8061C43.9656 18.5247 41.9025 13.5627 38.1547 9.82129C34.4068 6.07985 29.4097 4.02662 24.1031 4.02662C13.1576 4.01521 4.24068 12.8783 4.24068 23.7833C4.24068 27.5133 5.28366 31.1521 7.27793 34.3004L7.74785 35.0532L5.74212 42.3422L13.2607 40.3802Z" fill="url(#paint1_linear_181_7760)"/>
<path fill-rule="evenodd" clip-rule="evenodd" d="M18.1315 13.8365C17.6845 12.8441 17.2146 12.8213 16.7905 12.8099C16.4467 12.7985 16.0456 12.7985 15.6444 12.7985C15.2433 12.7985 14.6014 12.9468 14.0513 13.5399C13.5011 14.1331 11.9653 15.5703 11.9653 18.5019C11.9653 21.422 14.1086 24.2509 14.4066 24.6502C14.7046 25.0494 18.5441 31.2433 24.6072 33.6274C29.6501 35.6122 30.6817 35.2129 31.7705 35.1103C32.8593 35.0076 35.3006 33.673 35.8049 32.2814C36.2977 30.8897 36.2977 29.7034 36.1487 29.4525C35.9997 29.2015 35.5986 29.0532 35.0026 28.7566C34.4066 28.4601 31.4725 27.0228 30.9223 26.8175C30.3722 26.6236 29.9711 26.5209 29.5814 27.1141C29.1802 27.7072 28.0341 29.0418 27.6902 29.4411C27.3464 29.8403 26.9911 29.8859 26.3951 29.5893C25.7991 29.2928 23.8736 28.6654 21.5928 26.635C19.8163 25.0608 18.6129 23.1103 18.2691 22.5171C17.9252 21.9239 18.2347 21.6045 18.5327 21.308C18.7963 21.0456 19.1287 20.6122 19.4266 20.2699C19.7246 19.9277 19.8278 19.6768 20.0226 19.2776C20.2175 18.8783 20.1258 18.5361 19.9768 18.2395C19.8278 17.9544 18.6587 15.0114 18.1315 13.8365Z" fill="white"/>
<defs>
<linearGradient id="paint0_linear_181_7760" x1="24.0043" y1="47.165" x2="24.0043" y2="0.831082" gradientUnits="userSpaceOnUse">
<stop stop-color="#20B038"/>
<stop offset="1" stop-color="#60D66A"/>
</linearGradient>
<linearGradient id="paint1_linear_181_7760" x1="24.0047" y1="47.9955" x2="24.0047" y2="0" gradientUnits="userSpaceOnUse">
<stop stop-color="#F9F9F9"/>
<stop offset="1" stop-color="white"/>
</linearGradient>
</defs>
</svg>
